<svg width="288" height="220" viewBox="0 0 288 220" fill="none" xmlns="http://www.w3.org/2000/svg">
<path d="M270.395 67.8076H261.989V172.89H270.395V67.8076Z" fill="#101010" stroke="white" stroke-width="0.701069" stroke-miterlimit="10"/>
<path d="M262.353 74.897H129.949V172.274H262.353V74.897Z" fill="white"/>
<path d="M262.003 75.2474V171.924H130.299V75.2474H262.003ZM262.703 74.5469H129.599V172.624H262.703V74.5469Z" fill="#101010"/>
<path d="M78.9276 191.539L93.6182 192.043L93.7163 192.205C93.7408 192.247 96.3153 196.408 101.03 197.62C104.736 198.566 106.337 200.45 107.023 201.865C107.482 202.771 107.691 203.783 107.629 204.797L107.594 205.105L78.1255 205.151L78.9276 191.539Z" fill="#101010"/>
<path d="M79.2566 191.914L93.4217 192.4C93.4217 192.4 96.0313 196.716 100.953 197.973C107.874 199.725 107.289 204.769 107.289 204.769L78.5035 204.814L79.2636 191.914H79.2566ZM78.5981 191.188L78.5595 191.872L77.7959 204.772L77.7539 205.515H78.4965L107.282 205.469H107.906L107.979 204.849C108.046 203.77 107.825 202.693 107.338 201.728C106.032 199.042 103.229 197.844 101.128 197.294C96.5742 196.127 94.0522 192.078 94.0242 192.04L93.8281 191.717H93.4498L79.2916 191.231L78.6086 191.206L78.5981 191.188Z" fill="white"/>
<path d="M91.1277 105.039L107.296 120.086L91.7827 120.741L85.772 114.482L91.1277 105.039Z" fill="white" stroke="#101010" stroke-width="0.701069" stroke-linejoin="round"/>
<path d="M10.4873 170.985L23.8468 168.315L26.9327 184.116L26.7366 184.246C26.7051 184.267 23.5246 186.428 23.5561 191.251C23.6016 198.628 16.5926 199.448 16.5226 199.455L16.2038 199.49L10.4873 170.985Z" fill="#101010"/>
<path d="M23.5698 168.729L26.5436 183.952C26.5436 183.952 23.1705 186.166 23.2055 191.245C23.251 198.387 16.4837 199.098 16.4837 199.098L10.8793 171.261L23.5523 168.729H23.5698ZM24.1057 167.902L23.4052 168.042L10.7567 170.575L10.0562 170.712L10.1928 171.412L15.7972 199.249L15.9233 199.876L16.5573 199.809C17.8657 199.619 19.1198 199.158 20.2387 198.453C21.9235 197.382 23.9306 195.262 23.9061 191.252C23.8745 186.635 26.8063 184.621 26.9324 184.533L27.3177 184.274L27.2197 183.833L24.2458 168.606L24.1127 167.906L24.1057 167.902Z" fill="white"/>
<path d="M75.516 53.3164C75.516 53.3164 75.7787 42.8081 84.8719 43.1759C87.5165 43.2845 90.3292 43.9991 92.7181 47.0675C96.9809 52.5493 91.8144 59.9436 91.8144 59.9436C92.1401 59.3972 88.7389 58.2168 88.1084 58.1923L79.3796 57.842C79.2039 57.8363 79.0309 57.8855 78.8846 57.9828C78.7383 58.0802 78.626 58.2207 78.5634 58.3849C78.0065 59.8596 73.9153 56.7036 75.516 53.3024" fill="#101010"/>
<path d="M75.516 53.3164C75.516 53.3164 75.7787 42.8081 84.8719 43.1759C87.5165 43.2845 90.3292 43.9991 92.7181 47.0675C96.9809 52.5493 91.8144 59.9436 91.8144 59.9436C92.1401 59.3972 88.7389 58.2168 88.1084 58.1923L79.3796 57.842C79.2039 57.8363 79.0309 57.8855 78.8846 57.9828C78.7383 58.0802 78.626 58.2207 78.5634 58.3849C78.0065 59.8596 73.9153 56.7036 75.516 53.3024" stroke="white" stroke-width="0.701069" stroke-miterlimit="10"/>
<path d="M79.9435 55.0154C79.9435 55.0154 88.1994 55.9927 89.4709 51.8979C90.4132 53.5758 90.5568 55.2711 92.9247 55.9717C92.9247 55.9717 91.3169 68.3434 83.8385 66.8687C81.912 66.4904 78.2902 64.0945 77.8033 60.2555C77.8033 60.2555 73.022 58.8544 73.8837 55.187C74.7454 51.5197 79.1763 53.6598 79.9435 55.0154Z" fill="white" stroke="#101010" stroke-width="0.701069" stroke-miterlimit="10"/>
<path d="M86.1204 58.1955C86.3151 57.8062 86.1601 57.3342 85.7743 57.1413C85.3884 56.9483 84.9178 57.1075 84.7231 57.4968C84.5284 57.8861 84.6834 58.3581 85.0692 58.551C85.4551 58.744 85.9257 58.5848 86.1204 58.1955Z" fill="#101010"/>
<path d="M89.0645 58.4795C88.6673 59.4872 88.5724 60.5887 88.7913 61.6495" stroke="#101010" stroke-width="0.701069" stroke-miterlimit="10" stroke-linecap="round"/>
<path d="M75.7852 55.4639C75.7852 55.4639 77.7432 56.1399 77.9814 57.4709" stroke="#101010" stroke-width="0.701069" stroke-miterlimit="10" stroke-linecap="round"/>
<path d="M83.036 43.2566C84.4371 38.1075 79.5543 35.5155 75.8939 36.3281C70.3595 37.5506 69.9987 48.0063 60.832 46.5211C60.832 46.5211 67.0074 52.9101 72.3456 51.7753C77.1899 50.777 76.4964 44.0727 83.036 43.2566Z" fill="#101010" stroke="white" stroke-width="0.701069" stroke-miterlimit="10"/>
<path d="M88.2835 119.988C100.056 155.523 100.056 192.803 100.056 192.803C94.5184 194.449 76.8575 194.351 76.8575 194.351C76.8575 194.351 79.1974 161.776 73.071 144.539C72.1813 149.376 69.239 161.685 65.1863 166.519C60.2334 172.428 45.6585 183.332 26.8207 186.799C24.782 178.988 22.1725 169.373 21.1182 166.161C23.7873 165.422 45.084 156.886 49.2873 150.844C53.4906 144.801 50.7095 123.007 56.0652 113.69C60.1459 113.991 88.2835 119.988 88.2835 119.988Z" fill="white" stroke="#101010" stroke-width="0.701069" stroke-miterlimit="10"/>
<path d="M84.1399 70.7464L84.7493 68.6972L74.5913 66.459L74.0274 68.7428C69.2496 69.0931 64.57 71.4679 59.9463 79.4752C55.3227 87.4825 51.6343 113.427 51.6343 113.427L90.049 120.759C90.049 120.759 91.4501 97.7526 92.5465 89.7943C93.6043 82.0322 90.007 74.1966 84.1399 70.7464Z" fill="#101010" stroke="white" stroke-width="0.701069" stroke-miterlimit="10"/>
<path d="M73.6313 141.352C73.6313 141.352 75.1656 129.271 75.5298 123.883" stroke="#101010" stroke-width="0.701069" stroke-miterlimit="10" stroke-linecap="round"/>
<path d="M196.151 155.471C213.761 155.471 228.036 141.195 228.036 123.585C228.036 105.975 213.761 91.6997 196.151 91.6997C178.541 91.6997 164.265 105.975 164.265 123.585C164.265 141.195 178.541 155.471 196.151 155.471Z" fill="#101010" stroke="white" stroke-width="0.701069" stroke-miterlimit="10"/>
<path fill-rule="evenodd" clip-rule="evenodd" d="M161.239 50.0276V74.5469H175.25V47.9259C175.25 42.352 177.464 37.0063 181.405 33.065C185.347 29.1236 190.692 26.9094 196.266 26.9094C201.84 26.9094 207.186 29.1236 211.127 33.065C215.068 37.0063 217.283 42.352 217.283 47.9259V50.1011L231.294 50.0276C231.294 45.4277 230.388 40.8728 228.627 36.6231C226.867 32.3734 224.287 28.5119 221.034 25.2593C217.782 22.0067 213.92 19.4266 209.671 17.6663C205.421 15.906 200.866 15 196.266 15C186.976 15 178.067 18.6904 171.498 25.2593C164.929 31.8283 161.239 40.7377 161.239 50.0276ZM206.452 116.373C206.452 120.47 204.061 124.008 200.599 125.668L205.422 141.099H186.879L191.699 125.666C188.238 124.006 185.849 120.468 185.849 116.373C185.849 110.684 190.461 106.072 196.15 106.072C201.84 106.072 206.452 110.684 206.452 116.373ZM64.3594 99.1212C69.1457 102.447 72.5466 107.412 73.918 113.077H156.905V141.099H145.696V124.286H134.488V141.099H123.279V124.286H73.918C72.5466 129.951 69.1457 134.916 64.3594 138.242C59.573 141.568 53.7332 143.023 47.9459 142.333C42.1585 141.642 36.8252 138.853 32.9557 134.495C29.0863 130.136 26.9492 124.51 26.9492 118.682C26.9492 112.853 29.0863 107.227 32.9557 102.868C36.8252 98.5098 42.1585 95.7212 47.9459 95.0306C53.7332 94.34 59.573 95.7954 64.3594 99.1212ZM43.7661 129.166C45.8398 130.552 48.2778 131.292 50.7718 131.292C54.1161 131.292 57.3235 129.963 59.6883 127.598C62.0531 125.233 63.3817 122.026 63.3817 118.682C63.3817 116.188 62.6421 113.75 61.2565 111.676C59.8709 109.602 57.9015 107.986 55.5974 107.032C53.2932 106.077 50.7578 105.827 48.3117 106.314C45.8656 106.801 43.6187 108.001 41.8552 109.765C40.0917 111.529 38.8907 113.775 38.4041 116.222C37.9176 118.668 38.1673 121.203 39.1217 123.507C40.0761 125.811 41.6924 127.781 43.7661 129.166Z" fill="url(#paint0_linear)"/>
<path d="M93.2259 125.162C94.6691 120.181 90.6059 113.69 85.4743 109.792L73.2147 99.4935C73.2147 99.4935 89.2328 79.759 79.0923 73.5731C70.5876 68.375 57.75 92.1377 57.75 101.539C57.75 107.76 78.0064 116.601 78.0064 116.601C79.4951 117.561 79.5547 119.725 80.3708 121.347C82.1222 124.85 85.5724 126.111 85.7791 124.412C85.9157 126.055 88.3221 125.838 88.287 124.153C88.287 125.554 90.2976 126.223 90.8686 124.265C90.2136 127.351 92.3222 128.286 93.2259 125.162Z" fill="white" stroke="#101010" stroke-width="0.701069" stroke-linejoin="round"/>
<path d="M90.8613 124.286C91.131 123.449 90.8613 122.185 90.8613 122.185" stroke="#101010" stroke-width="0.701069" stroke-miterlimit="10" stroke-linecap="round"/>
<path d="M88.2798 124.164V123.221" stroke="#101010" stroke-width="0.701069" stroke-miterlimit="10" stroke-linecap="round"/>
<path d="M85.772 124.399V123.456" stroke="#101010" stroke-width="0.701069" stroke-miterlimit="10" stroke-linecap="round"/>
<path d="M2 205.189H286" stroke="#101010" stroke-width="0.701069" stroke-miterlimit="10" stroke-linecap="round"/>
<path d="M2 205.89H286" stroke="white" stroke-width="0.701069" stroke-miterlimit="10" stroke-linecap="round"/>
<path d="M91.3164 204.807V201.41" stroke="white" stroke-width="0.701069" stroke-miterlimit="10" stroke-linecap="round"/>
<path d="M11.8076 176.425L15.1492 175.812" stroke="white" stroke-width="0.701069" stroke-miterlimit="10" stroke-linecap="round"/>
<path d="M100.606 117.379C104.109 115.732 104.96 116.839 107.611 123.358C111.839 122.748 112.712 124.188 112.316 125.092C111.815 126.24 107.583 126.692 107.583 126.692C107.583 126.692 101.215 130.896 97.6777 125.925C97.6847 125.925 97.1172 119.032 100.606 117.379Z" fill="white" stroke="#101010" stroke-width="0.701069" stroke-linejoin="round"/>
<path d="M103.17 116.787L105.012 121.992" stroke="#101010" stroke-width="0.701069" stroke-miterlimit="10" stroke-linecap="round"/>
<path d="M101.772 117.231L102.676 122.671" stroke="#101010" stroke-width="0.701069" stroke-miterlimit="10" stroke-linecap="round"/>
<path d="M100.074 117.81L100.021 122.185" stroke="#101010" stroke-width="0.701069" stroke-miterlimit="10" stroke-linecap="round"/>
<path d="M107.814 123.711L108.21 125.302" stroke="#101010" stroke-width="0.701069" stroke-miterlimit="10" stroke-linecap="round"/>
<path d="M262.469 67.8916H130.064V81.2021H262.469V67.8916Z" fill="white"/>
<path d="M262.118 68.2421V80.852H130.414V68.2421H262.118ZM262.819 67.5415H129.714V81.5525H262.819V67.5415Z" fill="#101010"/>
<path d="M136.888 77.703C138.435 77.703 139.69 76.4485 139.69 74.9008C139.69 73.3532 138.435 72.0986 136.888 72.0986C135.34 72.0986 134.085 73.3532 134.085 74.9008C134.085 76.4485 135.34 77.703 136.888 77.703Z" fill="#101010"/>
<path d="M146.695 77.703C148.243 77.703 149.497 76.4485 149.497 74.9008C149.497 73.3532 148.243 72.0986 146.695 72.0986C145.148 72.0986 143.893 73.3532 143.893 74.9008C143.893 76.4485 145.148 77.703 146.695 77.703Z" fill="#101010"/>
<path d="M156.503 77.703C158.051 77.703 159.305 76.4485 159.305 74.9008C159.305 73.3532 158.051 72.0986 156.503 72.0986C154.955 72.0986 153.701 73.3532 153.701 74.9008C153.701 76.4485 154.955 77.703 156.503 77.703Z" fill="#101010"/>
<defs>
<linearGradient id="paint0_linear" x1="-85.6587" y1="-36.8167" x2="-17.9889" y2="302.509" gradientUnits="userSpaceOnUse">
<stop offset="0.159116" stop-color="#A259B9"/>
<stop offset="0.384922" stop-color="#1C8832"/>
<stop offset="0.573929" stop-color="#64B98A"/>
<stop offset="0.751736" stop-color="#FFBC58"/>
</linearGradient>
</defs>
</svg>
