<svg width="80" height="90" viewBox="10 10 20 20" fill="none" xmlns="http://www.w3.org/2000/svg">
<path d="M24 18V14C24 11.7909 22.2091 10 20 10V10C17.7909 10 16 11.7909 16 14V18" stroke="#312C2C" stroke-width="2"/>
<path fill-rule="evenodd" clip-rule="evenodd" d="M14 17C12.8954 17 12 17.8954 12 19V27C12 28.1046 12.8954 29 14 29H26C27.1046 29 28 28.1046 28 27V19C28 17.8954 27.1046 17 26 17H14ZM20 21C18.8954 21 18 21.8954 18 23C18 24.1046 18.8954 25 20 25C21.1046 25 22 24.1046 22 23C22 21.8954 21.1046 21 20 21Z" stroke="#312C2C" stroke-width="2"/>
</svg>
