<svg width="285" height="213" viewBox="0 0 285 213" fill="none" xmlns="http://www.w3.org/2000/svg">
    <path d="M51.1581 138.344C51.1581 138.344 34.1068 151.864 31.1394 151.506C24.9804 150.767 8.79793 143.69 1.00977 156.446L38.7909 176.03L63.28 152.599" fill="white"/>
    <path d="M51.1581 138.344C51.1581 138.344 34.1068 151.864 31.1394 151.506C24.9804 150.767 8.79793 143.69 1.00977 156.446L38.7909 176.03L63.28 152.599" stroke="#101010" stroke-width="0.695982"/>
    <path d="M33.6855 150.651C33.6855 150.651 38.0403 163.653 50.1518 165.016" stroke="#101010" stroke-width="0.700622" stroke-miterlimit="10" stroke-linecap="round"/>
    <path d="M24.9735 153.138L23.6914 147.253" stroke="#101010" stroke-width="1.40124" stroke-miterlimit="10" stroke-linecap="round"/>
    <path d="M114.195 159.75C114.195 159.75 124.573 178.875 123.711 181.737C121.924 187.693 112.149 202.408 123.385 212.277L149.184 178.434L130.325 150.273" fill="white"/>
    <path d="M114.195 159.75C114.195 159.75 124.573 178.875 123.711 181.737C121.924 187.693 112.149 202.408 123.385 212.277L149.184 178.434L130.325 150.273" stroke="#101010" stroke-width="0.695982"/>
    <path d="M126.783 184.631L120.109 184.158" stroke="#101010" stroke-width="1.40124" stroke-miterlimit="10" stroke-linecap="round"/>
    <path d="M124.257 188.089L118.238 188.342" stroke="#101010" stroke-width="1.40124" stroke-miterlimit="10" stroke-linecap="round"/>
    <path fill-rule="evenodd" clip-rule="evenodd" d="M245.684 28.8493L245.684 28.8505C250.294 44.2004 253.61 55.2441 279.169 46.7705C269.587 62.3574 268.935 73.4984 284.999 87.5227C260.825 83.837 254.326 87.3054 251.66 114.264C249.189 112.256 247.069 110.223 245.122 108.356C236.172 99.7742 230.87 94.6895 211.882 111.542C211.776 107.587 211.749 104.069 211.724 100.932V100.931C211.561 80.0053 211.53 76.0541 189.365 72.654C193.261 69.1981 196.563 66.7514 199.294 64.7285C208.901 57.6115 211.427 55.7404 207.779 33.6186C208.796 34.2495 209.796 34.88 210.78 35.5003C224.993 44.4633 235.798 51.2769 244.737 25.7253C245.063 26.7828 245.376 27.8256 245.684 28.8493ZM174.381 116.661L158.335 111.987L158.366 111.91C158.366 111.91 111.459 97.5461 98.6712 99.1752C86.0301 100.798 78.8691 107.126 62.761 121.358L62.7608 121.359C57.6591 125.866 51.6598 131.167 44.3047 137.363L68.1281 162.962L93.0156 137.156C96.0848 144.552 100.421 153.196 105.487 163.293C106.616 165.545 107.782 167.869 108.978 170.267L137.637 151.597L123.15 128.873L149.17 134.861L150.151 132.409C156.545 133.607 161.943 134.665 163.741 135.149C175.526 138.284 174.381 116.661 174.381 116.661Z" fill="url(#green-color)"/>
    <path d="M175.667 144.72H133.611L122.598 127.904H161.653L175.667 144.72Z" fill="white" stroke="#101010" stroke-width="0.700622" stroke-miterlimit="10"/>
    <path d="M155.708 56.8815C157.866 54.7549 160.336 49.3946 166.169 51.255C166.357 51.3132 166.56 51.2981 166.737 51.2129C167.704 50.7645 171.046 49.5348 173.916 52.0082C179.052 56.4331 174.616 64.9254 174.616 64.9254C174.823 64.3404 172.255 63.4365 171.645 63.5241L163.237 64.8869C162.887 64.9429 162.428 65.2372 162.561 65.5631C163.262 67.2622 158.143 73.2006 152.839 73.5229C147.048 73.8732 140.086 66.9925 140.072 60.9876C140.079 56.7904 147.85 64.6346 155.708 56.8815Z" fill="#101010" stroke="white" stroke-width="0.700622" stroke-miterlimit="10"/>
    <path d="M163.244 62.0703C163.244 62.0703 167.574 60.8756 168.499 57.7891C168.499 57.7891 169.928 59.7755 175.11 61.5342C175.11 61.5342 176.687 72.6262 169.252 72.6577C167.336 72.6577 163.412 71.0706 162.207 67.4936C162.207 67.4936 157.362 67.0592 157.481 63.4051C157.6 59.751 162.249 60.9211 163.244 62.0703Z" fill="white" stroke="#101010" stroke-width="0.700622" stroke-miterlimit="10"/>
    <path d="M169.09 64.0781C169.201 63.6692 168.962 63.2486 168.557 63.1386C168.152 63.0287 167.734 63.2711 167.623 63.68C167.512 64.0889 167.75 64.5095 168.156 64.6195C168.561 64.7294 168.979 64.487 169.09 64.0781Z" fill="#101010"/>
    <path d="M172.175 64.7925C172.175 64.7925 172.392 66.6036 172.641 67.8612C172.676 68.0364 172.108 68.3131 171.59 67.9383" stroke="#101010" stroke-width="0.700622" stroke-miterlimit="10" stroke-linecap="round"/>
    <path d="M159.352 63.3103C159.352 63.3103 161.355 63.58 161.839 64.8096" stroke="#101010" stroke-width="0.700622" stroke-miterlimit="10" stroke-linecap="round"/>
    <path d="M222.145 71.0181C222.145 71.0181 227.091 67.9175 228.055 64.4036C229.018 60.8896 227.33 55.7606 229.726 56.2896C232.122 56.8186 232.602 61.296 232.529 63.342C235.556 59.6984 244.174 68.0927 243.06 70.7833C241.711 74.0451 238.628 76.1646 235.591 77.1841C233.391 77.8587 231.365 79.0067 229.656 80.5475C227.2 76.4239 222.145 71.0181 222.145 71.0181Z" fill="white" stroke="#101010" stroke-width="0.700622" stroke-linejoin="round"/>
    <path d="M243.154 68.6426C244.457 69.9457 240.852 75.4667 239.188 73.8027C237.524 72.1387 241.728 67.2203 243.154 68.6426Z" fill="white" stroke="#101010" stroke-width="0.700622" stroke-miterlimit="10"/>
    <path d="M242.313 66.3162C243.616 67.6159 239.615 73.4941 237.951 71.8266C236.287 70.1591 240.891 64.8905 242.313 66.3162Z" fill="white" stroke="#101010" stroke-width="0.700622" stroke-miterlimit="10"/>
    <path d="M241.166 64.3403C242.47 65.6434 238.469 71.5217 236.805 69.8542C235.141 68.1867 239.741 62.918 241.166 64.3403Z" fill="white" stroke="#101010" stroke-width="0.700622" stroke-miterlimit="10"/>
    <path d="M232.525 63.3382C237.892 58.9418 239.647 61.2363 239.934 61.7688C241.367 64.4242 236.838 67.7241 235.692 66.7292C234.186 65.412 236.768 63.3102 236.768 63.3102" fill="white"/>
    <path d="M232.525 63.3382C237.892 58.9418 239.647 61.2363 239.934 61.7688C241.367 64.4242 236.838 67.7241 235.692 66.7292C234.186 65.412 236.768 63.3102 236.768 63.3102" stroke="#101010" stroke-width="0.700622" stroke-miterlimit="10" stroke-linecap="round"/>
    <path d="M233.537 72.8852C235.323 69.7321 234.98 66.0745 232.524 64.0881C232.524 64.0881 232.489 61.3168 232.377 60.5391" fill="white"/>
    <path d="M233.537 72.8852C235.323 69.7321 234.98 66.0745 232.524 64.0881C232.524 64.0881 232.489 61.3168 232.377 60.5391" stroke="#101010" stroke-width="0.700622" stroke-miterlimit="10" stroke-linecap="round"/>
    <path d="M126.419 77.212C123.29 72.8852 124.878 69.5885 128.384 73.691C130.665 76.3537 132.203 79.4297 131.538 83.851L133.265 86.9376L122.464 96.1061C120.277 93.5669 118.537 90.6752 117.317 87.5542C116.595 85.5887 116.574 82.6213 119.3 83.5007C117.524 82.3445 118.757 79.8045 120.309 80.4352C118.757 79.223 120.607 77.0088 121.928 77.762C120.607 76.3607 121.928 74.171 123.749 75.0609C125.743 76.0313 126.419 77.212 126.419 77.212Z" fill="white" stroke="#101010" stroke-width="0.700622" stroke-linejoin="round"/>
    <path d="M199.212 87.2919L222.301 68.6426L233.646 81.3391C233.646 81.3391 209.619 106.462 198.282 106.462C193.903 106.462 188.712 103.58 181.865 99.7789C181.503 99.5778 181.136 99.3741 180.765 99.1681L179.416 118.244L173.289 116.294L121.91 101.8L118.768 98.5199L133.398 83.8545L138.128 90.8403C138.128 90.8403 148.421 71.8418 165.833 75.3131C179.331 77.6455 199.212 87.2919 199.212 87.2919Z" fill="#101010"/>
    <path d="M121.91 101.8L118.768 98.5199L133.398 83.8545L138.128 90.8403C138.128 90.8403 148.421 71.8418 165.833 75.3131C179.331 77.6455 199.212 87.2919 199.212 87.2919L222.301 68.6426L233.646 81.3391C233.646 81.3391 209.619 106.462 198.282 106.462C193.903 106.462 188.712 103.58 181.865 99.7789C181.503 99.5778 181.136 99.3741 180.765 99.1681L179.416 118.244L173.289 116.294" stroke="white" stroke-width="0.7" stroke-miterlimit="10"/>
    <path d="M28.8194 155.03L28.1328 148.374" stroke="#101010" stroke-width="1.40124" stroke-miterlimit="10" stroke-linecap="round"/>
    <path d="M168.499 137.131L197.204 1.30005H143.25L121.898 102" stroke="white" stroke-width="0.700622" stroke-miterlimit="10" stroke-linecap="round"/>
    <path d="M168.177 135.131L196.205 2H142.252L122.041 98" stroke="#101010" stroke-width="0.700622" stroke-miterlimit="10" stroke-linecap="round"/>
    <path d="M125.105 76.5008C126.682 77.3135 126.857 79.2017 127.382 79.9864C127.908 80.7711 125.371 84.1901 125.371 84.1901L123.729 83.9519C123.729 83.9519 123.893 75.8807 125.105 76.5008Z" fill="white"/>
    <path d="M123.309 179.082C123.309 179.082 136.867 177.032 140.283 165.341" stroke="#101010" stroke-width="0.700622" stroke-miterlimit="10" stroke-linecap="round"/>
    <path d="M121.542 126.074L118.768 121.552" stroke="#101010" stroke-width="0.700622" stroke-miterlimit="10" stroke-linecap="round"/>
    <path d="M126.42 80.9497C128.024 80.5679 127.338 78.3574 126.42 77.2119V80.9497Z" fill="white"/>
    <path d="M126.42 80.9497C128.024 80.5679 127.338 78.3574 126.42 77.2119" stroke="#101010" stroke-width="0.700622" stroke-linejoin="round"/>
    <path d="M120.719 2H218.815" stroke="#101010" stroke-width="0.700622" stroke-miterlimit="10" stroke-linecap="round"/>
    <path d="M121.938 77.7656C124.165 78.4662 126.912 79.9586 126.299 81.8538C126.061 82.5894 125.332 83.2935 123.707 82.67" fill="white"/>
    <path d="M121.938 77.7656C124.165 78.4662 126.912 79.9586 126.299 81.8538C126.061 82.5894 125.332 83.2935 123.707 82.67" stroke="#101010" stroke-width="0.700622" stroke-linejoin="round"/>
    <path d="M120.322 80.4387C122.662 81.1954 126.393 82.1027 125.374 84.2011C124.6 85.7985 121.709 84.4428 121.709 84.4428" fill="white"/>
    <path d="M120.322 80.4387C122.662 81.1954 126.393 82.1027 125.374 84.2011C124.6 85.7985 121.709 84.4428 121.709 84.4428" stroke="#101010" stroke-width="0.700622" stroke-linejoin="round"/>
    <path d="M119.311 83.5042C121.938 84.0892 123.788 85.7111 122.575 86.7375C121.927 87.2875 119.72 86.5343 119.72 86.5343" fill="white"/>
    <path d="M119.311 83.5042C121.938 84.0892 123.788 85.7111 122.575 86.7375C121.927 87.2875 119.72 86.5343 119.72 86.5343" stroke="#101010" stroke-width="0.700622" stroke-miterlimit="10" stroke-linecap="round"/>
    <path d="M92.2054 135.131C89.0838 130.226 79.0569 102.444 100.523 100.478" stroke="#101010" stroke-width="0.700622" stroke-miterlimit="10" stroke-linecap="round"/>
    <path d="M144.291 106.823C149.196 96.1097 148.909 86.9307 148.909 86.9307" stroke="white" stroke-width="0.700622" stroke-miterlimit="10" stroke-linecap="round"/>
    <path d="M83.568 70.2051C84.7066 75.8596 85.4949 75.6775 89.6079 76.4587C85.6175 77.6359 84.3072 79.9166 83.568 84.2189C82.8113 79.251 79.998 77.5098 77.0586 77.0158C80.0821 76.3571 82.6536 76.1084 83.568 70.2051Z" fill="white" stroke="#101010" stroke-width="0.695982"/>
    <path d="M228.184 142.138C227.046 136.483 226.261 136.666 222.145 135.881C226.135 134.704 227.449 132.427 228.184 128.124C228.945 133.092 231.758 134.83 234.697 135.327C231.674 135.986 229.099 136.235 228.184 142.138Z" fill="white" stroke="#101010" stroke-width="0.695982"/>
    <path d="M259.316 30.7003C262.303 27.0763 268.41 25.3295 272.196 27.7807C275.013 29.598 273.295 33.2642 268.938 31.866C264.173 30.334 265.37 17.3806 279.384 16.7607" stroke="white" stroke-width="0.704374" stroke-miterlimit="10" stroke-linecap="round"/>
    <path d="M259.822 31.1933C262.805 27.5693 268.525 26.2627 271.49 28.1328C274.582 30.0909 271.592 33.8065 268.232 32.5703C262.914 30.6122 265.369 16.4366 279.383 15.8203" stroke="#101010" stroke-width="0.704374" stroke-miterlimit="10" stroke-linecap="round"/>
    <path d="M105.037 32.1218C107.111 32.1218 108.792 30.4404 108.792 28.3664C108.792 26.2924 107.111 24.6111 105.037 24.6111C102.963 24.6111 101.281 26.2924 101.281 28.3664C101.281 30.4404 102.963 32.1218 105.037 32.1218Z" fill="white" stroke="#101010" stroke-width="0.695982"/>
    <path d="M34.5498 27.0547C33.8279 34.4013 41.4597 37.4055 44.6823 34.0843C47.5314 31.1471 43.8229 27.8858 41.3259 30.7315C38.8289 33.5772 40.9279 41.9698 48.6866 43.1426" stroke="white" stroke-width="0.704374" stroke-miterlimit="10" stroke-linecap="round"/>
    <path d="M35.4572 27.0547C34.3196 31.8374 40.1659 36.5602 43.3814 34.0491C46.5968 31.538 42.8953 28.3366 40.6202 31.4359C38.3451 34.5351 40.2222 42.6742 47.9809 43.847" stroke="#101010" stroke-width="0.704374" stroke-miterlimit="10" stroke-linecap="round"/>
    <defs>
        <linearGradient id="green-color" x1="-88.3342" y1="-33.0169" x2="-14.2917" y2="352.749" gradientUnits="userSpaceOnUse">
            <stop offset="0.159116" stop-color="#A259B9"/>
            <stop offset="0.384922" stop-color="#1C8832"/>
            <stop offset="0.573929" stop-color="#64B98A"/>
            <stop offset="0.751736" stop-color="#FFBC58"/>
        </linearGradient>
    </defs>
</svg>
