<svg width="288" height="220" viewBox="0 0 288 220" fill="none" xmlns="http://www.w3.org/2000/svg">
<path d="M47.2836 149.355L37.9194 205.541" stroke="#101010" stroke-width="0.7" stroke-miterlimit="10"/>
<path d="M47.9821 149.355L38.6528 205.541" stroke="white" stroke-width="0.7" stroke-miterlimit="10" stroke-linecap="round"/>
<path d="M64.1597 149.355L80.547 205.541" stroke="#101010" stroke-width="0.7" stroke-miterlimit="10"/>
<path d="M65.0332 149.355L81.4205 205.541" stroke="white" stroke-width="0.7" stroke-miterlimit="10" stroke-linecap="round"/>
<path d="M2.34961 205.645H285.651" stroke="#101010" stroke-width="0.7" stroke-miterlimit="10" stroke-linecap="round"/>
<path d="M2.34912 206.344H285.65" stroke="white" stroke-width="0.7" stroke-miterlimit="10" stroke-linecap="round"/>
<path d="M109.513 179.544C109.758 179.754 109.863 180.068 109.793 180.383C109.304 182.409 107.557 189.782 109.094 191.669C110.876 193.835 118.598 201.068 118.458 208.545C118.388 213.856 117.445 217.385 116.921 218.958C116.746 219.482 116.152 219.691 115.698 219.412L85.0547 199.565C84.7403 199.356 84.6005 199.006 84.7053 198.657L91.2393 174.687C91.3092 174.373 91.5537 174.163 91.8682 174.093C93.8598 173.674 101.337 172.87 109.513 179.544Z" fill="white" stroke="#101010" stroke-width="0.7" stroke-miterlimit="10" stroke-linecap="round"/>
<path d="M87.3608 190.62C90.9598 190.131 94.2093 192.297 94.6286 195.477C95.0828 198.657 92.5321 201.627 88.9332 202.116" stroke="#101010" stroke-width="0.7" stroke-miterlimit="10" stroke-linecap="round"/>
<path d="M108.291 196.176L116.572 195.547" stroke="#101010" stroke-width="0.7" stroke-miterlimit="10" stroke-linecap="round"/>
<path d="M105.565 192.577L113.846 191.948" stroke="#101010" stroke-width="0.7" stroke-miterlimit="10" stroke-linecap="round"/>
<path d="M108.5 186.952C108.5 186.952 99.1709 185.205 89.7368 180.278" stroke="#101010" stroke-width="0.7" stroke-miterlimit="10" stroke-linecap="round"/>
<path d="M141.135 175.631C141.449 175.666 141.729 175.91 141.799 176.19C142.428 178.181 144.874 185.344 147.145 186.148C149.8 187.056 160.632 188.629 164.44 195.023C167.166 199.565 167.76 202.815 168.179 204.457C168.319 204.981 167.9 205.47 167.376 205.47L130.932 205.54C130.583 205.54 130.268 205.296 130.163 204.946L123.07 181.116C122.966 180.802 123.07 180.488 123.28 180.278C124.783 178.88 130.688 174.268 141.135 175.631Z" fill="white" stroke="#101010" stroke-width="0.7" stroke-miterlimit="10" stroke-linecap="round"/>
<path d="M128.172 196.7C130.967 194.394 134.881 194.534 136.907 196.98C138.969 199.461 138.34 203.339 135.579 205.645" stroke="#101010" stroke-width="0.7" stroke-miterlimit="10" stroke-linecap="round"/>
<path d="M148.892 190.411L155.6 185.484" stroke="#101010" stroke-width="0.7" stroke-miterlimit="10" stroke-linecap="round"/>
<path d="M144.699 188.769L151.372 183.877" stroke="#101010" stroke-width="0.7" stroke-miterlimit="10" stroke-linecap="round"/>
<path d="M144.21 182.444C144.21 182.444 135.37 185.869 124.748 186.672" stroke="#101010" stroke-width="0.7" stroke-miterlimit="10" stroke-linecap="round"/>
<path d="M88.5561 150.65H42.7826L29.3729 88.4188H73.6325L88.5561 150.65Z" fill="#101010" stroke="white" stroke-width="0.7"/>
<path d="M42.7828 150.65L41.7471 145.85H97.005V150.65H42.7828Z" fill="#101010" stroke="white" stroke-width="0.7"/>
<path d="M246.42 21.8735H238.034V126.696H246.42V21.8735Z" fill="white" stroke="#101010" stroke-width="0.7" stroke-miterlimit="10"/>
<path d="M104.762 125.717V29.2816H238.062V125.717H104.762Z" fill="#101010" stroke="white" stroke-width="0.7"/>
<path d="M104.762 34.8709V22.2934H238.062V34.8709H104.762Z" fill="#101010" stroke="white" stroke-width="0.7"/>
<path d="M102.35 111.514L98.2973 114.659L93.6152 104.561L83.6221 108.125L92.7067 131.396C92.7067 131.396 114.964 117.175 117.165 108.824C119.367 100.473 102.35 111.514 102.35 111.514Z" fill="white"/>
<path fill-rule="evenodd" clip-rule="evenodd" d="M114.021 28.9667C114.021 30.5105 112.769 31.7619 111.225 31.7619C109.682 31.7619 108.43 30.5105 108.43 28.9667C108.43 27.4229 109.682 26.1714 111.225 26.1714C112.769 26.1714 114.021 27.4229 114.021 28.9667ZM123.804 28.9667C123.804 30.5105 122.552 31.7619 121.009 31.7619C119.465 31.7619 118.213 30.5105 118.213 28.9667C118.213 27.4229 119.465 26.1714 121.009 26.1714C122.552 26.1714 123.804 27.4229 123.804 28.9667ZM130.792 31.7619C132.336 31.7619 133.588 30.5105 133.588 28.9667C133.588 27.4229 132.336 26.1714 130.792 26.1714C129.249 26.1714 127.997 27.4229 127.997 28.9667C127.997 30.5105 129.249 31.7619 130.792 31.7619ZM69.2962 146.42H82.5735H94.873L86.1377 176.749L113.741 181.641L117.25 160.586L121.428 181.641L146.585 178.147L134.111 136.567C131.875 129.09 124.992 123.988 117.2 123.988H106.403H68.5972H55.3198V123.953C55.3198 123.953 49.7992 146.42 69.2962 146.42ZM266 125C266 149.853 245.853 170 221 170C196.147 170 176 149.853 176 125C176 100.147 196.147 80.0001 221 80.0001C245.853 80.0001 266 100.147 266 125Z" fill="url(#paint0_linear)"/>
<path d="M117.27 160.572L120.939 140.481C122.511 131.885 115.907 123.953 107.172 123.988L91.2041 124.023" stroke="#101010" stroke-width="0.7" stroke-miterlimit="10" stroke-linecap="round"/>
<path d="M95.6419 104.386C95.6419 104.386 94.5238 106.308 87.6055 107.216L91.2044 124.023L53.2236 127.098C53.2236 127.098 45.9558 95.1268 49.9391 86.7759C55.355 75.3851 66.5011 74.6514 73.1399 75.5249C79.7437 76.3984 90.6803 80.4166 95.6419 104.386Z" fill="#101010" stroke="white" stroke-width="0.7" stroke-miterlimit="10"/>
<path d="M87.6054 107.217C87.6054 107.217 86.2427 100.857 86.2427 95.0571" stroke="white" stroke-width="0.7" stroke-miterlimit="10" stroke-linecap="round"/>
<path d="M168.219 52.3072V106.815H120.699V52.3072H168.219ZM168.917 51.6084H120V107.514H168.917V51.6084Z" fill="white"/>
<path d="M146.924 82.5714V80.35H156.509L156.509 82.5714C156.509 85.2185 154.364 87.3643 151.717 87.3643C149.07 87.3643 146.924 85.2185 146.924 82.5714ZM133.209 82.5714V80.35H142.795V82.5714C142.795 85.2185 140.649 87.3643 138.002 87.3643C135.355 87.3643 133.209 85.2185 133.209 82.5714Z" stroke="white" stroke-width="0.7"/>
<path d="M146.873 82.8717C146.873 81.7592 145.971 80.8574 144.859 80.8574C143.747 80.8574 142.845 81.7592 142.845 82.8717" stroke="white" stroke-width="0.7"/>
<line x1="129.209" y1="75.65" x2="160.509" y2="75.65" stroke="white" stroke-width="0.7" stroke-linecap="round"/>
<path d="M134.859 75.5L138.359 65L144.859 67.5L150.859 65L154.859 75.5" stroke="white" stroke-width="0.7"/>
<path d="M98.2974 114.659C98.2974 114.659 97.4937 115.917 97.4238 117.874L98.2974 114.659Z" fill="white"/>
<path d="M98.2974 114.659C98.2974 114.659 97.4937 115.917 97.4238 117.874" stroke="#101010" stroke-width="0.7" stroke-miterlimit="10" stroke-linecap="round"/>
<path d="M123.979 122.661H68.0732V125.456H123.979V122.661Z" fill="white" stroke="#101010" stroke-width="0.7" stroke-miterlimit="10"/>
<path d="M124.223 125.456H86.627L97.9129 99.25C98.3671 98.2017 99.4852 97.5029 100.708 97.5029H134.042C135.09 97.5029 135.824 98.5162 135.439 99.4247L124.223 125.456Z" fill="white" stroke="#101010" stroke-width="0.7" stroke-miterlimit="10"/>
<path d="M63.1816 63.3304V58.229L67.8637 58.3688L68.2131 59.9062L66.6408 64.0991C66.6408 64.0991 64.3347 63.2256 63.1816 63.3304Z" fill="white" stroke="#101010" stroke-width="0.7" stroke-miterlimit="10" stroke-linecap="round"/>
<path d="M85.9371 53.2357L85.9372 53.2356L85.9313 53.2298C85.6995 52.998 85.0775 52.4539 83.898 52.2865C83.8554 52.0353 83.7901 51.8111 83.6965 51.6202C83.321 50.7209 82.6019 50.1576 81.962 49.8145C81.4669 49.5489 81.0007 49.4052 80.7346 49.3358C80.022 47.6635 78.4507 46.4959 76.6277 46.3499C74.9271 46.2084 73.2623 46.9979 72.2859 48.4055C72.1794 48.3473 72.0464 48.2754 71.8921 48.1967C71.5214 48.0078 71.0244 47.7776 70.4574 47.5932C69.3354 47.2282 67.8714 47.0207 66.5732 47.757L66.5732 47.7569L66.5712 47.7581C64.6735 48.8507 63.8531 50.5877 63.5633 51.4025C62.4903 50.9185 61.3074 50.9286 60.437 51.5089L60.4369 51.5088L60.4293 51.5141C59.7407 52.0002 59.3813 52.7483 59.2475 53.475C59.1145 54.1968 59.1948 54.9448 59.4399 55.4758L59.4398 55.4758L59.4413 55.4789C60.4369 57.5808 63.0412 59.1704 66.6694 59.208C66.9631 60.0287 67.6021 61.3377 68.8748 61.9034L68.8758 61.9038C70.031 62.4129 71.4812 62.2592 72.8591 61.5497C74.1418 60.8892 75.3885 59.7362 76.3392 58.1209C77.9406 59.5302 79.6889 60.3185 81.2807 60.5624C82.9741 60.8219 84.5302 60.4676 85.5069 59.5299L85.5087 59.5282C86.2443 58.812 86.7329 57.6544 86.8573 56.4932C86.9817 55.3325 86.7493 54.0875 85.9371 53.2357Z" fill="#101010" stroke="white" stroke-width="0.7" stroke-miterlimit="10"/>
<path d="M79.499 59.8364C79.499 59.8364 80.9315 67.1041 77.682 70.4584C74.4325 73.8128 67.7239 69.8994 66.1864 67.9427C66.1864 67.9427 61.0152 67.139 61.3646 65.0775C61.714 63.016 63.4261 62.9112 66.1515 63.9245C66.6756 64.0992 66.6756 64.0992 66.6756 64.0992L67.3395 59.0327C67.3046 59.0677 76.3543 52.6735 79.499 59.8364Z" fill="white" stroke="#101010" stroke-width="0.7" stroke-miterlimit="10" stroke-linecap="round"/>
<path d="M76.0049 62.7368C76.0049 62.7368 76.0748 64.7634 77.4025 66.8948" stroke="#101010" stroke-width="0.7" stroke-miterlimit="10" stroke-linecap="round"/>
<path d="M72.6507 64.3439C73.0173 64.3439 73.3146 64.0466 73.3146 63.68C73.3146 63.3133 73.0173 63.0161 72.6507 63.0161C72.284 63.0161 71.9868 63.3133 71.9868 63.68C71.9868 64.0466 72.284 64.3439 72.6507 64.3439Z" fill="#101010"/>
<path d="M72.7903 63.6451C72.7903 63.6451 72.7204 63.6102 72.6156 63.5753C72.5108 63.5403 72.4409 63.5054 72.4409 63.5054C72.4409 63.5054 72.5108 63.5403 72.6156 63.5753C72.7204 63.6102 72.7903 63.6451 72.7903 63.6451Z" fill="#101010"/>
<path d="M65.2082 65.7068C65.2082 65.7068 64.4395 64.973 63.2515 64.7983" stroke="#101010" stroke-width="0.7" stroke-miterlimit="10" stroke-linecap="round"/>
<path d="M72.4063 48.865C73.2798 47.3975 74.922 46.5589 76.5992 46.6987C78.3462 46.8385 79.8487 47.9915 80.4776 49.6337C80.7921 49.7036 82.7138 50.1579 83.3777 51.7651C83.4825 51.9748 83.5524 52.2543 83.5874 52.6037C84.8452 52.7085 85.4742 53.2676 85.6838 53.4772C87.1164 54.9797 86.5923 57.9846 85.2645 59.2774C83.5175 60.9546 79.5342 60.6751 76.2498 57.5653C74.3629 61.0944 71.0785 62.492 69.017 61.5835C67.7591 61.0245 67.1651 59.6268 66.9205 58.8581C63.2517 58.8931 60.701 57.3207 59.7576 55.3291C59.3383 54.4206 59.4432 52.6387 60.6312 51.8001C61.4697 51.241 62.6927 51.276 63.7758 51.9049C63.8108 51.7302 64.4397 49.3892 66.7458 48.0614C69.0869 46.7336 72.1267 48.7602 72.4063 48.865Z" fill="#101010"/>
<path d="M57.8356 95.057L46.6545 112.842L62.5177 119.201C62.5177 119.201 68.283 118.537 71.8469 120.424C75.4109 122.311 76.0398 124.512 75.9001 125.56C75.9001 125.56 76.4242 126.714 75.935 127.692C75.4808 128.67 74.153 127.098 74.153 127.098C74.153 127.098 73.1397 127.273 70.5541 126.399C69.436 126.015 65.4527 128.705 62.3081 127.657C59.1634 126.609 57.2766 124.862 56.0886 124.442C54.9006 124.058 31.6998 123.674 31.2456 117.908C30.6865 110.78 36.8361 99.5644 47.4931 86.3218" fill="white"/>
<path d="M57.8356 95.057L46.6545 112.842L62.5177 119.201C62.5177 119.201 68.283 118.537 71.8469 120.424C75.4109 122.311 76.0398 124.512 75.9001 125.56C75.9001 125.56 76.4242 126.714 75.935 127.692C75.4808 128.67 74.153 127.098 74.153 127.098C74.153 127.098 73.1397 127.273 70.5541 126.399C69.436 126.015 65.4527 128.705 62.3081 127.657C59.1634 126.609 57.2766 124.862 56.0886 124.442C54.9006 124.058 31.6998 123.674 31.2456 117.908C30.6865 110.78 36.8361 99.5644 47.4931 86.3218" stroke="#101010" stroke-width="0.7" stroke-miterlimit="10"/>
<path d="M75.9003 125.56C75.9003 125.56 73.3496 121.717 68.5977 121.472" stroke="#101010" stroke-width="0.7" stroke-miterlimit="10" stroke-linecap="round"/>
<path d="M74.1881 126.748C74.1881 126.748 72.9652 124.128 68.1084 123.708L74.1881 126.748Z" fill="white"/>
<path d="M74.1881 126.748C74.1881 126.748 72.9652 124.128 68.1084 123.708" stroke="#101010" stroke-width="0.7" stroke-miterlimit="10" stroke-linecap="round"/>
<path d="M68.5975 75.2803C49.974 75.2803 38.9676 93.5194 34.4951 99.8088C34.4951 99.8088 48.4016 104.141 52.1752 109.418C52.1752 109.418 56.0187 102.849 61.3298 97.8172" fill="#101010"/>
<path d="M68.5975 75.2803C49.974 75.2803 38.9676 93.5194 34.4951 99.8088C34.4951 99.8088 48.4016 104.141 52.1752 109.418C52.1752 109.418 56.0187 102.849 61.3298 97.8172" stroke="white" stroke-width="0.7" stroke-miterlimit="10"/>
<path d="M112.413 115.183C113.957 115.183 115.209 113.931 115.209 112.388C115.209 110.844 113.957 109.592 112.413 109.592C110.87 109.592 109.618 110.844 109.618 112.388C109.618 113.931 110.87 115.183 112.413 115.183Z" fill="#101010"/>
<path d="M181 52H222.929" stroke="white" stroke-width="0.7" stroke-miterlimit="10" stroke-linecap="round"/>
<path d="M181 58.9883H222.929" stroke="white" stroke-width="0.7" stroke-miterlimit="10" stroke-linecap="round"/>
<path d="M181 65.9766H208.953" stroke="white" stroke-width="0.7" stroke-miterlimit="10" stroke-linecap="round"/>
<path d="M245.448 100.51C239.174 94.2357 230.52 90.3848 220.957 90.3848C201.832 90.3848 186.342 105.875 186.342 125C186.342 144.125 201.832 159.616 220.957 159.616C240.082 159.616 255.573 144.125 255.573 125" stroke="#101010" stroke-width="0.7" stroke-miterlimit="10" stroke-linecap="round"/>
<path d="M237.486 108.471C233.246 104.231 227.404 101.635 220.957 101.635C208.063 101.635 197.592 112.106 197.592 125C197.592 137.894 208.063 148.366 220.957 148.366C233.851 148.366 244.323 137.894 244.323 125" stroke="#101010" stroke-width="0.7" stroke-miterlimit="10" stroke-linecap="round"/>
<path d="M221 131.923C224.824 131.923 227.923 128.824 227.923 125C227.923 121.177 224.824 118.077 221 118.077C217.177 118.077 214.077 121.177 214.077 125C214.077 128.824 217.177 131.923 221 131.923Z" fill="#101010"/>
<path d="M221 125L248.433 97.5239" stroke="#101010" stroke-width="0.7" stroke-miterlimit="10" stroke-linecap="round"/>
<path d="M248.183 117.968C249.551 117.968 250.66 116.859 250.66 115.491C250.66 114.124 249.551 113.015 248.183 113.015C246.815 113.015 245.707 114.124 245.707 115.491C245.707 116.859 246.815 117.968 248.183 117.968Z" fill="white"/>
<defs>
<linearGradient id="paint0_linear" x1="-61.8988" y1="-37.012" x2="33.9304" y2="370.68" gradientUnits="userSpaceOnUse">
<stop offset="0.159116" stop-color="#A259B9"/>
<stop offset="0.384922" stop-color="#1C8832"/>
<stop offset="0.573929" stop-color="#64B98A"/>
<stop offset="0.751736" stop-color="#FFBC58"/>
</linearGradient>
</defs>
</svg>
