<svg width="286" height="151" fill="none" xmlns="http://www.w3.org/2000/svg"><path d="M6.17299 51.54c-.30465 8.1275.03519 16.2663 1.01633 24.34 2.94688-3.6319 5.45888-5.4833 7.62918.1022 2.8137 7.2327.3195 12.4585-4.7133 15.0648 4.2783 15.984 11.8276 28.447 22.0264 37.74 7.9886-.111 16.2213-2.296 13.3143 4.391-.7944 1.834-1.9794 2.779-3.3374 3.161 17.5705 11.011 40.6443 15.096 67.1535 13.223-7.55-56.184-23.3759-93.7685-103.08901-98.022zM150.718 57.0414c-7.136-1.5052-10.354-12.3698-10.354-12.3698s-10.802-2.0779-9.577-7.6235c1.225-5.5455 7.132-3.956 9.054-1.332 1.921 2.6241 5.498-4.3067 7.198-7.0418 1.7-2.735 15.307-2.4775 19.235 1.3009 3.928 3.7785-.098 30.2985-15.556 27.0662z" fill="#fff" stroke="#101010" stroke-width=".7" stroke-miterlimit="10"/><path d="M160.664 42.5625s-1.629 3.8006-1.149 7.1528" stroke="#101010" stroke-width=".7" stroke-miterlimit="10" stroke-linecap="round"/><path d="M155.365 43.8947c.662 0 1.199-.5368 1.199-1.1988 0-.6621-.537-1.1988-1.199-1.1988s-1.198.5367-1.198 1.1988c0 .662.536 1.1988 1.198 1.1988z" fill="#101010"/><path d="M135.669 38.5711c.257 0 4.385-.6791 5.57 2.0237" stroke="#101010" stroke-width=".7" stroke-miterlimit="10" stroke-linecap="round"/><path d="M175.461 31.9775c6.178-4.884.936-12.9337-5.894-9.6259 3.915-6.1716-5.073-10.2919-9.426-4.7508-3.764 4.7952-21.619-6.8819-23.753 16.0373 2.028.3507 2.103 1.3098 3.106 2.6151 5.637 7.397 8.877 2.0868 12.369-2.0735 2.015-2.3931 4.745-2.7616 7.319-1.9713-.109.8773.008 1.7678.34 2.5872.331.8194.866 1.5407 1.554 2.0955.688.5548 1.506.9248 2.377 1.075.871.1503 1.765.0757 2.599-.2166 5.73 6.5001 14.082-1.5451 9.409-5.772z" fill="#101010"/><path d="M168.228 39.5071c5.39 2.8447 11.339-3.8161 7.233-7.5296 6.178-4.884.936-12.9337-5.894-9.6259 3.914-6.1716-5.073-10.2919-9.427-4.7508-3.709 4.726-21.105-6.5483-23.65 15.0664" stroke="#fff" stroke-width=".7" stroke-miterlimit="10" stroke-linecap="round"/><path d="M104.815 149.095c-2.809-35.364-41.5054-29.965-60.2032-56.3074" stroke="#101010" stroke-width=".7" stroke-miterlimit="10" stroke-linecap="round"/><path d="M45.6013 93.72c-11.619-1.5407-16.1193-8.6979-12.0185-12.5829C39.6276 75.3962 45.6013 93.72 45.6013 93.72zM57.6199 105.579c-5.5476 7.002-13.7581 5.879-15.3914 2.003-2.6984-6.416 15.3914-2.003 15.3914-2.003zM73.5751 112.608c.7722 8.907-5.7696 13.249-9.8127 12.032-9.3866-2.837 9.8127-12.032 9.8127-12.032zM50.6162 99.1103c-3.0134-8.4138 2.2724-14.7985 6.4264-14.1369 6.8658 1.0922-6.4264 14.1369-6.4264 14.1369zM66.3583 110.379c-5.6897-6.891-2.8804-14.6921 1.2471-15.4824 6.8302-1.3009-1.2471 15.4824-1.2471 15.4824z" fill="#101010"/><path d="M255.866 67.5229c2.037-13.4576 1.119-27.0529-3.026-39.4848-17.784 5.6032-32.377 13.5908-44.062 22.9103 4.314 9.5548-2.082 26.0183-10.048 25.6986-4.469-.182 1.065-7.1839-.036-16.6233-29.411 29.8456-34.004 68.5623-21.303 88.6223 40.618-7.473 67.318-37.527 76.221-70.4983-19.004-.0444-7.754-7.2949 2.254-10.6248z" fill="#fff" stroke="#101010" stroke-width=".7" stroke-miterlimit="10"/><path d="M177.383 148.663s29.509-78.0945 75.448-120.6073L177.383 148.663z" fill="#fff"/><path d="M177.383 148.663s29.509-78.0945 75.448-120.6073" stroke="#101010" stroke-width=".7" stroke-miterlimit="10"/><path d="M116.953 83.3173c-25.6521-21.3119-5.428-38.5524-16.656-56.9872-5.4589-1.3764-9.7639 3.8894-13.4653.6527-3.8878-3.401 4.5314-5.1149 6.28-9.1109C79.0162 5.22242 57.2561 1 57.2561 1s-.8122 6.21598-7.3407 36.3857c-6.635 30.738 26.7752 30.0897 17.5972 61.6625-9.1781 31.5728 33.3394 45.5588 33.3394 45.5588s39.805-41.598 16.101-61.2897z" fill="#fff" stroke="#101010" stroke-width=".7" stroke-miterlimit="10"/><path d="M57.2603 1.00439C72.128 20.4338 101.566 111.063 109.262 130.679M81.1819 53.081C70.3529 40.5958 57.185 38.0561 49.9375 37.3901M88.5493 72.7989c4.6556-14.541 14.9747-23.088 14.9747-23.088" stroke="#101010" stroke-width=".7" stroke-miterlimit="10" stroke-linecap="round"/><path fill-rule="evenodd" clip-rule="evenodd" d="M152.201 149.096h50.603s.821-87.6014-55.876-87.6014c-29.479 0-57.5269 26.213-67.7829 50.9394-.0106.025-.0211.051-.0316.076-7.678 18.586 5.5964 36.586 25.7015 36.586h47.386z" fill="url(#paint0_linear)"/><path d="M173.872 98.1602s3.067 25.7248 3.067 50.7618" stroke="#101010" stroke-width=".7" stroke-miterlimit="10" stroke-linecap="round"/><path d="M258.924 143.8H154.863v5.203h104.061V143.8z" fill="#101010"/><path d="M259.354 149.055h-69.989l20.988-48.782c.454-.992 1.188-1.83 2.111-2.4113.923-.5812 1.996-.8804 3.086-.8608h62.063c1.984 0 3.337 1.8604 2.601 3.5521l-20.86 48.502z" fill="#101010"/><path d="M248.353 97.001h29.26c1.984 0 3.338 1.8603 2.601 3.552L260 147.555" stroke="#fff" stroke-width=".7" stroke-miterlimit="10" stroke-linecap="round"/><path d="M185.036 132.105c4.015 4.17-.751 6.402-5.283 2.992 5.034 4.053-.216 8.275-2.713 5.447 2.69 4.66-3.011 6.543-5.637 3.054 1.207 2.417-1.506 6.478-6.209 2.143-4.438-4.092-9.725-1.369-14.772-.856 1.649-5.915 5.639-18.385 8.408-20.944 8.256.173 19.82 1.535 26.206 8.164z" fill="#fff"/><path d="M150.422 144.885c5.047-.513 10.334-3.236 14.772.856 5.059 4.662 7.815-.387 5.868-2.658 2.426 4.171 8.791 2.336 5.978-2.539 2.497 2.828 7.747-1.394 2.713-5.447 4.532 3.41 9.298 1.178 5.283-2.992-6.386-6.629-17.95-7.991-26.206-8.164" stroke="#101010" stroke-width=".7" stroke-linejoin="round"/><path d="M171.057 143.084c-1.359-1.941-3.078-3.601-5.065-4.89M177.039 140.544s-3.11-4.058-6.539-5.456M179.775 135.095c-1.486-1.397-3.236-2.483-5.147-3.193M104.815 149.265h44.418s4.601-20.739 12.288-29.011h-48.065L131.066 99" stroke="#101010" stroke-width=".7" stroke-miterlimit="10" stroke-linecap="round"/><path d="M237.399 129.919c2.873 0 5.202-2.33 5.202-5.204 0-2.874-2.329-5.203-5.202-5.203-2.872 0-5.201 2.329-5.201 5.203s2.329 5.204 5.201 5.204zM219.101 68.5708C232.198 56.312 247.079 50.54 256.887 50.54l-37.786 18.0308z" fill="#fff"/><path d="M219.101 68.5708C232.198 56.312 247.079 50.54 256.887 50.54" stroke="#101010" stroke-width=".7" stroke-miterlimit="10"/><path d="M1 149.3h284" stroke="#101010" stroke-width=".7" stroke-miterlimit="10" stroke-linecap="round"/><path d="M1 150h284" stroke="#fff" stroke-width=".7" stroke-miterlimit="10" stroke-linecap="round"/><defs><linearGradient id="paint0_linear" x1="7.52907" y1="25.8933" x2="58.8987" y2="256.879" gradientUnits="userSpaceOnUse"><stop offset=".159116" stop-color="#A259B9"/><stop offset=".384922" stop-color="#1C8832"/><stop offset=".573929" stop-color="#64B98A"/><stop offset=".751736" stop-color="#FFBC58"/></linearGradient></defs></svg>