<svg width="288" height="220" viewBox="0 0 288 220" fill="none" xmlns="http://www.w3.org/2000/svg">
<path d="M90.9457 193.648L105.636 194.153L105.734 194.315C105.759 194.357 108.333 198.522 113.048 199.735C116.754 200.682 118.355 202.569 119.041 203.989C119.5 204.895 119.709 205.906 119.647 206.92L119.612 207.229L90.1436 207.274L90.9457 193.648Z" fill="#101010"/>
<path d="M91.2745 194.009L105.44 194.497C105.44 194.497 108.049 198.82 112.971 200.075C119.892 201.829 119.307 206.878 119.307 206.878L90.5214 206.923L91.2815 194.009H91.2745ZM90.623 193.287L90.5844 193.967L89.8208 206.881L89.7788 207.625H90.5214L119.307 207.579H119.931L120.004 206.962C120.071 205.881 119.85 204.802 119.363 203.834C118.05 201.145 115.247 199.935 113.146 199.395C108.592 198.228 106.07 194.174 106.042 194.136L105.846 193.813H105.468L91.3095 193.326L90.6265 193.305L90.623 193.287Z" fill="white"/>
<path d="M103.146 107.045L119.314 122.112L103.801 122.767L97.79 116.502L103.146 107.045Z" fill="white" stroke="#101010" stroke-width="0.698828" stroke-linejoin="round"/>
<path d="M22.5049 173.063L35.8644 170.388L38.9503 186.205L38.7542 186.335C38.7226 186.356 35.5421 188.519 35.5737 193.347C35.6192 200.721 28.6102 201.552 28.5401 201.552L28.2214 201.587L22.5049 173.063Z" fill="#101010"/>
<path d="M35.5879 170.801L38.5617 186.043C38.5617 186.043 35.1885 188.256 35.2236 193.34C35.2691 200.5 28.5018 201.201 28.5018 201.201L22.8974 173.336L35.5703 170.801H35.5879ZM36.1413 169.995L35.4407 170.132L22.7748 172.649L22.0742 172.786L22.2108 173.487L27.8152 201.352L27.9413 201.98L28.5753 201.913C29.8843 201.728 31.139 201.266 32.2567 200.56C33.9416 199.487 35.9486 197.365 35.9241 193.351C35.8926 188.74 38.8244 186.724 38.9505 186.639L39.3358 186.38L39.2377 185.907L36.2639 170.668L36.1308 169.967L36.1413 169.995Z" fill="white"/>
<path d="M87.5336 55.2707C87.5336 55.2707 87.7963 44.7516 96.8895 45.1198C99.534 45.2285 102.347 45.9438 104.736 49.0153C108.998 54.5028 103.832 61.9082 103.832 61.9082C104.158 61.3612 100.757 60.1761 100.126 60.155L91.3971 59.8219C91.2218 59.8154 91.0489 59.864 90.9025 59.9608C90.7562 60.0577 90.6437 60.1979 90.581 60.3619C90.0241 61.8381 85.9328 58.6788 87.5336 55.2742" fill="#101010"/>
<path d="M87.5336 55.2707C87.5336 55.2707 87.7963 44.7516 96.8895 45.1198C99.534 45.2285 102.347 45.9438 104.736 49.0153C108.998 54.5028 103.832 61.9082 103.832 61.9082C104.158 61.3612 100.757 60.1761 100.126 60.155L91.3971 59.8219C91.2218 59.8154 91.0489 59.864 90.9025 59.9608C90.7562 60.0577 90.6437 60.1979 90.581 60.3619C90.0241 61.8381 85.9328 58.6788 87.5336 55.2742" stroke="white" stroke-width="0.698828" stroke-miterlimit="10"/>
<path d="M91.961 56.9712C91.961 56.9712 100.217 57.953 101.489 53.8506C102.431 55.5301 102.574 57.2307 104.942 57.9285C104.942 57.9285 103.334 70.3164 95.8561 68.8367C93.9296 68.458 90.3077 66.0597 89.8208 62.2202C89.8208 62.2202 85.0396 60.7967 85.9013 57.1466C86.7629 53.4964 91.1939 55.6143 91.961 56.9712Z" fill="white" stroke="#101010" stroke-width="0.698828" stroke-miterlimit="10"/>
<path d="M98.1418 60.157C98.3365 59.7673 98.1816 59.2948 97.7957 59.1016C97.4099 58.9085 96.9393 59.0678 96.7446 59.4575C96.5499 59.8472 96.7049 60.3197 97.0907 60.5128C97.4765 60.706 97.9472 60.5467 98.1418 60.157Z" fill="#101010"/>
<path d="M101.082 60.4424C100.688 61.4457 100.593 62.5419 100.809 63.5981" stroke="#101010" stroke-width="0.698828" stroke-miterlimit="10" stroke-linecap="round"/>
<path d="M87.8032 57.4199C87.8032 57.4199 89.7613 58.0966 89.9995 59.4326" stroke="#101010" stroke-width="0.698828" stroke-miterlimit="10" stroke-linecap="round"/>
<path d="M95.0541 45.2008C96.4552 40.0465 91.5723 37.4553 87.912 38.2653C82.3776 39.4925 82.0168 49.9589 72.8501 48.4687C72.8501 48.4687 79.0255 54.8643 84.3637 53.7458C89.208 52.7289 88.5144 46.0038 95.0541 45.2008Z" fill="#101010" stroke="white" stroke-width="0.698828" stroke-miterlimit="10"/>
<path d="M100.301 122.014C112.074 157.582 112.074 194.89 112.074 194.89C106.536 196.538 88.8751 196.436 88.8751 196.436C88.8751 196.436 91.2149 163.827 85.0886 146.572C84.1989 151.432 81.2706 163.75 77.2039 168.592C72.251 174.504 57.6761 185.423 38.8382 188.891C36.7856 181.071 34.1901 171.446 33.1357 168.242C35.8048 167.491 57.1016 158.95 61.3049 152.898C65.5082 146.846 62.727 125.036 68.0827 115.706C72.1635 115.997 100.301 122.014 100.301 122.014Z" fill="white" stroke="#101010" stroke-width="0.698828" stroke-miterlimit="10"/>
<path d="M96.1577 72.722L96.7672 70.6708L85.6067 68.4268L85.0427 70.7164C80.265 71.0495 76.5878 73.4408 71.9641 81.4564C67.3405 89.4719 63.6626 115.426 63.6626 115.426L102.077 122.768C102.077 122.768 103.478 99.7385 104.575 91.7685C105.622 84.016 102.025 76.1863 96.1577 72.722Z" fill="#101010" stroke="white" stroke-width="0.698828" stroke-miterlimit="10"/>
<path d="M85.6494 143.395C85.6494 143.395 87.1836 131.302 87.5479 125.909" stroke="#101010" stroke-width="0.698828" stroke-miterlimit="10" stroke-linecap="round"/>
<path d="M229.687 75.2394V94.9113H170.342V75.2429V75.2429C170.341 71.3418 171.108 67.4789 172.599 63.8747C174.09 60.2705 176.276 56.9956 179.031 54.237C181.787 51.4784 185.058 49.2902 188.658 47.7973C192.259 46.3043 196.117 45.5359 200.014 45.5359C207.884 45.5359 215.431 48.6653 220.996 54.2358C226.561 59.8062 229.687 67.3615 229.687 75.2394Z" stroke="#101010" stroke-width="0.698828" stroke-miterlimit="10"/>
<path d="M230.036 95.6101H230.386V95.2607V75.2394C230.386 67.1764 227.186 59.4434 221.49 53.7419C215.795 48.0403 208.069 44.8371 200.014 44.8371C196.026 44.8371 192.076 45.6236 188.391 47.1517C184.706 48.6798 181.357 50.9196 178.537 53.7431C175.717 56.5666 173.48 59.9186 171.954 63.6075C170.428 67.2965 169.642 71.2502 169.643 75.2429C169.643 75.243 169.643 75.243 169.643 75.243V95.2607V95.6101H169.992H230.036Z" stroke="white" stroke-width="0.698828" stroke-miterlimit="10"/>
<path d="M158.334 163.927V94.6248H217.69V163.927H158.334Z" fill="white" stroke="#101010" stroke-width="0.698828" stroke-miterlimit="10"/>
<path d="M216.878 164.195V94.6508H241.239V164.195H216.878Z" fill="#101010" stroke="white" stroke-width="0.7"/>
<path d="M188.01 131.663C192.433 131.663 196.018 128.074 196.018 123.647C196.018 119.221 192.433 115.632 188.01 115.632C183.588 115.632 180.003 119.221 180.003 123.647C180.003 128.074 183.588 131.663 188.01 131.663Z" fill="#101010"/>
<path d="M195.216 142.88H180.805L184.809 130.058H191.212L195.216 142.88Z" fill="#101010"/>
<path fill-rule="evenodd" clip-rule="evenodd" d="M123.913 24.6811C123.658 14.5617 129.584 9.17249 136.874 8.08202C141.753 7.3562 150.023 11.3885 150.496 22.5492C150.969 33.7099 147.392 43.2717 137.129 43.8783C126.866 44.4849 124.169 34.8004 123.913 24.6811ZM10.5151 103.462V103.111C10.5151 83.9454 22.7748 68.3983 45.5427 68.3983V86.449C35.4898 86.4665 27.3284 93.1531 27.3284 103.115V103.465L10.5151 103.462ZM85.9365 115.099C84.5651 109.429 81.1642 104.458 76.3778 101.129C71.5914 97.7999 65.7517 96.343 59.9644 97.0343C54.177 97.7256 48.8437 100.517 44.9742 104.88C41.1048 109.243 38.9677 114.875 38.9677 120.71C38.9677 126.544 41.1048 132.176 44.9742 136.539C48.8437 140.902 54.177 143.693 59.9644 144.385C65.7517 145.076 71.5914 143.619 76.3778 140.29C81.1642 136.961 84.5651 131.99 85.9365 126.32H135.297V143.15H146.506V126.32H157.715V143.15H168.924V115.099H85.9365ZM62.7903 133.332C60.2962 133.332 57.8582 132.592 55.7846 131.205C53.7109 129.818 52.0946 127.847 51.1402 125.54C50.1858 123.234 49.9361 120.696 50.4226 118.247C50.9092 115.798 52.1102 113.549 53.8737 111.784C55.6372 110.018 57.8841 108.816 60.3302 108.329C62.7763 107.842 65.3117 108.092 67.6159 109.048C69.92 110.003 71.8894 111.621 73.275 113.697C74.6606 115.772 75.4002 118.213 75.4002 120.71C75.4002 124.057 74.0716 127.268 71.7068 129.635C69.342 132.002 66.1346 133.332 62.7903 133.332ZM255.624 190.168V164.305V138.455C266.467 138.374 275.577 151.37 275.673 164.311L255.829 164.305C266.581 164.388 275.578 177.302 275.673 190.161L255.624 190.168Z" fill="url(#paint0_linear)"/>
<path d="M105.243 127.192C106.687 122.203 102.623 115.709 97.4919 111.807L85.2322 101.498C85.2322 101.498 101.25 81.7396 91.1099 75.5509C82.6052 70.3475 69.7676 94.1345 69.7676 103.546C69.7676 109.776 90.024 118.64 90.024 118.64C91.5127 119.601 91.5722 121.772 92.3884 123.392C94.1398 126.898 97.59 128.16 97.7966 126.46C97.9332 128.104 100.34 127.887 100.305 126.2C100.305 127.603 102.315 128.272 102.886 126.312C102.231 129.38 104.34 130.317 105.243 127.192Z" fill="white" stroke="#101010" stroke-width="0.698828" stroke-linejoin="round"/>
<path d="M102.879 126.302C103.149 125.464 102.879 124.198 102.879 124.198" stroke="#101010" stroke-width="0.698828" stroke-miterlimit="10" stroke-linecap="round"/>
<path d="M100.298 126.189V125.247" stroke="#101010" stroke-width="0.698828" stroke-miterlimit="10" stroke-linecap="round"/>
<path d="M97.79 126.424V125.481" stroke="#101010" stroke-width="0.698828" stroke-miterlimit="10" stroke-linecap="round"/>
<path d="M2 207.299H286" stroke="#101010" stroke-width="0.698828" stroke-miterlimit="10" stroke-linecap="round"/>
<path d="M2 208H286" stroke="white" stroke-width="0.698828" stroke-miterlimit="10" stroke-linecap="round"/>
<path d="M96.3291 206.917V203.516" stroke="white" stroke-width="0.698828" stroke-miterlimit="10" stroke-linecap="round"/>
<path d="M23.8257 178.507L27.1673 177.891" stroke="white" stroke-width="0.698828" stroke-miterlimit="10" stroke-linecap="round"/>
<path d="M112.624 119.398C116.127 117.75 116.978 118.858 119.63 125.387C123.857 124.773 124.73 126.214 124.334 127.119C123.833 128.269 119.602 128.725 119.602 128.725C119.602 128.725 113.234 132.932 109.696 127.957C109.703 127.957 109.135 121.046 112.624 119.398Z" fill="white" stroke="#101010" stroke-width="0.698828" stroke-linejoin="round"/>
<path d="M115.188 118.806L117.03 124.016" stroke="#101010" stroke-width="0.698828" stroke-miterlimit="10" stroke-linecap="round"/>
<path d="M113.791 119.251L114.694 124.7" stroke="#101010" stroke-width="0.698828" stroke-miterlimit="10" stroke-linecap="round"/>
<path d="M112.092 119.833L112.039 124.212" stroke="#101010" stroke-width="0.698828" stroke-miterlimit="10" stroke-linecap="round"/>
<path d="M119.833 125.741L120.228 127.33" stroke="#101010" stroke-width="0.698828" stroke-miterlimit="10" stroke-linecap="round"/>
<defs>
<linearGradient id="paint0_linear" x1="-135.605" y1="-66.0336" x2="-30.0067" y2="414.876" gradientUnits="userSpaceOnUse">
<stop offset="0.159116" stop-color="#A259B9"/>
<stop offset="0.384922" stop-color="#1C8832"/>
<stop offset="0.573929" stop-color="#64B98A"/>
<stop offset="0.751736" stop-color="#FFBC58"/>
</linearGradient>
</defs>
</svg>
