<svg width="48" height="48" fill="none" xmlns="http://www.w3.org/2000/svg"><path d="M10 13a2 2 0 012-2h21a2 2 0 012 2v18a2 2 0 01-2 2H12a2 2 0 01-2-2V13z" fill="#80D814"/><path d="M12 14a1 1 0 011-1h19a1 1 0 011 1v20a1 1 0 01-1 1H13a1 1 0 01-1-1V14z" fill="#fff"/><path d="M10 19a4 4 0 014-4h20a4 4 0 014 4v14a4 4 0 01-4 4H14a4 4 0 01-4-4V19z" fill="#0A2"/><path d="M31 25a2 2 0 012-2h5v6h-5a2 2 0 01-2-2v-2z" fill="#fff"/><circle cx="34" cy="26" r="1" fill="#0A2"/><path fill-rule="evenodd" clip-rule="evenodd" d="M10 13v2h2s-2 0-2-2z" fill="#0A2"/><path fill="#0A2" d="M10 15h4v4h-4z"/></svg>