<svg width="48" height="48" fill="none" xmlns="http://www.w3.org/2000/svg"><mask id="a" fill="#fff"><path fill-rule="evenodd" clip-rule="evenodd" d="M12 18v14h24V20a2 2 0 114 0v12a4 4 0 01-4 4H12a4 4 0 01-4-4V18a4 4 0 014-4h10a2 2 0 110 4H12z"/></mask><path fill-rule="evenodd" clip-rule="evenodd" d="M12 18v14h24V20a2 2 0 114 0v12a4 4 0 01-4 4H12a4 4 0 01-4-4V18a4 4 0 014-4h10a2 2 0 110 4H12z" fill="#80D814"/><path d="M12 18v-4H8v4h4zm0 14H8v4h4v-4zm24 0v4h4v-4h-4zm0 8a8 8 0 008-8h-8v8zm-24 0h24v-8H12v8zm-8-8a8 8 0 008 8v-8H4zm0-14v14h8V18H4zm8-8a8 8 0 00-8 8h8v-8zm0 12h10v-8H12v8zm4 10V18H8v14h8zm20-4H12v8h24v-8zm-4-8v12h8V20h-8zm12 12V20h-8v12h8zM22 10H12v8h10v-8zm-2 6a2 2 0 012-2v8a6 6 0 006-6h-8zm8 0a6 6 0 00-6-6v8a2 2 0 01-2-2h8zm10 6a2 2 0 01-2-2h8a6 6 0 00-6-6v8zm0-8a6 6 0 00-6 6h8a2 2 0 01-2 2v-8z" fill="#80D814" mask="url(#a)"/><path d="M36.104 15.086l-3-3-6.92 6.92a4 4 0 00-.884 1.341l-1.263 3.155a.5.5 0 00.65.65l3.156-1.262a4 4 0 001.343-.885l6.918-6.919z" fill="#0A2"/><path d="M37.115 14.076l1.783-1.783a1 1 0 000-1.414L37.31 9.293a1 1 0 00-1.414 0l-1.783 1.783 3 3z" fill="#80D814"/><rect x="14" y="22" width="6" height="2" rx="1" fill="#80D814"/><rect x="14" y="26" width="20" height="2" rx="1" fill="#80D814"/></svg>