<svg width="48" height="48" fill="none" xmlns="http://www.w3.org/2000/svg"><path fill-rule="evenodd" clip-rule="evenodd" d="M24.007 39.997c.54.03 1.09-.195 1.46-.687C28.459 35.34 35 25.879 35 19.05c0-1.96-.392-3.518-1.108-4.803C32.112 10.55 28.35 8 23.993 8c-4.533 0-8.425 2.762-10.107 6.705-.42.885-.696 1.895-.811 3.064a11.26 11.26 0 00.135 3.46c1.11 6.536 6.653 14.52 9.337 18.08.37.493.92.719 1.46.688zM16.678 19.05c0 4.074 3.282 7.377 7.329 7.377s7.329-3.303 7.329-7.377-3.281-7.376-7.329-7.376c-4.047 0-7.329 3.302-7.329 7.376z" fill="#80D814"/><circle cx="24" cy="19" transform="rotate(90 24 19)" fill="#0A2" r="4"/></svg>