<svg width="48" height="48" fill="none" xmlns="http://www.w3.org/2000/svg"><path d="M29 22v-4.815C29 14.322 26.761 12 24 12s-5 2.322-5 5.185V22" stroke="#80D814" stroke-width="4"/><circle cx="24" cy="28" r="8" stroke="#0A2" stroke-width="4"/><mask id="a" fill="#fff"><path fill-rule="evenodd" clip-rule="evenodd" d="M25 28.732A2 2 0 0024 25a2 2 0 00-1 3.732V30a1 1 0 102 0v-1.268z"/></mask><path fill-rule="evenodd" clip-rule="evenodd" d="M25 28.732A2 2 0 0024 25a2 2 0 00-1 3.732V30a1 1 0 102 0v-1.268z" fill="#0A2"/><path d="M25 28.732l-.5-.865-.5.289v.576h1zm-2 0h1v-.576l-.5-.29-.5.866zM25 27a1 1 0 01-.5.867l1 1.731A3 3 0 0027 27h-2zm-1-1a1 1 0 011 1h2a3 3 0 00-3-3v2zm-1 1a1 1 0 011-1v-2a3 3 0 00-3 3h2zm.5.867A1 1 0 0123 27h-2a3 3 0 001.5 2.598l1-1.731zM24 30v-1.268h-2V30h2zm0 0h-2a2 2 0 002 2v-2zm0 0v2a2 2 0 002-2h-2zm0-1.268V30h2v-1.268h-2z" fill="#0A2" mask="url(#a)"/></svg>