<svg width="48" height="48" fill="none" xmlns="http://www.w3.org/2000/svg"><path d="M29.225 25.889a1.285 1.285 0 00-1.309.007l-2.046 2.219a1.28 1.28 0 01-1.45-.087c-.726-.567-1.895-1.521-2.912-2.538s-1.971-2.186-2.538-2.912a1.28 1.28 0 01-.087-1.45l2.219-2.046a1.29 1.29 0 00.005-1.313l-4.002-5.128a1.294 1.294 0 00-1.428-.603c-.543.132-1.248.454-1.987 1.194-2.314 2.314-3.543 6.217 5.159 14.919 8.702 8.702 12.604 7.474 14.919 5.159.741-.741 1.062-1.447 1.195-1.991a1.288 1.288 0 00-.6-1.422c-1.236-.723-3.902-3.284-5.138-4.008z" fill="#0A2"/><path fill="#80D814" d="M25 19h2v2h-2zm4 0h2v2h-2zm4 0h2v2h-2z"/></svg>