<svg width="57" height="16" fill="none" xmlns="http://www.w3.org/2000/svg"><path d="M15.356 0H8C3.59 0 0 3.59 0 8v7.356A.65.65 0 00.644 16H8c4.41 0 8-3.59 8-8V.644A.637.637 0 0015.356 0zM8 5.307a.317.317 0 01-.293.313 2.409 2.409 0 00-1.97 1.58h1.15c.176 0 .313.137.313.312 0 .703-.566 1.288-1.288 1.288H5.6v2.888a.308.308 0 01-.312.312h-.956a.308.308 0 01-.312-.312V8c0-2.088 1.6-3.805 3.648-3.98a.319.319 0 01.352.312v.975H8zm4 6.38a.308.308 0 01-.312.313H11.2a2.398 2.398 0 01-2.4-2.4V4.312c0-.175.137-.312.312-.312h.956c.176 0 .313.137.313.312V9.6c0 .449.35.8.8.8h.487c.176 0 .313.137.313.312v.976H12zM37.268 10.4h-.488a.791.791 0 01-.8-.8V4.312A.308.308 0 0035.668 4h-.956a.308.308 0 00-.312.312V9.6c0 1.327 1.073 2.4 2.4 2.4h.488a.308.308 0 00.312-.312v-.956c-.02-.195-.156-.332-.332-.332zM23.649 4.02A3.994 3.994 0 0019.999 8v3.688a.31.31 0 00.313.312h.956a.308.308 0 00.312-.312V8.8h.313c.702 0 1.287-.566 1.287-1.288a.308.308 0 00-.312-.312h-1.151a2.377 2.377 0 011.97-1.58c.157-.02.293-.157.293-.313v-.956c0-.195-.156-.351-.331-.332zm32.8 0A3.994 3.994 0 0052.799 8v3.688a.31.31 0 00.313.312h.956a.308.308 0 00.312-.312V8.8h.313c.702 0 1.287-.566 1.287-1.288a.308.308 0 00-.312-.312h-1.151a2.377 2.377 0 011.97-1.58c.157-.02.293-.157.293-.313v-.956c0-.195-.156-.351-.331-.332zM26.068 7.2h-.956a.308.308 0 00-.312.312v4.156c0 .176.136.313.312.313h.956a.308.308 0 00.312-.313V7.512a.308.308 0 00-.312-.312zm0-3.2h-.956a.308.308 0 00-.312.312v.956c0 .176.136.312.312.312h.956a.308.308 0 00.312-.312v-.956A.308.308 0 0026.068 4zm7.181 8.8h-.976a.315.315 0 00-.312.273 1.596 1.596 0 01-1.58 1.327 1.61 1.61 0 01-1.581-1.327.315.315 0 00-.312-.273h-.976a.308.308 0 00-.312.351A3.21 3.21 0 0030.38 16a3.21 3.21 0 003.18-2.849.308.308 0 00-.311-.351zm8.117-7.2A3.222 3.222 0 0038.4 8.566a3.217 3.217 0 002.849 3.414.319.319 0 00.35-.312v-.975a.315.315 0 00-.272-.313A1.614 1.614 0 0140 8.644a1.571 1.571 0 011.483-1.425 1.613 1.613 0 011.502.8h-1.073a.308.308 0 00-.312.313c0 .702.566 1.287 1.288 1.287h1.6a.308.308 0 00.312-.312V8.82c-.02-1.853-1.561-3.336-3.434-3.219zm7.414 0a3.19 3.19 0 00-3.2 3.2 3.19 3.19 0 003.2 3.2c.586 0 1.132-.156 1.6-.43v.118c0 .175.137.312.313.312.702 0 1.287-.566 1.287-1.288v-1.99a3.186 3.186 0 00-3.2-3.122zm0 4.8c-.878 0-1.6-.722-1.6-1.6 0-.878.722-1.6 1.6-1.6.878 0 1.6.722 1.6 1.6 0 .878-.702 1.6-1.6 1.6zM32.312 5.6a.308.308 0 00-.312.312v.117a3.164 3.164 0 00-1.6-.429 3.19 3.19 0 00-3.2 3.2 3.19 3.19 0 003.2 3.2 3.199 3.199 0 003.2-3.122v-2.01A1.295 1.295 0 0032.312 5.6zm-1.932 4.8c-.878 0-1.6-.722-1.6-1.6 0-.878.722-1.6 1.6-1.6.878 0 1.6.722 1.6 1.6 0 .878-.702 1.6-1.6 1.6z" fill="#00B140"/></svg>