<svg width="32" height="32" fill="none" xmlns="http://www.w3.org/2000/svg"><path fill-rule="evenodd" clip-rule="evenodd" d="M7 22.7642L5.04501 26H26.955L25 22.7642V16c0-4.9706-4.0294-9-9-9s-9 4.0294-9 9v6.7642zM30.5 28h-29L5 22.2069V16C5 9.92487 9.92487 5 16 5c6.0751 0 11 4.92487 11 11v6.2069L30.5 28z" fill="#fff"/><path fill-rule="evenodd" clip-rule="evenodd" d="M24 16c3.866 0 7-3.134 7-7 0-3.86599-3.134-7-7-7s-7 3.13401-7 7c0 3.866 3.134 7 7 7z" fill="#64B98A"/><path fill-rule="evenodd" clip-rule="evenodd" d="M6 22.4855L3.27251 27H28.7275L26 22.4855V16c0-5.5228-4.4772-10-10-10S6 10.4772 6 16v6.4855zM30.5 28h-29L5 22.2069V16C5 9.92487 9.92487 5 16 5c6.0751 0 11 4.92487 11 11v6.2069L30.5 28z" fill="#101010"/><path d="M20 28c0 2.2091-1.7909 4-4 4-2.2091 0-4-1.7909-4-4h8z" fill="#1C8832"/><path fill-rule="evenodd" clip-rule="evenodd" d="M16 4c.5523 0 1-.44772 1-1s-.4477-1-1-1-1 .44772-1 1 .4477 1 1 1zm0 2c1.6569 0 3-1.34315 3-3s-1.3431-3-3-3-3 1.34315-3 3 1.3431 3 3 3z" fill="#fff"/><path fill-rule="evenodd" clip-rule="evenodd" d="M16 5c1.1046 0 2-.89543 2-2s-.8954-2-2-2-2 .89543-2 2 .8954 2 2 2zm0 1c1.6569 0 3-1.34315 3-3s-1.3431-3-3-3-3 1.34315-3 3 1.3431 3 3 3z" fill="#101010"/></svg>