<svg width="184" height="46" viewBox="0 0 184 46" fill="none" xmlns="http://www.w3.org/2000/svg">
<path d="M62.594 19.7142C62.1833 19.3857 61.6904 19.1392 61.1154 18.9749C60.5404 18.8106 59.9654 18.7285 59.4726 18.7285C59.0618 18.7285 58.6511 18.8107 58.2404 18.8928C57.8297 18.975 57.419 19.1392 57.0904 19.3035C56.7618 19.4678 56.4333 19.7142 56.1047 20.0428C55.7761 20.3714 55.6118 20.6999 55.4475 21.0285C55.4475 20.4535 55.2833 20.0428 54.9547 19.7142C54.7083 19.3857 54.2975 19.1392 53.8868 18.9749C53.4761 18.8106 52.9833 18.7285 52.4904 18.7285C51.9976 18.7285 51.5047 18.8107 50.9297 18.8928V21.0285C51.2583 21.0285 51.5868 21.0285 51.7511 21.1107C51.9975 21.1928 52.0797 21.2749 52.1618 21.4392C52.244 21.6035 52.3261 21.7678 52.3261 22.0142C52.3261 22.2607 52.3261 22.5071 52.3261 22.8357V32.775H55.4475V24.8071C55.4475 24.2321 55.5297 23.7392 55.7761 23.3285C55.9404 22.9178 56.1868 22.5892 56.5154 22.3428C56.844 22.0964 57.2547 21.85 57.6654 21.7678C58.0761 21.6857 58.569 21.5214 58.9797 21.5214C59.8011 21.5214 60.5404 21.6857 61.1975 22.0142L62.594 19.7142Z" fill="#00A6CA"/>
<path d="M76.3122 30.6398C76.0657 30.5577 75.9836 30.3934 75.9015 30.2291C75.8193 30.0648 75.7372 29.8184 75.7372 29.572C75.7372 29.3256 75.7372 29.0791 75.7372 28.7506V20.0434C74.8336 19.6327 73.93 19.3041 72.9443 19.1398C72.0407 18.8934 71.055 18.8113 70.0693 18.8113C68.9193 18.8113 67.9336 18.9756 66.9479 19.3041C66.0443 19.6327 65.2229 20.1256 64.4836 20.7827C63.7443 21.4398 63.2515 22.1791 62.8407 23.1648C62.43 24.0684 62.1836 25.1363 62.1836 26.2863C62.1836 27.272 62.2657 28.1756 62.5943 28.997C62.8407 29.8184 63.2515 30.5577 63.7443 31.2149C64.2372 31.872 64.8943 32.3648 65.7157 32.6934C66.5372 33.022 67.4407 33.1863 68.4265 33.1863C69.4122 33.1863 70.3979 32.9399 71.3015 32.3649C72.205 31.872 72.8622 31.1327 73.1907 30.147C73.1907 30.8863 73.2729 31.4613 73.5193 31.872C73.7657 32.2827 74.0122 32.6113 74.4229 32.7756C74.8336 33.022 75.2443 33.1041 75.7372 33.1041C76.23 33.1041 76.7229 33.1041 77.2157 32.9398V30.6398C76.805 30.722 76.4765 30.722 76.3122 30.6398ZM72.6979 25.8756C72.6979 27.1899 72.3693 28.1756 71.7122 28.997C71.1372 29.8184 70.2336 30.2291 69.0836 30.2291C67.7693 30.2291 66.8657 29.8184 66.2086 29.0791C65.5515 28.3399 65.305 27.3541 65.305 26.0398C65.305 25.3006 65.4693 24.6434 65.7157 23.9863C65.9622 23.4113 66.2086 22.8363 66.6193 22.4256C67.03 22.0148 67.4407 21.6863 68.0157 21.4398C68.5086 21.1934 69.1657 21.1113 69.8229 21.1113C70.2336 21.1113 70.7265 21.1113 71.2193 21.1934C71.7122 21.2756 72.205 21.4398 72.6979 21.6041V25.8756Z" fill="#00A6CA"/>
<path d="M91.1781 20.4535C90.7674 19.9607 90.1924 19.5499 89.4531 19.2214C88.796 18.8928 87.9745 18.7285 86.9888 18.7285C86.496 18.7285 86.0853 18.7285 85.5924 18.8107C85.0995 18.8928 84.6888 19.0571 84.2781 19.2214C83.8674 19.3857 83.4567 19.6321 83.1281 19.9607C82.7995 20.2892 82.471 20.6178 82.3067 21.1107C82.3067 20.4535 82.1424 19.9607 81.896 19.6321C81.6495 19.3035 81.321 19.0571 80.9103 18.8928C80.4996 18.8107 80.0067 18.7285 79.5138 18.7285C79.021 18.7285 78.446 18.8107 77.9531 18.8928V21.0285C78.2817 21.0285 78.6103 21.0285 78.7746 21.1107C79.021 21.1928 79.1031 21.2749 79.1853 21.4392C79.2674 21.6035 79.3495 21.7678 79.3495 22.0142C79.3495 22.2607 79.3495 22.5892 79.3495 23V32.775H82.471V24.9714C82.471 24.3964 82.5531 23.9035 82.7174 23.4928C82.8817 22.9999 83.1281 22.6714 83.4567 22.3428C83.7853 22.0142 84.1138 21.7678 84.5246 21.6035C84.9353 21.4392 85.4281 21.3571 85.921 21.3571C86.8245 21.3571 87.646 21.6856 88.221 22.2606C88.8781 22.8356 89.1246 23.7392 89.1246 24.8071V32.8571H92.246V24.8071C92.246 23.9857 92.1638 23.1642 91.9174 22.4249C91.9995 21.6035 91.671 21.0285 91.1781 20.4535Z" fill="#00A6CA"/>
<path d="M105.143 25.6289C104.651 25.3003 103.993 25.136 103.336 24.9717C102.679 24.8075 101.94 24.7253 101.201 24.6432C100.133 24.4789 99.3113 24.3146 98.7363 24.1503C98.1613 23.9039 97.9148 23.5753 97.9148 23.0003C97.9148 22.6717 97.997 22.4253 98.1613 22.1789C98.3256 21.9325 98.4898 21.7682 98.8184 21.6039C99.0648 21.4396 99.3934 21.2753 99.722 21.1932C100.051 21.111 100.461 21.0289 100.79 21.0289C101.118 21.0289 101.529 21.0289 101.858 21.111C102.268 21.1932 102.597 21.2753 102.843 21.4396C103.172 21.6039 103.336 21.7682 103.583 22.0146C103.747 22.261 103.911 22.5074 103.911 22.836H106.622C106.622 22.1789 106.54 21.5217 106.211 21.0289C105.883 20.536 105.472 20.1253 104.979 19.7146C104.404 19.386 103.829 19.0575 103.09 18.8932C102.351 18.7289 101.611 18.6467 100.79 18.6467C100.051 18.6467 99.3113 18.7289 98.572 18.8932C97.8327 19.0575 97.2577 19.3039 96.6827 19.7146C96.1077 20.0432 95.697 20.536 95.3684 21.0289C95.0398 21.5217 94.8756 22.1789 94.8756 22.9182C94.8756 23.7396 95.122 24.3146 95.4505 24.8074C95.8613 25.3003 96.272 25.6289 96.847 25.8753C97.422 26.1217 98.0791 26.286 98.8184 26.4503C99.5577 26.5324 100.215 26.6967 100.954 26.7789C101.858 26.861 102.597 27.1074 103.172 27.3539C103.747 27.6003 103.993 28.011 103.993 28.6682C103.993 29.0789 103.911 29.4074 103.665 29.736C103.418 29.9824 103.172 30.2289 102.926 30.3932C102.597 30.5575 102.268 30.6396 101.858 30.7217C101.447 30.8039 101.118 30.8039 100.708 30.8039C100.297 30.8039 99.9684 30.7217 99.5577 30.7217C99.2291 30.6396 98.9006 30.4753 98.572 30.311C98.2434 30.1467 98.0791 29.9003 97.8327 29.6539C97.6684 29.4074 97.5041 29.0789 97.5041 28.7503H94.4648C94.547 29.5717 94.7113 30.311 95.122 30.886C95.5327 31.461 95.9434 31.8717 96.6005 32.2003C97.1755 32.5289 97.8327 32.7753 98.572 32.9396C99.3113 33.1039 100.051 33.186 100.79 33.186C101.529 33.186 102.268 33.1039 103.008 32.9396C103.747 32.7753 104.404 32.5289 104.897 32.1182C105.39 31.7074 105.883 31.2967 106.211 30.8039C106.54 30.2289 106.704 29.5717 106.704 28.8324C106.704 28.011 106.54 27.3539 106.211 26.861C106.047 26.286 105.636 25.9574 105.143 25.6289Z" fill="#00A6CA"/>
<path d="M139.971 20.4535C139.56 19.9607 138.985 19.5499 138.246 19.2214C137.589 18.8928 136.767 18.7285 135.782 18.7285C135.289 18.7285 134.878 18.7285 134.385 18.8107C133.892 18.8928 133.482 19.0571 133.071 19.2214C132.66 19.3857 132.25 19.6321 131.921 19.9607C131.592 20.2892 131.264 20.6178 131.1 21.1107C131.1 20.4535 130.935 19.9607 130.689 19.6321C130.442 19.3035 130.114 19.0571 129.703 18.8928C129.292 18.8107 128.8 18.7285 128.307 18.7285C127.814 18.7285 127.239 18.8107 126.828 18.8928V21.0285C127.157 21.0285 127.485 21.0285 127.65 21.1107C127.896 21.1928 127.978 21.2749 128.06 21.4392C128.142 21.6035 128.225 21.7678 128.225 22.0142C128.225 22.2607 128.225 22.5892 128.225 23V32.775H131.346V24.9714C131.346 24.3964 131.428 23.9035 131.592 23.4928C131.757 22.9999 132.003 22.6714 132.332 22.3428C132.66 22.0142 132.989 21.7678 133.4 21.6035C133.81 21.4392 134.303 21.3571 134.796 21.3571C135.7 21.3571 136.521 21.6856 137.096 22.2606C137.753 22.8356 138 23.7392 138 24.8071V32.8571H141.121V24.8071C141.121 23.9857 141.039 23.1642 140.792 22.4249C140.792 21.6035 140.464 21.0285 139.971 20.4535Z" fill="#00A6CA"/>
<path d="M145.475 12.9785C144.982 12.9785 144.572 13.1428 144.161 13.4714C143.75 13.7999 143.586 14.2106 143.586 14.8678C143.586 15.5249 143.832 15.9357 144.161 16.2642C144.572 16.5928 144.982 16.7571 145.475 16.6749C145.968 16.6749 146.379 16.5107 146.707 16.1821C147.118 15.8535 147.282 15.4428 147.282 14.7857C147.282 14.1285 147.118 13.7178 146.707 13.3892C146.379 13.0607 145.968 12.9785 145.475 12.9785Z" fill="#00A6CA"/>
<path d="M147.036 19.0574H143.914V32.8574H147.036V19.0574Z" fill="#00A6CA"/>
<path d="M161.575 20.5363C160.918 19.9613 160.097 19.5506 159.193 19.222C158.29 18.8934 157.386 18.8113 156.4 18.8113C155.497 18.8113 154.593 18.9756 153.772 19.222C152.95 19.5506 152.129 19.9613 151.472 20.5363C150.815 21.1113 150.24 21.8506 149.829 22.7541C149.418 23.6577 149.172 24.6434 149.172 25.8756C149.172 27.1077 149.418 28.1756 149.829 28.997C150.24 29.9006 150.815 30.6398 151.472 31.297C152.129 31.872 152.95 32.3648 153.772 32.6113C154.675 32.9398 155.497 33.022 156.483 33.022C157.386 33.022 158.29 32.8577 159.193 32.6113C160.097 32.3648 160.836 31.872 161.493 31.297C162.15 30.722 162.725 29.9827 163.136 28.997C163.547 28.0934 163.793 27.0256 163.793 25.8756C163.793 24.6434 163.547 23.6577 163.136 22.7541C162.808 21.8506 162.233 21.1113 161.575 20.5363ZM160.343 27.847C160.097 28.422 159.768 28.8327 159.44 29.2434C159.111 29.6541 158.618 29.9005 158.125 30.0648C157.633 30.2291 157.14 30.3934 156.647 30.3934C156.154 30.3934 155.579 30.3113 155.086 30.147C154.593 29.9827 154.1 29.6541 153.772 29.3256C153.361 28.9148 153.033 28.5041 152.786 27.9291C152.54 27.3541 152.458 26.697 152.458 25.9577C152.458 25.2184 152.54 24.6434 152.786 24.0684C153.033 23.4934 153.279 23.0827 153.69 22.7541C154.1 22.4256 154.511 22.097 155.004 21.9327C155.497 21.7684 155.99 21.6863 156.483 21.6041C156.975 21.6041 157.55 21.6863 158.043 21.8505C158.536 22.0148 159.029 22.2613 159.44 22.672C159.85 23.0005 160.179 23.4934 160.425 24.0684C160.672 24.6434 160.836 25.3006 160.836 26.0398C160.754 26.6148 160.59 27.272 160.343 27.847Z" fill="#00A6CA"/>
<path d="M37.6211 15.7721V12.8149H52.489V15.7721H46.6568V32.8578H43.3711V15.7721H37.6211Z" fill="#00A6CA"/>
<path d="M109.25 26.1221V12.8149H112.536V26.0399C112.536 28.6685 114.507 30.1471 117.054 30.1471C119.6 30.1471 121.489 28.6685 121.489 26.0399V12.8149H124.775V26.1221C124.775 30.5578 121.243 33.1042 117.054 33.1042C112.782 33.1042 109.25 30.5578 109.25 26.1221Z" fill="#00A6CA"/>
<path d="M179.317 29.5717V27.3539V24.6432C179.317 23.8217 179.234 23.0003 178.988 22.261C178.742 21.5217 178.413 20.9467 178.002 20.3717C177.592 19.8789 177.017 19.4682 176.277 19.1396C175.62 18.811 174.799 18.6467 173.813 18.6467C173.32 18.6467 172.909 18.6467 172.417 18.7289C171.924 18.811 171.513 18.9753 171.102 19.1396C170.692 19.3039 170.281 19.5503 169.952 19.8789C169.624 20.2074 169.295 20.536 169.131 21.0289C169.131 20.3717 168.967 19.8789 168.72 19.5503C168.474 19.2217 168.145 18.9753 167.734 18.811C167.324 18.7289 166.831 18.6467 166.338 18.6467C165.845 18.6467 165.27 18.7289 164.859 18.811V20.9467C165.188 20.9467 165.517 20.9467 165.681 21.0289C165.927 21.111 166.009 21.1932 166.092 21.3575C166.174 21.5217 166.256 21.686 166.256 21.9324C166.256 22.1789 166.256 22.5075 166.256 22.9182V32.6932H169.377V24.8896C169.377 24.3146 169.459 23.8217 169.624 23.411C169.788 22.9182 170.034 22.5896 170.363 22.261C170.692 21.9324 171.02 21.686 171.431 21.5217C171.842 21.3574 172.334 21.2753 172.827 21.2753C173.731 21.2753 174.552 21.6039 175.127 22.1789C175.784 22.7539 176.031 23.6574 176.031 24.7253V29.4074V29.736C176.031 33.1039 178.084 33.4324 180.795 32.9396V30.9682C179.563 31.0503 179.317 30.6396 179.317 29.5717Z" fill="#00A6CA"/>
<path d="M16.5936 8.05005C11.2543 8.05005 6.57222 10.9251 4.10793 15.2786C3.20436 17.0036 3.04006 18.4822 3.77934 19.7143C4.60077 21.1929 6.49006 21.3572 7.47577 21.3572H9.28292L8.62579 23.4108C8.21508 24.6429 8.37936 26.0393 9.03651 26.9429C9.69365 27.8465 10.6794 28.3393 11.9115 28.3393C12.7329 28.3393 13.6365 28.1751 14.4579 27.8465C14.2115 27.5179 14.0472 27.1894 13.8829 26.7786C13.8008 26.4501 13.6365 26.1215 13.6365 25.7108C13.1436 25.9572 12.5686 26.0393 11.9936 26.0393C11.6651 26.0393 11.1722 25.9572 10.9258 25.5465C10.6794 25.2179 10.5972 24.7251 10.7615 24.1501L11.6651 21.3572H14.5401L15.2793 18.9751H12.4865L13.7186 15.1143H11.2543L10.0222 18.9751H7.39365C6.57222 18.9751 6.07934 18.7286 5.83291 18.3179C5.58649 17.825 5.83293 16.8393 6.49007 15.6893V15.6072C8.70793 12.4036 12.3222 10.2679 16.5115 10.2679C23.1651 10.2679 28.5865 15.6893 28.5865 22.3429C28.5865 28.9965 23.1651 34.4179 16.5115 34.4179C10.5972 34.4179 5.66863 30.1465 4.60077 24.5608L2.30078 25.0536C3.61507 31.7072 9.4472 36.8 16.5115 36.8C24.4793 36.8 30.9686 30.3108 30.9686 22.3429C31.0508 14.5393 24.5615 8.05005 16.5936 8.05005Z" fill="#00A6CA"/>
<path d="M25.7929 26.45C25.2179 26.45 24.4786 26.3678 23.9858 26.0393C23.8215 25.875 23.575 25.7107 23.4929 25.3C23.4929 25.1357 23.4929 24.8893 23.575 24.6429L25.3822 19.1393H22.9179L21.3572 23.9036C20.9465 25.1357 19.6322 26.1214 18.4822 26.1214C18.1536 26.1214 17.7429 26.0393 17.5786 25.7107C17.4143 25.4643 17.25 25.1357 17.4965 24.5607L19.3036 19.0571H16.8393L15.2786 23.8214C14.8679 24.9714 15.0322 26.2036 15.6893 27.1071C16.3465 27.9286 17.2501 28.4214 18.4822 28.4214C19.6322 28.4214 20.8643 27.9286 21.85 27.1071C22.1786 27.6 22.5893 27.9286 23.1643 28.175C23.9858 28.4214 24.4786 28.4214 25.0536 28.4214C25.3001 28.4214 25.6286 28.3393 25.7108 28.3393C25.7929 28.2571 25.7929 28.175 25.8751 28.0928C25.9572 27.9286 26.0393 27.7643 26.1215 27.6C26.2036 27.4357 26.2857 27.2714 26.3679 27.1071C26.45 26.9429 26.5322 26.7786 26.6143 26.6143C26.6965 26.5321 26.6965 26.3679 26.7786 26.2857C26.5322 26.45 26.2036 26.45 25.7929 26.45Z" fill="#00A6CA"/>
</svg>
