<svg width="32" height="32" fill="none" xmlns="http://www.w3.org/2000/svg"><path fill-rule="evenodd" clip-rule="evenodd" d="M11.1138 9.68513c1.3269-1.72122 1.1517-4.10135-.4466-5.63307-1.4637-1.40275-3.8707-1.40275-5.33442 0-1.59832 1.53172-1.77353 3.91185-.4466 5.63307L8 13.7243l3.1138-4.03917zM8 17l-4.69778-6.0938c-1.95683-2.53829-1.68185-6.06655.64675-8.29812 2.23732-2.144107 5.86474-2.144107 8.10203 0 2.3286 2.23157 2.6036 5.75983.6468 8.29812L8 17z" fill="#fff"/><path fill-rule="evenodd" clip-rule="evenodd" d="M0 11v20h30c1.1046 0 2-.8954 2-2V9c0 1.1046-.8954 2-2 2H0z" fill="#64B98A"/><path fill-rule="evenodd" clip-rule="evenodd" d="M11.9058 10.2957c1.6419-2.12979 1.4168-5.08398-.5467-6.96563-1.8505-1.77343-4.8677-1.77343-6.71823 0-1.96345 1.88165-2.18855 4.83584-.54667 6.96563L8 15.3621l3.9058-5.0664zm.792.6105c1.9568-2.53829 1.6818-6.06655-.6468-8.29812-2.23729-2.144107-5.86471-2.144107-8.10203 0-2.3286 2.23157-2.60358 5.75983-.64675 8.29812L8 17l4.6978-6.0938z" fill="#101010"/><path fill-rule="evenodd" clip-rule="evenodd" d="M30 7h-6v20h6c1.1046 0 2 .8954 2 2V9c0-1.10457-.8954-2-2-2z" fill="#1C8832"/><path fill-rule="evenodd" clip-rule="evenodd" d="M17.5041 19H11v-1h6.5041c1.3793 0 2.4974 1.1181 2.4974 2.4974 0 1.3793-1.1181 2.4975-2.4974 2.4975h-1.5046c-.8276 0-1.4985.6709-1.4985 1.4984 0 .827.67 1.4977 1.4969 1.4985L24.0005 26l-.001 1-8.0026-.0082c-1.3788-.0014-2.4959-1.1196-2.4959-2.4985 0-1.3798 1.1186-2.4984 2.4985-2.4984h1.5046c.827 0 1.4974-.6704 1.4974-1.4975 0-.827-.6704-1.4974-1.4974-1.4974z" fill="#101010"/></svg>