<svg width="24" height="24" viewBox="0 0 24 24" fill="none" xmlns="http://www.w3.org/2000/svg">
<path fill-rule="evenodd" clip-rule="evenodd" d="M6.51454 7.76479C8.08201 6.64957 9.96831 6 11.9999 6C14.0316 6 15.9179 6.64957 17.4853 7.76479C18.9619 8.81534 20.1559 10.2788 20.9158 12.0002C20.1558 13.7214 18.9618 15.1847 17.4853 16.2352C15.9179 17.3504 14.0316 18 11.9999 18C9.96831 18 8.08201 17.3504 6.51454 16.2352C5.03797 15.1847 3.84396 13.7212 3.08404 11.9998C3.8441 10.2786 5.03807 8.81527 6.51454 7.76479ZM11.9999 4C9.53242 4 7.24424 4.79108 5.3551 6.13517C3.45466 7.48729 1.95771 9.39728 1.07057 11.6306L0.92395 11.9997L1.07053 12.3689C1.95751 14.6025 3.45454 16.5126 5.3551 17.8648C7.24424 19.2089 9.53242 20 11.9999 20C14.4675 20 16.7556 19.2089 18.6448 17.8648C20.5452 16.5127 22.0422 14.6027 22.9293 12.3694L23.0759 12.0003L22.9293 11.6311C22.0424 9.39754 20.5453 7.48737 18.6448 6.13517C16.7556 4.79108 14.4675 4 11.9999 4ZM13.4152 13.4152C13.7769 13.0535 14 12.5533 14 12C14 11.4467 13.7769 10.9465 13.4152 10.5848C13.0535 10.2231 12.5533 10 12 10C11.4467 10 10.9465 10.2231 10.5848 10.5848C10.2231 10.9465 10 11.4467 10 12C10 12.5533 10.2231 13.0535 10.5848 13.4152C10.9465 13.7769 11.4467 14 12 14C12.5533 14 13.0535 13.7769 13.4152 13.4152Z" fill="#909090"/>
</svg>
