<svg width="24" height="24" viewBox="0 0 24 24" fill="none" xmlns="http://www.w3.org/2000/svg">
<path fill-rule="evenodd" clip-rule="evenodd" d="M12.0001 6C9.96843 6 8.08213 6.64957 6.51466 7.76479C5.03819 8.81527 3.84422 10.2786 3.08416 11.9998C3.71198 13.422 4.63608 14.6681 5.77102 15.6507L14.9474 6.47428C14.0171 6.16601 13.0271 6 12.0001 6ZM16.4964 4.92535C15.1118 4.32981 13.5933 4 12.0001 4C9.53254 4 7.24436 4.79108 5.35522 6.13517C3.45478 7.48729 1.95784 9.39728 1.07069 11.6306L0.924072 11.9997L1.07065 12.3689C1.79533 14.1938 2.92725 15.8028 4.35375 17.068L4.29289 17.1288C3.90237 17.5194 3.90237 18.1525 4.29289 18.543C4.68342 18.9336 5.31658 18.9336 5.70711 18.543L18.2929 5.95726C18.6834 5.56673 18.6834 4.93357 18.2929 4.54304C17.9024 4.15252 17.2692 4.15252 16.8787 4.54304L16.4964 4.92535ZM7.83784 19.2121L9.4129 17.6371C10.2371 17.8738 11.1045 18 12.0001 18C14.0317 18 15.918 17.3504 17.4854 16.2352C18.9619 15.1847 20.1559 13.7214 20.916 12.0002C20.3347 10.6834 19.4994 9.51761 18.4779 8.57207L19.893 7.15697C21.2036 8.38572 22.2471 9.91271 22.9295 11.6311L23.076 12.0003L22.9294 12.3694C22.0423 14.6027 20.5453 16.5127 18.6449 17.8648C16.7558 19.2089 14.4676 20 12.0001 20C10.534 20 9.13121 19.7207 7.83784 19.2121Z" fill="#909090"/>
</svg>
