<svg width="24" height="24" viewBox="0 0 24 24" fill="none" xmlns="http://www.w3.org/2000/svg">
    <path opacity="0.2" fill-rule="evenodd" clip-rule="evenodd" d="M12 24C18.6274 24 24 18.6274 24 12C24 5.37258 18.6274 0 12 0C5.37258 0 0 5.37258 0 12C0 18.6274 5.37258 24 12 24ZM12 21C16.9706 21 21 16.9706 21 12C21 7.02944 16.9706 3 12 3C7.02944 3 3 7.02944 3 12C3 16.9706 7.02944 21 12 21Z" fill="#FAFAFA"/>
    <path fill-rule="evenodd" clip-rule="evenodd" d="M10.5 1.5C10.5 0.671573 11.1716 0 12 0C18.6274 0 24 5.37258 24 12C24 12.8284 23.3284 13.5 22.5 13.5C21.6716 13.5 21 12.8284 21 12C21 7.02944 16.9706 3 12 3C11.1716 3 10.5 2.32843 10.5 1.5Z" fill="#FAFAFA"/>
</svg>
