<svg width="30" height="30" viewBox="0 0 30 30" fill="none" xmlns="http://www.w3.org/2000/svg">
    <path fill-rule="evenodd" clip-rule="evenodd"
          d="M8.26482 12.6C9.84587 10.4053 12.2753 9 14.9998 9C18.1659 9 20.9336 10.8979 22.4344 13.727C22.8574 14.5244 22.8668 15.4792 22.4378 16.2733C21.3213 18.3396 18.9143 21 14.9998 21C11.8539 21 9.10124 19.1263 7.59401 16.327C7.14841 15.4994 7.14833 14.5007 7.59391 13.6732C7.79587 13.2981 8.02019 12.9396 8.26482 12.6ZM14.9995 19C17.2087 19 18.9995 17.2091 18.9995 15C18.9995 12.7909 17.2087 11 14.9995 11C12.7904 11 10.9995 12.7909 10.9995 15C10.9995 17.2091 12.7904 19 14.9995 19Z"
          fill="#8D96B2"/>
    <path d="M17 14.999C17 16.1036 16.1046 16.999 15 16.999C13.8954 16.999 13 16.1036 13 14.999C13 13.8945 13.8954 12.999 15 12.999C16.1046 12.999 17 13.8945 17 14.999Z"
          fill="#62687F"/>
</svg>
