<svg width="12" height="12" viewBox="0 0 12 12" fill="none" xmlns="http://www.w3.org/2000/svg">
    <path d="M4.94929 1.04289C4.55877 0.652369 3.92561 0.652369 3.53508 1.04289C3.14456 1.43342 3.14456 2.06658 3.53508 2.45711L4.94929 1.04289ZM8.48483 5.99264L9.19193 6.69975C9.58246 6.30922 9.58246 5.67606 9.19193 5.28553L8.48483 5.99264ZM3.53508 9.52817C3.14456 9.9187 3.14456 10.5519 3.53508 10.9424C3.9256 11.3329 4.55877 11.3329 4.94929 10.9424L3.53508 9.52817ZM3.53508 2.45711L7.77772 6.69975L9.19193 5.28553L4.94929 1.04289L3.53508 2.45711ZM7.77772 5.28553L3.53508 9.52817L4.94929 10.9424L9.19193 6.69975L7.77772 5.28553Z" fill="#707070"/>
</svg>
