<svg width="24" height="24" viewBox="0 0 24 24" fill="none" xmlns="http://www.w3.org/2000/svg">
<path fill-rule="evenodd" clip-rule="evenodd" d="M16.2071 2C15.7616 2 15.5385 2.53857 15.8535 2.85355L17.2929 4.29292L13 8.58579L10.7071 6.29289C10.3166 5.90237 9.68342 5.90237 9.29289 6.29289L2.29289 13.2929C1.90237 13.6834 1.90237 14.3166 2.29289 14.7071C2.68342 15.0976 3.31658 15.0976 3.70711 14.7071L10 8.41421L12.2929 10.7071C12.6834 11.0976 13.3166 11.0976 13.7071 10.7071L18.7071 5.70713L20.1464 7.14645C20.4614 7.46143 21 7.23835 21 6.79289V2.5C21 2.22386 20.7761 2 20.5 2H16.2071ZM18 10C17.4477 10 17 10.4477 17 11V21C17 21.5523 17.4477 22 18 22C18.5523 22 19 21.5523 19 21V11C19 10.4477 18.5523 10 18 10ZM10 12C9.44772 12 9 12.4477 9 13V21C9 21.5523 9.44772 22 10 22C10.5523 22 11 21.5523 11 21V13C11 12.4477 10.5523 12 10 12ZM6 16C5.44772 16 5 16.4477 5 17V21C5 21.5523 5.44772 22 6 22C6.55228 22 7 21.5523 7 21V17C7 16.4477 6.55228 16 6 16ZM13 15C13 14.4477 13.4477 14 14 14C14.5523 14 15 14.4477 15 15V21C15 21.5523 14.5523 22 14 22C13.4477 22 13 21.5523 13 21V15Z" fill="#909090"/>
</svg>
