<svg width="20" height="20" fill="none" xmlns="http://www.w3.org/2000/svg"><path d="M9.99996 1.6665c-4.6 0-8.33333 3.73334-8.33333 8.33334 0 4.59996 3.73333 8.33336 8.33333 8.33336 4.60004 0 8.33334-3.7334 8.33334-8.33336 0-4.6-3.7333-8.33334-8.33334-8.33334z" stroke="#909090" stroke-width="2"/><path fill-rule="evenodd" clip-rule="evenodd" d="M9.99996 5.4165c-.46024 0-.83333.3731-.83333.83334 0 .46023.37309.83333.83333.83333.46024 0 .83334-.3731.83334-.83333 0-.46024-.3731-.83334-.83334-.83334zm0 3.33334c-.46024 0-.83333.37309-.83333.83333v4.16663c0 .4603.37309.8334.83333.8334.46024 0 .83334-.3731.83334-.8334V9.58317c0-.46024-.3731-.83333-.83334-.83333z" fill="#909090"/></svg>