<svg width="24" height="24" viewBox="0 0 24 24" fill="none" xmlns="http://www.w3.org/2000/svg">
    <g clip-path="url(#icon-fl-current-color-id)">
        <path d="M22.0069 3.58799C21.9039 3.58799 21.793 3.59591 21.6901 3.61967L17.2863 4.59389V1.47321C17.2863 0.641561 16.613 0 15.821 0C15.718 0 15.6071 0.00792051 15.5041 0.031682L7.9955 1.69499C3.49665 2.68505 0.304688 6.66115 0.304688 11.255V18.7003C0.304688 19.532 0.977931 20.1735 1.76998 20.1735C1.87295 20.1735 1.98383 20.1656 2.0868 20.1418L6.4906 19.1676L8.23311 18.7795L9.59544 18.4785C14.0784 17.4885 17.2704 13.5124 17.2704 8.91849V8.17396L15.5279 8.56207V8.91849C15.5279 10.7481 14.8943 12.5382 13.7537 13.9559C12.6132 15.3816 10.9974 16.3796 9.21526 16.7756L8.23311 16.9895V14.843C8.23311 13.0134 8.86675 11.2234 10.0073 9.80559C11.1479 8.3799 12.7636 7.38191 14.5458 6.98589L21.7217 5.40178V12.5065C21.7217 14.3361 21.0881 16.1262 19.9475 17.5439C18.807 18.9696 17.1912 19.9676 15.4091 20.3636L8.23311 21.9477V20.5537L6.4906 20.9418V22.2883C6.4906 23.12 7.16385 23.7615 7.9559 23.7615C8.05886 23.7615 8.16975 23.7536 8.27272 23.7298L15.7814 22.0665C20.2644 21.0765 23.4563 17.1004 23.4563 12.5065V5.0612C23.4722 4.22955 22.791 3.58799 22.0069 3.58799ZM14.1735 5.28298C9.69049 6.27304 6.49852 10.2491 6.49852 14.843V17.3697L2.0472 18.3597V11.255C2.0472 9.4254 2.68084 7.63537 3.82139 6.2176C4.96195 4.79191 6.57773 3.79392 8.35984 3.3979L15.5358 1.8138V4.98992L14.1735 5.28298Z" fill="white"/>
    </g>
    <defs>
        <clipPath id="icon-fl-current-color-id">
            <rect width="23.7615" height="23.7615" fill="white"/>
        </clipPath>
    </defs>
</svg>
