<svg width="27" height="24" viewBox="0 0 27 24" fill="none" xmlns="http://www.w3.org/2000/svg">
    <path d="M17.561 9V6C17.561 3.79086 15.7701 2 13.5609 2H12.9844C10.7752 2 8.98438 3.79086 8.98438 6V9" stroke="#909090" stroke-width="2"/>
    <path d="M6.83946 8C5.65528 8 4.69531 9.04467 4.69531 10.3333V19.6667C4.69531 20.9553 5.65528 22 6.83946 22H19.7043C20.8885 22 21.8485 20.9553 21.8485 19.6667V10.3333C21.8485 9.04467 20.8885 8 19.7043 8H6.83946Z" stroke="#909090" stroke-width="2"/>
    <path fill-rule="evenodd" clip-rule="evenodd" d="M14.1972 10.5784C14.2312 10.3792 13.982 10.261 13.8492 10.4134L9.27223 15.6687C9.15952 15.7981 9.25143 16.0001 9.42304 16.0001L12.93 16.0001L12.3223 19.5583C12.2881 19.7588 12.5402 19.8765 12.6719 19.7215L17.253 14.3296C17.3633 14.1997 17.271 14.0001 17.1005 14.0001L13.6132 14.0001L14.1972 10.5784Z" fill="#909090"/>
</svg>
