<svg width="32" height="32" fill="none" xmlns="http://www.w3.org/2000/svg"><path fill-rule="evenodd" clip-rule="evenodd" d="M9.73231 22.2677c3.12419 3.1242 8.18949 3.1242 11.31369 0s3.1242-8.1895 0-11.3137c-3.1242-3.12416-8.1895-3.12416-11.31369 0-3.1242 3.1242-3.1242 8.1895 0 11.3137zM22.4602 23.682c-3.9052 3.9052-10.2369 3.9052-14.14211 0-3.90524-3.9053-3.90524-10.2369 0-14.14218 3.90521-3.90525 10.23691-3.90525 14.14211 0 3.9053 3.90528 3.9053 10.23688 0 14.14218z" fill="#fff"/><path fill-rule="evenodd" clip-rule="evenodd" d="M24 0H10v30h22V8l-8-8z" fill="#64B98A"/><path fill-rule="evenodd" clip-rule="evenodd" d="M12.5 13h8v1h-8v-1zm0 3h8v1h-8v-1zm4 3h-4v1h4v-1z" fill="#fff"/><path d="M7.96436 21.9141l2.12134 2.1213L2.66106 31.46c-.58579.5858-1.53554.5858-2.121325 0-.5857863-.5858-.5857865-1.5355 0-2.1213l7.424625-7.4246z" fill="#fff"/><path fill-rule="evenodd" clip-rule="evenodd" d="M8.67146 24.0354l-.7071-.7071-6.71752 6.7175c-.19526.1953-.19526.5118 0 .7071.19526.1953.51185.1953.70711 0l6.71751-6.7175zm-.7071-2.1213L.539735 29.3387c-.5857865.5858-.5857863 1.5355 0 2.1213.585785.5858 1.535535.5858 2.121325 0l7.42464-7.4246-2.12134-2.1213z" fill="#101010"/><path fill-rule="evenodd" clip-rule="evenodd" d="M9.0252 22.9748c3.5147 3.5148 9.2132 3.5148 12.7279 0 3.5147-3.5147 3.5147-9.2132 0-12.7279-3.5147-3.51469-9.2132-3.51469-12.7279 0-3.51472 3.5147-3.51472 9.2132 0 12.7279zm13.435.7072c-3.9052 3.9052-10.2369 3.9052-14.14211 0-3.90524-3.9053-3.90524-10.2369 0-14.14218 3.90521-3.90525 10.23691-3.90525 14.14211 0 3.9053 3.90528 3.9053 10.23688 0 14.14218z" fill="#101010"/><path d="M24 8h8l-8-8v8z" fill="#1C8832"/></svg>