<svg width="24" height="24" viewBox="0 0 24 24" fill="none" xmlns="http://www.w3.org/2000/svg">
<path fill-rule="evenodd" clip-rule="evenodd" d="M6 19.5L6 4.5C6 4.22386 6.22386 4 6.5 4L17.5 4C17.7761 4 18 4.22386 18 4.5L18 19.5C18 19.7761 17.7761 20 17.5 20L6.5 20C6.22386 20 6 19.7761 6 19.5ZM4 4.5C4 3.11929 5.11929 2 6.5 2L17.5 2C18.8807 2 20 3.11929 20 4.5L20 19.5C20 20.8807 18.8807 22 17.5 22L6.5 22C5.11929 22 4 20.8807 4 19.5L4 4.5Z" fill="#909090"/>
<rect x="9" y="7" width="6" height="2" rx="1" fill="#909090"/>
<rect x="9" y="11" width="6" height="2" rx="1" fill="#909090"/>
<rect x="9" y="15" width="6" height="2" rx="1" fill="#909090"/>
</svg>
