<svg width="24" height="24" fill="none" xmlns="http://www.w3.org/2000/svg"><mask id="a" maskUnits="userSpaceOnUse" x="0" y="0" width="24" height="24"><path fill="#C4C4C4" d="M0 0h24v24H0z"/></mask><g mask="url(#a)"><path fill-rule="evenodd" clip-rule="evenodd" d="M5.263 9.6C6.843 7.405 9.273 6 11.998 6c3.166 0 5.934 1.898 7.434 4.727.423.797.433 1.752.004 2.546C18.319 15.34 15.912 18 11.998 18c-3.146 0-5.899-1.874-7.406-4.673a2.801 2.801 0 010-2.654c.202-.375.426-.733.67-1.073zm6.735 6.4a4 4 0 100-8 4 4 0 000 8z" fill="#8D96B2"/><circle cx="12" cy="12" r="2" fill="#62687F"/></g></svg>