<svg width="32" height="32" viewBox="0 0 32 32" fill="none" xmlns="http://www.w3.org/2000/svg">
<path fill-rule="evenodd" clip-rule="evenodd" d="M18.6182 9.33398H21.9459L23.8903 11.209L24.2263 12.667H16.2718C16.3173 12.4499 16.4187 12.2395 16.5808 12.0572L17.5285 10.991C17.6173 10.8911 17.7457 10.834 17.8793 10.834C18.266 10.834 18.4888 10.3892 18.2514 10.084C18.014 9.77874 18.2315 9.33398 18.6182 9.33398ZM15.3119 12.667C15.327 12.5938 15.3348 12.5189 15.3348 12.4431C15.3348 11.8306 14.8382 11.334 14.2256 11.334H10.7108C10.4085 11.334 10.1152 11.4367 9.87891 11.6253L8.57422 12.667H15.3119ZM9.55708 19.3337H13.4743C13.7406 19.5889 13.8511 19.9958 13.6885 20.3765L12.4257 23.334L9.84258 21.1953C9.42548 20.85 9.25867 20.2866 9.42049 19.7699L9.55708 19.3337ZM19.612 19.3337H23.8761L22.7236 21.334L19.612 19.3337Z" fill="#EEF2F4"/>
<path fill-rule="evenodd" clip-rule="evenodd" d="M23.2773 19.334C22.0133 22.088 19.2313 24.0007 16.0027 24.0007C12.774 24.0007 9.99208 22.088 8.72807 19.334H5.86719C7.26691 23.5926 11.2757 26.6673 16.0027 26.6673C20.7296 26.6673 24.7385 23.5926 26.1382 19.334H23.2773ZM8.72807 12.6673C9.99208 9.91328 12.774 8.00065 16.0027 8.00065C19.2313 8.00065 22.0133 9.91328 23.2773 12.6673H26.1382C24.7385 8.40874 20.7296 5.33398 16.0027 5.33398C11.2757 5.33398 7.26691 8.40874 5.86719 12.6673H8.72807Z" fill="#C6CAD8"/>
<path d="M12.144 14.2676L10.9333 18.0009H9.80267L9.088 15.7289L8.34133 18.0009H7.21067L6 14.2676H7.088L7.84 16.6516L8.62933 14.2676H9.6L10.352 16.6729L11.136 14.2676H12.144Z" fill="#C6CAD8"/>
<path d="M19.1232 14.2676L17.9125 18.0009H16.7818L16.0672 15.7289L15.3205 18.0009H14.1898L12.9792 14.2676H14.0672L14.8192 16.6516L15.6085 14.2676H16.5792L17.3312 16.6729L18.1152 14.2676H19.1232Z" fill="#C6CAD8"/>
<path d="M26.1023 14.2676L24.8917 18.0009H23.761L23.0463 15.7289L22.2997 18.0009H21.169L19.9583 14.2676H21.0463L21.7983 16.6516L22.5877 14.2676H23.5583L24.3103 16.6729L25.0943 14.2676H26.1023Z" fill="#C6CAD8"/>
</svg>
