<svg width="24" height="24" viewBox="0 0 24 24" fill="none" xmlns="http://www.w3.org/2000/svg">
    <path d="M3.29289 16.9571C3.10536 17.1446 3 17.399 3 17.6642V20.5C3 20.7761 3.22386 21 3.5 21H6.33579C6.601 21 6.85536 20.8946 7.04289 20.7071L17.1029 10.6471C17.4934 10.2566 17.4934 9.62342 17.1029 9.23289L14.7671 6.89711C14.3766 6.50658 13.7434 6.50658 13.3529 6.89711L3.29289 16.9571ZM6.06645 18.8536C5.97268 18.9473 5.8455 19 5.71289 19H5.5C5.22386 19 5 18.7761 5 18.5V18.2871C5 18.1545 5.05268 18.0273 5.14645 17.9336L13.7064 9.37355C13.9017 9.17829 14.2183 9.17829 14.4136 9.37355L14.6264 9.58645C14.8217 9.78171 14.8217 10.0983 14.6264 10.2936L6.06645 18.8536ZM20.71 5.63L18.37 3.29C18.17 3.09 17.92 3 17.66 3C17.4 3 17.15 3.1 16.96 3.29L15.8371 4.41289C15.4466 4.80342 15.4466 5.43658 15.8371 5.82711L18.1729 8.16289C18.5634 8.55342 19.1966 8.55342 19.5871 8.16289L20.71 7.04C21.1 6.65 21.1 6.02 20.71 5.63Z" fill="#312C2C"/>
</svg>
