<svg width="24" height="24" fill="none" xmlns="http://www.w3.org/2000/svg"><mask id="a" maskUnits="userSpaceOnUse" x="0" y="0" width="24" height="24"><path fill="#C4C4C4" d="M0 0h24v24H0z"/></mask><g mask="url(#a)"><path d="M17.82 14c-.386 0-.735.21-.961.521A5.992 5.992 0 0112 17a5.992 5.992 0 01-4.859-2.479c-.226-.311-.575-.521-.96-.521-.765 0-1.277.775-.855 1.413A7.993 7.993 0 0012 19a7.993 7.993 0 006.674-3.587c.422-.638-.09-1.413-.855-1.413zM6.18 8c.386 0 .735-.21.961-.521A5.992 5.992 0 0112 5c1.998 0 3.768.977 4.859 2.479.226.311.575.521.96.521.765 0 1.277-.775.855-1.413A7.993 7.993 0 0012 3a7.993 7.993 0 00-6.674 3.587C4.904 7.225 5.416 8 6.181 8z" fill="#8D96B2"/><path d="M17.82 14c-.386 0-.735.21-.961.521A5.992 5.992 0 0112 17a5.992 5.992 0 01-4.859-2.479c-.226-.311-.575-.521-.96-.521-.765 0-1.277.775-.855 1.413A7.993 7.993 0 0012 19a7.993 7.993 0 006.674-3.587c.422-.638-.09-1.413-.855-1.413zM6.18 8c.386 0 .735-.21.961-.521A5.992 5.992 0 0112 5c1.998 0 3.768.977 4.859 2.479.226.311.575.521.96.521.765 0 1.277-.775.855-1.413A7.993 7.993 0 0012 3a7.993 7.993 0 00-6.674 3.587C4.904 7.225 5.416 8 6.181 8z" stroke="#8D96B2"/><path d="M8.222 9a.54.54 0 01.52.685l-.76 2.71a.828.828 0 01-1.598-.011l-.402-1.521-.426 1.527a.834.834 0 01-1.606.001l-.743-2.65a.583.583 0 111.125-.31l.494 1.843.498-1.757a.712.712 0 011.373.012l.47 1.774.535-1.91A.54.54 0 018.222 9zm6.033 0a.54.54 0 01.52.685l-.76 2.71a.828.828 0 01-1.598-.011l-.402-1.521-.425 1.527a.834.834 0 01-1.607.001l-.742-2.65a.583.583 0 111.124-.31l.494 1.843.499-1.757a.712.712 0 011.373.012l.47 1.774.535-1.91a.54.54 0 01.52-.393zm6.033 0a.54.54 0 01.52.685l-.76 2.71a.828.828 0 01-1.597-.011l-.403-1.521-.425 1.527a.834.834 0 01-1.606.001l-.743-2.65a.583.583 0 111.124-.31l.495 1.843.498-1.757a.712.712 0 011.373.012l.47 1.774.535-1.91a.54.54 0 01.52-.393z" fill="#62687F"/></g></svg>