<svg width="17" height="17" viewBox="0 0 17 17" fill="none" xmlns="http://www.w3.org/2000/svg">
<path fill-rule="evenodd" clip-rule="evenodd" d="M8.00832 15.2181C4.3284 15.1942 1.36118 12.1882 1.38506 8.50828C1.40895 4.82836 4.41494 1.86114 8.09486 1.88502C11.7748 1.9089 14.742 4.91489 14.7181 8.59481C14.6942 12.2747 11.6882 15.242 8.00832 15.2181Z" stroke="#312C2C" stroke-width="2" stroke-linecap="round" stroke-linejoin="round"/>
<path fill-rule="evenodd" clip-rule="evenodd" d="M8.02798 12.2182C7.6598 12.2158 7.36327 11.9154 7.36565 11.5472C7.36804 11.179 7.66845 10.8825 8.03663 10.8849C8.40482 10.8873 8.70135 11.1877 8.69896 11.5559C8.69657 11.924 8.39616 12.2206 8.02798 12.2182ZM8.04529 9.55158C7.67711 9.54919 7.38057 9.24879 7.38296 8.8806L7.4046 5.54734C7.40699 5.17916 7.70739 4.88263 8.07558 4.88501C8.44376 4.8874 8.74029 5.18781 8.7379 5.55599L8.71627 8.88926C8.71388 9.25744 8.41347 9.55397 8.04529 9.55158Z" fill="#312C2C"/>
</svg>
