<svg width="16" height="16" viewBox="0 0 16 16" fill="none" xmlns="http://www.w3.org/2000/svg">
    <path d="M7.9987 1.33325C4.3187 1.33325 1.33203 4.31992 1.33203 7.99992C1.33203 11.6799 4.3187 14.6666 7.9987 14.6666C11.6787 14.6666 14.6654 11.6799 14.6654 7.99992C14.6654 4.31992 11.6787 1.33325 7.9987 1.33325Z" stroke="#312C2C" stroke-width="1.33333"/>
    <path fill-rule="evenodd" clip-rule="evenodd" d="M7.9987 4.33325C7.63051 4.33325 7.33203 4.63173 7.33203 4.99992C7.33203 5.36811 7.63051 5.66659 7.9987 5.66659C8.36689 5.66659 8.66536 5.36811 8.66536 4.99992C8.66536 4.63173 8.36689 4.33325 7.9987 4.33325ZM7.99878 6.99992C7.63059 6.99992 7.33211 7.2984 7.33211 7.66659V10.9999C7.33211 11.3681 7.63059 11.6666 7.99878 11.6666C8.36697 11.6666 8.66545 11.3681 8.66545 10.9999V7.66659C8.66545 7.2984 8.36697 6.99992 7.99878 6.99992Z" fill="#312C2C"/>
</svg>
