<svg width="25" height="24" fill="none" xmlns="http://www.w3.org/2000/svg"><path fill-rule="evenodd" clip-rule="evenodd" d="M11.44 13.854l-1.768-2.068a.918.918 0 011.36-1.231l1.468 1.53 1.468-1.53a.918.918 0 011.36 1.231l-1.767 2.068a1.5 1.5 0 01-2.122 0z" fill="#8D96B2"/><path d="M12.5 4a1 1 0 011 1v7a1 1 0 11-2 0V5a1 1 0 011-1z" fill="#8D96B2"/><mask id="a" fill="#fff"><path fill-rule="evenodd" clip-rule="evenodd" d="M18.5 9h-2a1 1 0 110-2h2a2 2 0 012 2v7a2 2 0 01-2 2h-12a2 2 0 01-2-2V9a2 2 0 012-2h2a1 1 0 010 2h-2v7h12V9z"/></mask><path fill-rule="evenodd" clip-rule="evenodd" d="M18.5 9h-2a1 1 0 110-2h2a2 2 0 012 2v7a2 2 0 01-2 2h-12a2 2 0 01-2-2V9a2 2 0 012-2h2a1 1 0 010 2h-2v7h12V9z" fill="#80D814"/><path d="M18.5 9h2V7h-2v2zm-12 0V7h-2v2h2zm0 7h-2v2h2v-2zm12 0v2h2v-2h-2zm-2-5h2V7h-2v4zm2-6h-2v4h2V5zm4 4a4 4 0 00-4-4v4h4zm0 7V9h-4v7h4zm-4 4a4 4 0 004-4h-4v4zm-12 0h12v-4h-12v4zm-4-4a4 4 0 004 4v-4h-4zm0-7v7h4V9h-4zm4-4a4 4 0 00-4 4h4V5zm2 0h-2v4h2V5zm-2 6h2V7h-2v4zm2 5V9h-4v7h4zm10-2h-12v4h12v-4zm-2-5v7h4V9h-4zm-8 0a1 1 0 01-1-1h4a3 3 0 00-3-3v4zm-1-1a1 1 0 011-1v4a3 3 0 003-3h-4zm10 0a1 1 0 01-1 1V5a3 3 0 00-3 3h4zm-1-1a1 1 0 011 1h-4a3 3 0 003 3V7z" fill="#C6CAD8" mask="url(#a)"/></svg>