<svg width="64" height="64" viewBox="0 0 64 64" fill="none" xmlns="http://www.w3.org/2000/svg">
<path fill-rule="evenodd" clip-rule="evenodd" d="M11.7212 39.3158C12.7252 37.6889 13.4994 35.9023 14 34C14.5006 35.9023 15.2748 37.6889 16.2788 39.3158C17.8854 41.9196 20.0804 44.1146 22.6842 45.7212C24.3111 46.7252 26.0977 47.4994 28 48C26.0977 48.5006 24.3111 49.2748 22.6842 50.2788C20.0804 51.8854 17.8854 54.0804 16.2788 56.6842C15.2748 58.3111 14.5006 60.0977 14 62C13.4994 60.0977 12.7252 58.3111 11.7212 56.6842C10.1146 54.0804 7.91955 51.8854 5.31584 50.2788C3.68885 49.2748 1.90229 48.5006 0 48C1.90229 47.4994 3.68885 46.7252 5.31585 45.7212C7.91956 44.1146 10.1146 41.9196 11.7212 39.3158ZM14 43.0779C12.6111 44.9519 10.9519 46.6111 9.07792 48C10.9519 49.3889 12.6111 51.0481 14 52.9221C15.3889 51.0481 17.0481 49.3889 18.9221 48C17.0481 46.6111 15.3889 44.9519 14 43.0779Z" fill="white"/>
<path fill-rule="evenodd" clip-rule="evenodd" d="M33.8793 45.8795C25.044 49.867 14.2896 48.2307 7.02944 40.9706C-2.34315 31.598 -2.34315 16.402 7.02944 7.02944C16.402 -2.34315 31.598 -2.34315 40.9706 7.02944C48.2308 14.2897 49.8671 25.0443 45.8794 33.8796L51.9998 40V64L33.8793 45.8795ZM24 18C24 21.3137 21.3137 24 18 24C14.6863 24 12 21.3137 12 18C12 14.6863 14.6863 12 18 12C21.3137 12 24 14.6863 24 18ZM58 46H52V52V64H64V52H58V46Z" fill="#64B98A"/>
<path fill-rule="evenodd" clip-rule="evenodd" d="M12.9133 37.0703C13.3558 36.088 13.7205 35.062 14 34C14.2795 35.062 14.6442 36.088 15.0867 37.0703C17.0549 41.4402 20.5598 44.9451 24.9297 46.9133C25.912 47.3558 26.938 47.7205 28 48C26.938 48.2795 25.912 48.6442 24.9297 49.0867C20.5598 51.0549 17.0549 54.5598 15.0867 58.9297C14.6442 59.912 14.2795 60.938 14 62C13.7205 60.938 13.3558 59.912 12.9133 58.9297C10.9451 54.5598 7.44016 51.0549 3.07028 49.0867C2.08801 48.6442 1.06204 48.2795 0 48C1.06204 47.7205 2.08801 47.3558 3.07028 46.9133C7.44016 44.9451 10.9451 41.4402 12.9133 37.0703ZM14 39.3736C12.0119 43.0146 9.01463 46.0119 5.37356 48C9.01463 49.9881 12.0119 52.9854 14 56.6264C15.9881 52.9854 18.9854 49.9881 22.6264 48C18.9854 46.0119 15.9881 43.0146 14 39.3736Z" fill="#101010"/>
<path fill-rule="evenodd" clip-rule="evenodd" d="M54.293 58.2072L42.293 46.2072L43.7072 44.793L55.7072 56.793L54.293 58.2072Z" fill="#101010"/>
<circle cx="26" cy="60" r="4" fill="#1C8832"/>
<path d="M48 8C51.9136 6.9701 54.9701 3.91363 56 0C57.0299 3.91363 60.0864 6.9701 64 8C60.0864 9.0299 57.0299 12.0864 56 16C54.9701 12.0864 51.9136 9.0299 48 8Z" fill="#1C8832"/>
</svg>
