<svg width="12" height="13" fill="none" xmlns="http://www.w3.org/2000/svg"><path d="M4.94978 1.54289c-.39052-.39052-1.02369-.39052-1.41421 0-.39053.39053-.39053 1.02369 0 1.41422l1.41421-1.41422zm3.53554 4.94975l.7071.70711c.39053-.39053.39053-1.02369 0-1.41422l-.7071.70711zM3.53557 10.0282c-.39053.3905-.39053 1.0237 0 1.4142.39052.3905 1.02369.3905 1.41421 0l-1.41421-1.4142zm0-7.07109l4.24264 4.24264 1.41421-1.41422-4.24264-4.24264-1.41421 1.41422zm4.24264 2.82842L3.53557 10.0282l1.41421 1.4142 4.24264-4.24265-1.41421-1.41422z" fill="currentColor"/></svg>