<svg width="24" height="24" viewBox="0 0 24 24" fill="none" xmlns="http://www.w3.org/2000/svg">
<path d="M10.2517 4.14697C11.0137 2.77535 12.9863 2.77535 13.7483 4.14697L20.3493 16.0287C21.0899 17.3618 20.1259 19 18.601 19H5.39903C3.87406 19 2.91012 17.3618 3.65071 16.0287L10.2517 4.14697Z" fill="#FF8018"/>
<path d="M11.055 8.54975C11.0255 8.25541 11.2567 8 11.5525 8H12.4475C12.7433 8 12.9745 8.25541 12.945 8.54975L12.545 12.5498C12.5195 12.8054 12.3044 13 12.0475 13H11.9525C11.6956 13 11.4805 12.8054 11.455 12.5498L11.055 8.54975Z" fill="white"/>
<rect x="11" y="14" width="2" height="2" rx="1" fill="white"/>
</svg>
