<svg width="24" height="24" viewBox="0 0 24 24" fill="none" xmlns="http://www.w3.org/2000/svg">
    <path fill-rule="evenodd" clip-rule="evenodd" d="M12 1C9.23858 1 7 3.23858 7 6V8H6C4.34315 8 3 9.34315 3 11V19C3 20.6569 4.34315 22 6 22H18C19.6569 22 21 20.6569 21 19V11C21 9.34315 19.6569 8 18 8H17V6C17 3.23858 14.7614 1 12 1ZM15 8V6C15 4.34315 13.6569 3 12 3C10.3431 3 9 4.34315 9 6V8H15ZM7 10H6C5.44772 10 5 10.4477 5 11V19C5 19.5523 5.44772 20 6 20H18C18.5523 20 19 19.5523 19 19V11C19 10.4477 18.5523 10 18 10H17H15H9H7ZM11 15C11 14.4477 11.4477 14 12 14C12.5523 14 13 14.4477 13 15C13 15.5523 12.5523 16 12 16C11.4477 16 11 15.5523 11 15ZM12 12C10.3431 12 9 13.3431 9 15C9 16.6569 10.3431 18 12 18C13.6569 18 15 16.6569 15 15C15 13.3431 13.6569 12 12 12Z" fill="#909090"/>
</svg>
