<svg width="48" height="48" fill="none" xmlns="http://www.w3.org/2000/svg"><path fill-rule="evenodd" clip-rule="evenodd" d="M10 24c0 7.732 6.268 14 14 14s14-6.268 14-14v-.042a14.128 14.128 0 00-.483-3.619c-.301-1.113-1.57-1.563-2.6-1.047-.952.475-1.348 1.605-1.13 2.646.14.666.213 1.355.213 2.062 0 5.523-4.477 10-10 10s-10-4.477-10-10 4.477-10 10-10l.14.001a9.954 9.954 0 014.985 1.41l1.898-3.524A13.901 13.901 0 0024.03 10H24c-7.732 0-14 6.268-14 14z" fill="#C6CAD8"/><path fill-rule="evenodd" clip-rule="evenodd" d="M12.35 20.941c-1.068-.285-1.714-1.391-1.28-2.407 2.691-6.306 9.68-9.836 16.494-8.01l.03.008c1.082.293 2.1.704 3.044 1.218a13.895 13.895 0 013.22 2.414l-2.744 2.913a9.937 9.937 0 00-4.585-2.69c-4.678-1.252-9.47 1.027-11.543 5.204-.49.989-1.57 1.636-2.637 1.35z" fill="#8D96B2"/><path d="M34 12L24 22a1.414 1.414 0 102 2l10-10a1.414 1.414 0 10-2-2z" fill="#8D96B2"/><circle cx="24" cy="24" r="4" fill="#8D96B2"/></svg>