<svg width="24" height="24" viewBox="0 0 24 24" fill="none" xmlns="http://www.w3.org/2000/svg">
<path fill-rule="evenodd" clip-rule="evenodd" d="M12 22C17.5228 22 22 17.5228 22 12C22 6.47715 17.5228 2 12 2C6.47715 2 2 6.47715 2 12C2 17.5228 6.47715 22 12 22Z" stroke="#909090" stroke-width="2" stroke-miterlimit="10"/>
<path d="M12.0504 15.5L12.0502 8" stroke="#909090" stroke-width="2" stroke-linecap="round"/>
<path d="M15.5356 13.7779C15.9261 13.3874 15.9261 12.7542 15.5356 12.3637C15.1451 11.9732 14.5119 11.9732 14.1214 12.3637L15.5356 13.7779ZM12.0001 15.8992L11.293 16.6063C11.6835 16.9969 12.3166 16.9969 12.7072 16.6063L12.0001 15.8992ZM9.87874 12.3637C9.48822 11.9732 8.85506 11.9732 8.46453 12.3637C8.07401 12.7542 8.07401 13.3874 8.46453 13.7779L9.87874 12.3637ZM14.1214 12.3637L11.293 15.1921L12.7072 16.6063L15.5356 13.7779L14.1214 12.3637ZM12.7072 15.1921L9.87874 12.3637L8.46453 13.7779L11.293 16.6063L12.7072 15.1921Z" fill="#909090"/>
</svg>
