<svg width="16" height="14" fill="none" xmlns="http://www.w3.org/2000/svg"><path fill-rule="evenodd" clip-rule="evenodd" d="M10.567 1.432A7.823 7.823 0 008 1C5.275 1 2.846 2.405 1.265 4.6c-.245.34-.47.698-.671 1.073a2.801 2.801 0 000 2.654c.356.66.78 1.27 1.264 1.815L4.1 7.899a4 4 0 014.797-4.797l1.67-1.67zm-.283 2.284l1.657-1.658c1.453.832 2.666 2.109 3.493 3.669.423.797.433 1.752.004 2.546C14.32 10.34 11.914 13 8 13c-1.92 0-3.692-.697-5.124-1.876l1.84-1.84a4 4 0 105.568-5.568z" fill="#8D96B2"/><path d="M13.5.5l-12 12a.707.707 0 001 1l12-12a.707.707 0 00-1-1z" fill="#62687F"/><path fill-rule="evenodd" clip-rule="evenodd" d="M6.177 7.822l2.646-2.646a2 2 0 11-2.646 2.646z" fill="#62687F"/></svg>