<svg width="24" height="24" fill="none" xmlns="http://www.w3.org/2000/svg"><path d="M12.5 6a.5.5 0 01.5.5v1a.5.5 0 01-.5.5h-8a.5.5 0 01-.5-.5v-1a.5.5 0 01.5-.5h8zm7 0a.5.5 0 01.5.5v1a.5.5 0 01-.5.5h-2a.5.5 0 01-.5-.5v-1a.5.5 0 01.5-.5h2z" fill="#8D96B2"/><circle cx="15" cy="7" r="2" stroke="#62687F" stroke-width="2"/><path d="M4.5 16a.5.5 0 00-.5.5v1a.5.5 0 00.5.5h2a.5.5 0 00.5-.5v-1a.5.5 0 00-.5-.5h-2zm7 0a.5.5 0 00-.5.5v1a.5.5 0 00.5.5h8a.5.5 0 00.5-.5v-1a.5.5 0 00-.5-.5h-8z" fill="#8D96B2"/><circle r="2" transform="matrix(-1 0 0 1 9 17)" stroke="#62687F" stroke-width="2"/></svg>