<svg width="24" height="24" fill="none" xmlns="http://www.w3.org/2000/svg"><path d="M12.381 9.022l-7.81 8.468c-.47.508.007 1.316.679 1.15l.949-.367c.116-.045.24-.067.365-.067l.669.003a1 1 0 00.682-.264l.804-.74a1 1 0 00.302-.535l.04-.195a.924.924 0 01.937-.738.924.924 0 00.641-.229l.153-.134a.766.766 0 00.26-.569c.004-.4.315-.73.715-.758l.244-.016a1 1 0 00.592-.246l2.384-2.092a1.868 1.868 0 10-2.606-2.671z" fill="#62687F"/><ellipse cx="15.375" cy="8.71" rx="5.625" ry="5.517" fill="#62687F"/><ellipse cx="15.375" cy="8.71" rx="3.375" ry="3.31" fill="#fff" fill-opacity=".7"/><path d="M16.966 10.27c.422-.413.659-.975.659-1.56 0-.585-.237-1.147-.659-1.56a2.273 2.273 0 00-1.591-.647c-.597 0-1.169.232-1.591.646l1.591 1.56 1.591 1.562z" fill="#fff"/></svg>