<svg width="48" height="48" viewBox="0 0 48 48" fill="none" xmlns="http://www.w3.org/2000/svg">
<path d="M28 24V30H20L20 24V23C20 22.4477 19.5523 22 19 22C18.4477 22 18 22.4477 18 23V24V30C18 31.1046 18.8954 32 20 32H28C29.1046 32 30 31.1046 30 30V24V23C30 22.4477 29.5523 22 29 22C28.4477 22 28 22.4477 28 23V24Z" fill="#8D96B2"/>
<path d="M28 24V30H20L20 24V23C20 22.4477 19.5523 22 19 22C18.4477 22 18 22.4477 18 23V24V30C18 31.1046 18.8954 32 20 32H28C29.1046 32 30 31.1046 30 30V24V23C30 22.4477 29.5523 22 29 22C28.4477 22 28 22.4477 28 23V24Z" stroke="#8D96B2"/>
<path d="M28 20L20 20L20 18C20 17.4477 20.4477 17 21 17L27 17C27.5523 17 28 17.4477 28 18L28 20Z" stroke="#62687F" stroke-width="2"/>
<path d="M17 20C17 19.4477 17.4477 19 18 19H30C30.5523 19 31 19.4477 31 20C31 20.5523 30.5523 21 30 21H18C17.4477 21 17 20.5523 17 20Z" fill="#62687F"/>
<path d="M21.0065 23.413L21.0065 28.212C21.0065 28.6025 21.3231 28.9191 21.7136 28.9191C22.1041 28.9191 22.4207 28.6025 22.4207 28.212V23.413C22.4207 23.0225 22.1041 22.7059 21.7136 22.7059C21.3231 22.7059 21.0065 23.0225 21.0065 23.413Z" fill="#8D96B2"/>
<path d="M23.3066 23.413L23.3066 28.212C23.3066 28.6025 23.6231 28.9191 24.0137 28.9191C24.4042 28.9191 24.7208 28.6025 24.7208 28.212V23.413C24.7208 23.0225 24.4042 22.7059 24.0137 22.7059C23.6231 22.7059 23.3066 23.0225 23.3066 23.413Z" fill="#8D96B2"/>
<path d="M25.6066 23.413L25.6066 28.212C25.6066 28.6025 25.9232 28.9191 26.3137 28.9191C26.7042 28.9191 27.0208 28.6025 27.0208 28.212V23.413C27.0208 23.0225 26.7042 22.7059 26.3137 22.7059C25.9232 22.7059 25.6066 23.0225 25.6066 23.413Z" fill="#8D96B2"/>
</svg>
