<svg width="22" height="22" viewBox="0 0 22 22" fill="none" xmlns="http://www.w3.org/2000/svg">
<path fill-rule="evenodd" clip-rule="evenodd" d="M0 11C0 4.92487 4.92487 0 11 0C17.0751 0 22 4.92487 22 11C22 17.0751 17.0751 22 11 22C4.92487 22 0 17.0751 0 11ZM11 2C6.02944 2 2 6.02944 2 11C2 13.3051 2.86658 15.4078 4.29173 17C5.93866 15.1601 8.33375 14 11 14C13.6663 14 16.0613 15.1601 17.7083 17.0001C19.1334 15.4078 20 13.3051 20 11C20 6.02944 15.9706 2 11 2ZM16.2181 18.3338C14.9353 16.9002 13.0727 16 11 16C8.92734 16 7.06471 16.9002 5.78192 18.3338C7.25375 19.3829 9.05481 20 11 20C12.9452 20 14.7462 19.3829 16.2181 18.3338ZM7 8C7 10.2091 8.79086 12 11 12C13.2091 12 15 10.2091 15 8C15 5.79086 13.2091 4 11 4C8.79086 4 7 5.79086 7 8ZM11 10C9.89543 10 9 9.10457 9 8C9 6.89543 9.89543 6 11 6C12.1046 6 13 6.89543 13 8C13 9.10457 12.1046 10 11 10Z" fill="#312C2C"/>
</svg>
