<svg width="24" height="24" viewBox="0 0 24 24" fill="none" xmlns="http://www.w3.org/2000/svg">
<path d="M4.00005 18C3.10915 18 2.66298 16.9229 3.29294 16.2929L4.69794 14.8879C4.89128 14.6946 5.00005 14.432 5.00005 14.159V11C5.00005 8.28199 6.56419 5.86055 8.93271 4.70571L9.02005 4.664L9.02607 4.60566C9.10364 4.02055 9.35249 3.46952 9.74328 3.02339L9.87876 2.87866C10.4414 2.31607 11.2044 2 12.0001 2C12.7957 2 13.5587 2.31607 14.1213 2.87865C14.5902 3.34749 14.8878 3.95554 14.974 4.60566L14.9791 4.665L15.1842 4.76417C16.0977 5.23097 16.8999 5.89414 17.5315 6.70877L17.7158 6.95766C18.5516 8.13999 19.0003 9.55231 19.0001 11V14.158C19.0001 14.2937 19.0267 14.4279 19.0785 14.553C19.1305 14.6784 19.2065 14.7922 19.3022 14.8879L20.7072 16.2929C21.3371 16.9229 20.891 18 20.0001 18H16.0001C16.0001 19.0608 15.5786 20.0783 14.8285 20.8284C14.0783 21.5785 13.0609 22 12.0001 22C10.9392 22 9.92179 21.5785 9.17163 20.8284C8.42149 20.0783 8.00005 19.0608 8.00005 18H4.00005ZM14.0001 18H10.0001C10.0001 18.5304 10.2108 19.0391 10.5858 19.4142C10.9609 19.7893 11.4697 20 12.0001 20C12.5304 20 13.0392 19.7893 13.4142 19.4142C13.7893 19.0391 14.0001 18.5304 14.0001 18ZM12.0001 4C11.7349 4 11.4805 4.10536 11.2929 4.29293C11.1054 4.48044 11.0001 4.73478 11.0001 5V5.341C11.0001 5.76475 10.733 6.1425 10.3335 6.28378C8.3524 6.98438 7.00005 8.86432 7.00005 11V14.159C7.00005 14.7616 6.82033 15.3461 6.49068 15.8404L6.37605 16H17.6251L17.5789 15.9402C17.4857 15.8119 17.4027 15.6764 17.3306 15.5349L17.2307 15.3182C17.0784 14.9504 17.0001 14.5562 17.0001 14.158V10.9998C17.0002 9.9656 16.6797 8.95672 16.0826 8.11207C15.4857 7.26749 14.6416 6.62872 13.6665 6.28373C13.2671 6.14241 13.0001 5.7647 13.0001 5.341V5C13.0001 4.73478 12.8947 4.48044 12.7072 4.29292C12.5196 4.10536 12.2652 4 12.0001 4Z" fill="#909090"/>
</svg>
