<svg width="48" height="48" viewBox="0 0 48 48" fill="none" xmlns="http://www.w3.org/2000/svg">
<path fill-rule="evenodd" clip-rule="evenodd" d="M38.707 34.1212L34.5723 37.6559C33.736 38.3708 32.4629 38.1944 31.8526 37.2789C31.3593 36.5389 31.4675 35.5517 32.1094 34.9362L35.1715 31.9998L32.1095 29.0638C31.4675 28.4483 31.3593 27.4611 31.8526 26.721C32.4629 25.8056 33.736 25.6291 34.5723 26.344L38.707 29.8785C39.8786 31.0501 39.8786 32.9496 38.707 34.1212Z" fill="#8D96B2"/>
<mask id="path-2-inside-1" fill="white">
<path fill-rule="evenodd" clip-rule="evenodd" d="M31 16C31 17.1046 30.1046 18 29 18H12V30H29C30.1046 30 31 30.8954 31 32C31 33.1046 30.1046 34 29 34H12C9.79086 34 8 32.2091 8 30V18C8 15.7909 9.79086 14 12 14H29C30.1046 14 31 14.8954 31 16Z"/>
</mask>
<path fill-rule="evenodd" clip-rule="evenodd" d="M31 16C31 17.1046 30.1046 18 29 18H12V30H29C30.1046 30 31 30.8954 31 32C31 33.1046 30.1046 34 29 34H12C9.79086 34 8 32.2091 8 30V18C8 15.7909 9.79086 14 12 14H29C30.1046 14 31 14.8954 31 16Z" fill="#C6CAD8"/>
<path d="M12 18V14H8V18H12ZM12 30H8V34H12V30ZM29 14H12V22H29V14ZM8 18V30H16V18H8ZM12 34H29V26H12V34ZM12 38H29V30H12V38ZM4 30C4 34.4183 7.58172 38 12 38V30H4ZM4 18V30H12V18H4ZM12 10C7.58172 10 4 13.5817 4 18H12V18V10ZM29 10H12V18H29V10ZM29 18C27.8954 18 27 17.1046 27 16H35C35 12.6863 32.3137 10 29 10V18ZM27 32C27 30.8954 27.8954 30 29 30V38C32.3137 38 35 35.3137 35 32H27ZM29 34C27.8954 34 27 33.1046 27 32H35C35 28.6863 32.3137 26 29 26V34ZM29 22C32.3137 22 35 19.3137 35 16H27C27 14.8954 27.8954 14 29 14V22Z" fill="#C6CAD8" mask="url(#path-2-inside-1)"/>
<mask id="path-4-inside-2" fill="white">
<path d="M33 18H16C14.8954 18 14 17.1046 14 16C14 14.8954 14.8954 14 16 14H33C35.2091 14 37 15.7909 37 18V22C37 23.1046 36.1046 24 35 24C33.8954 24 33 23.1046 33 22V18Z"/>
</mask>
<path d="M33 18V14H37V18H33ZM16 14H33V22H16V14ZM37 18V22H29V18H37ZM41 18V22H33V18H41ZM33 10C37.4183 10 41 13.5817 41 18H33V18V10ZM16 10H33V18H16V10ZM16 18C17.1046 18 18 17.1046 18 16H10C10 12.6863 12.6863 10 16 10V18ZM41 22C41 25.3137 38.3137 28 35 28V20C33.8954 20 33 20.8954 33 22H41ZM37 22C37 20.8954 36.1046 20 35 20V28C31.6863 28 29 25.3137 29 22H37ZM16 22C12.6863 22 10 19.3137 10 16H18C18 14.8954 17.1046 14 16 14V22Z" fill="#C6CAD8" mask="url(#path-4-inside-2)"/>
<path fill-rule="evenodd" clip-rule="evenodd" d="M21.707 23.9538L19.7916 22.62C19.5358 22.4419 19.2031 22.4178 18.9243 22.5572C18.4327 22.803 18.2993 23.4433 18.6519 23.8649L20.9563 26.6204C21.3709 27.035 22.0431 27.035 22.4577 26.6204L26.147 22.3825C26.4841 21.9953 26.3708 21.3949 25.9158 21.1572C25.635 21.0105 25.2939 21.0447 25.0478 21.2443L21.707 23.9538Z" fill="#8D96B2"/>
<path d="M21 32C21 30.8954 21.8954 30 23 30H35C36.1046 30 37 30.8954 37 32C37 33.1046 36.1046 34 35 34H23C21.8954 34 21 33.1046 21 32Z" fill="#8D96B2"/>
</svg>
