<svg width="24" height="24" viewBox="0 0 24 24" fill="none" xmlns="http://www.w3.org/2000/svg">
<path d="M12.0261 20.5C12.8546 20.5 13.5261 19.8284 13.5261 19C13.5261 18.1716 12.8546 17.5 12.0261 17.5C11.1977 17.5 10.5261 18.1716 10.5261 19C10.5261 19.8284 11.1977 20.5 12.0261 20.5Z" fill="#C6CAD8"/>
<path d="M19.3077 12.1459C17.484 10.2092 14.8962 9 12.0261 9C9.17241 9 6.59794 10.1953 4.776 12.1125" stroke="#C6CAD8" stroke-width="2.09524" stroke-linecap="round"/>
<path d="M15.7563 15.6704C14.8407 14.6453 13.5088 14 12.0261 14C10.5407 14 9.20656 14.6478 8.29077 15.6762" stroke="#C6CAD8" stroke-width="2.09524" stroke-linecap="round"/>
<path d="M22.7409 8.50273C20.0184 5.72409 16.2236 4 12.0261 4C7.79706 4 3.97677 5.75013 1.25 8.56565" stroke="#C6CAD8" stroke-width="2.09524" stroke-linecap="round"/>
<path fill-rule="evenodd" clip-rule="evenodd" d="M19.6408 18.2815C19.2654 17.9062 18.6569 17.9062 18.2815 18.2815C17.9062 18.6569 17.9062 19.2654 18.2815 19.6408L19.6408 21L18.2815 22.3592C17.9062 22.7346 17.9062 23.3431 18.2815 23.7185C18.6569 24.0938 19.2654 24.0938 19.6408 23.7185L21 22.3592L22.3592 23.7185C22.7346 24.0938 23.3431 24.0938 23.7185 23.7185C24.0938 23.3431 24.0938 22.7346 23.7185 22.3592L22.3592 21L23.7185 19.6408C24.0938 19.2654 24.0938 18.6569 23.7185 18.2815C23.3431 17.9062 22.7346 17.9062 22.3592 18.2815L21 19.6408L19.6408 18.2815Z" fill="#FF8018"/>
</svg>
