<svg width="24" height="24" viewBox="0 0 24 24" fill="none" xmlns="http://www.w3.org/2000/svg">
    <path fill-rule="evenodd" clip-rule="evenodd" d="M5 4C4.44772 4 4 4.44772 4 5V18L5.2 16.4C5.38885 16.1482 5.68524 16 6 16H19C19.5523 16 20 15.5523 20 15V5C20 4.44772 19.5523 4 19 4H5ZM2 5C2 3.34315 3.34315 2 5 2H19C20.6569 2 22 3.34315 22 5V15C22 16.6569 20.6569 18 19 18H6.5L3.8 21.6C3.54174 21.9443 3.09211 22.0848 2.68377 21.9487C2.27543 21.8126 2 21.4304 2 21V5Z" fill="#312C2C"/>
    <path d="M17.5 14H11.1036C10.8808 14 10.7693 13.7307 10.9268 13.5732L12.4268 12.0732C12.4737 12.0263 12.5372 12 12.6036 12H17.5C17.7761 12 18 12.2239 18 12.5V13.5C18 13.7761 17.7761 14 17.5 14Z" fill="#312C2C"/>
    <path d="M14.36 7.42C14.56 7.62 14.56 7.93 14.36 8.13L8.47 14H6.25C6.11193 14 6 13.8881 6 13.75V11.53L11.88 5.65C12.08 5.45 12.39 5.45 12.59 5.65L14.36 7.42Z" fill="#312C2C"/>
</svg>
