<svg width="32" height="33" fill="none" xmlns="http://www.w3.org/2000/svg"><path fill-rule="evenodd" clip-rule="evenodd" d="M18.5 28.5h-2V31h-5c-1.1046 0-2 .8954-2 2h16c0-1.1046-.8954-2-2-2h-5v-2.5z" fill="#1C8832"/><path fill-rule="evenodd" clip-rule="evenodd" d="M25.2782 19.3643l4.2426 4.2426-.7071.7071c-6.2484 6.2484-16.379 6.2484-22.62741 0-6.2483871-6.2484-6.2483871-16.37901 0-22.6274L6.8934.979492 11.136 5.22217l-.7071.7071c-3.90521 3.90524-3.90521 10.23693 0 14.14213 3.9053 3.9052 10.2369 3.9052 14.1422 0l.7071-.7071zM9.72183 5.22216c-4.29577 4.29577-4.29577 11.26054 0 15.55634s11.26057 4.2958 15.55637 0l2.8284 2.8284c-.2376.2376-.4812.4656-.7303.6839-5.8921 5.1643-14.8626 4.9364-20.4829-.6839-5.62026-5.6202-5.84823-14.59084-.68391-20.48289.21833-.2491.4463-.49269.68391-.7303l2.82843 2.82845z" fill="#fff"/><path fill-rule="evenodd" clip-rule="evenodd" d="M25.2491 22.1635c-4.7147 3.9962-11.7862 3.7701-16.23438-.678-4.44817-4.4482-4.67419-11.51969-.67806-16.23445l-1.4184-1.41841C2.1435 9.33253 2.37092 17.6701 7.6005 22.8997c5.2296 5.2295 13.5671 5.457 19.067.6822l-1.4184-1.4184zm.0291-1.3851c-4.2958 4.2957-11.2606 4.2957-15.55637 0-4.29577-4.2958-4.29577-11.26062 0-15.55639L6.8934 2.39355c-.23761.23761-.46558.48121-.68391.73031C1.04517 9.01591 1.27314 17.9865 6.8934 23.6068c5.6203 5.6202 14.5908 5.8482 20.4829.6839.2491-.2184.4927-.4463.7303-.6839l-2.8284-2.8284z" fill="#101010"/><path fill-rule="evenodd" clip-rule="evenodd" d="M25.9853 21.4853c-4.6863 4.6863-12.2843 4.6863-16.97058 0-4.68629-4.6863-4.68629-12.28429 0-16.97058 4.68628-4.686293 12.28428-4.686293 16.97058 0 4.6863 4.68629 4.6863 12.28428 0 16.97058z" fill="#64B98A"/><path fill-rule="evenodd" clip-rule="evenodd" d="M9.56202 4h3.23788c1.933 0 3.5 1.567 3.5 3.5 0 .82843.6716 1.5 1.5 1.5h4.2c1.933 0 3.5 1.567 3.5 3.5s-1.567 3.5-3.5 3.5H13.2c-.8285 0-1.5001.6716-1.5001 1.5s.6716 1.5 1.5 1.5h3.3c1.933 0 3.5 1.567 3.5 3.5 0 .9292-.362 1.7738-.9528 2.4004-.7407.0958-1.4886.1225-2.2333.0801 1.2326-.1544 2.1861-1.2061 2.1861-2.4805 0-1.3807-1.1192-2.5-2.5-2.5h-3.3c-1.3807 0-2.5-1.1193-2.5-2.5S11.8192 15 13.2 15h8.7999c1.3808 0 2.5-1.1193 2.5-2.5s-1.1192-2.5-2.5-2.5h-4.2c-1.3807 0-2.5-1.11929-2.5-2.5s-1.1192-2.5-2.5-2.5H8.55518c.14778-.16494.30092-.32678.45943-.48528.17836-.17836.36094-.34994.54741-.51472zM20.3734 1.34703c-.5273.36013-.8734.96602-.8734 1.65275 0 1.10457.8954 2 2 2h4.9447c.2886.32205.5567.65594.8044 1H21.5c-1.6569 0-3-1.34315-3-3 0-.71386.2493-1.36949.6657-1.88455.4055.05652.8086.13379 1.2077.2318z" fill="#101010"/></svg>