<svg width="12" height="13" viewBox="0 0 12 13" fill="none" xmlns="http://www.w3.org/2000/svg">
    <path d="M10.9571 5.44978C11.3476 5.05926 11.3476 4.42609 10.9571 4.03557C10.5666 3.64504 9.93342 3.64504 9.54289 4.03557L10.9571 5.44978ZM6.00736 8.98532L5.30025 9.69242C5.69078 10.0829 6.32394 10.0829 6.71447 9.69242L6.00736 8.98532ZM2.47183 4.03557C2.0813 3.64504 1.44814 3.64504 1.05761 4.03557C0.667088 4.42609 0.667088 5.05926 1.05761 5.44978L2.47183 4.03557ZM9.54289 4.03557L5.30025 8.27821L6.71447 9.69242L10.9571 5.44978L9.54289 4.03557ZM6.71447 8.27821L2.47183 4.03557L1.05761 5.44978L5.30025 9.69242L6.71447 8.27821Z" fill="#312C2C"/>
</svg>
