<svg width="24" height="24" viewBox="0 0 24 24" fill="none" xmlns="http://www.w3.org/2000/svg">
<path d="M16 10V6C16 3.79086 14.2091 2 12 2V2C9.79086 2 8 3.79086 8 6V10" stroke="#909090" stroke-width="2"/>
<path fill-rule="evenodd" clip-rule="evenodd" d="M6 9C4.89543 9 4 9.89543 4 11V19C4 20.1046 4.89543 21 6 21H18C19.1046 21 20 20.1046 20 19V11C20 9.89543 19.1046 9 18 9H6ZM12 13C10.8954 13 10 13.8954 10 15C10 16.1046 10.8954 17 12 17C13.1046 17 14 16.1046 14 15C14 13.8954 13.1046 13 12 13Z" stroke="#909090" stroke-width="2"/>
</svg>
