<svg width="64" height="64" fill="none" xmlns="http://www.w3.org/2000/svg"><path fill-rule="evenodd" clip-rule="evenodd" d="M30.3 2.66016L60.592 61.0003H.00805664L30.3 2.66016zm0 4.34013L3.30005 59.0003H57.3l-27-52.00001z" fill="#fff"/><path fill-rule="evenodd" clip-rule="evenodd" d="M37 7l27 52H10L37 7z" fill="#F75C64"/><path fill-rule="evenodd" clip-rule="evenodd" d="M30.3 7L3.30005 59H57.3l-27-52zm0 4.3401L6.59204 57H54.0081L30.3 11.3401z" fill="#101010"/><path fill-rule="evenodd" clip-rule="evenodd" d="M35.5 30h-6l1 16h4l1-16zm0 21c0 1.6569-1.3431 3-3 3s-3-1.3431-3-3 1.3431-3 3-3 3 1.3431 3 3z" fill="#fff"/></svg>