<svg width="24" height="24" viewBox="0 0 24 24" fill="none" xmlns="http://www.w3.org/2000/svg">
<path fill-rule="evenodd" clip-rule="evenodd" d="M1 12C1 5.92487 5.92487 1 12 1C18.0751 1 23 5.92487 23 12C23 18.0751 18.0751 23 12 23C5.92487 23 1 18.0751 1 12ZM12 3C7.02944 3 3 7.02944 3 12C3 16.9706 7.02944 21 12 21C16.9706 21 21 16.9706 21 12C21 7.02944 16.9706 3 12 3ZM13.5278 8.39051C13.2525 8.15362 12.8067 7.98051 12.171 8.00171C11.4859 8.02457 10.9974 8.19467 10.665 8.43581C10.3443 8.66836 10.0985 9.01675 9.97248 9.54286C9.84385 10.08 9.30418 10.4111 8.76708 10.2825C8.22998 10.1538 7.89886 9.61414 8.02748 9.07705C8.25311 8.13493 8.74566 7.35719 9.49074 6.8168C10.224 6.28501 11.1286 6.03538 12.1043 6.00283C13.1295 5.96862 14.0994 6.24398 14.8321 6.87433C15.5767 7.5148 15.9794 8.43965 15.9996 9.49992C16.0134 10.2291 15.6908 10.8094 15.3319 11.2375C14.9824 11.6546 14.5384 11.9986 14.176 12.2675C14.0819 12.3373 13.9942 12.4016 13.9122 12.4616L13.9122 12.4616C13.6425 12.6591 13.4352 12.8108 13.2678 12.9655C13.1942 13.0336 13.1532 13.0804 13.1319 13.1075C13.0783 13.6092 12.6536 14 12.1377 14C11.5854 14 11.1377 13.5523 11.1377 13C11.1377 12.2795 11.6119 11.7725 11.9106 11.4965C12.1708 11.2561 12.5039 11.0128 12.7885 10.805L12.7885 10.805L12.789 10.8047L12.7892 10.8045C12.8577 10.7545 12.9233 10.7066 12.9844 10.6612C13.3414 10.3964 13.6149 10.1727 13.7991 9.95285C13.974 9.74414 14.0015 9.61855 13.9999 9.53789C13.9893 8.97847 13.7915 8.61729 13.5278 8.39051ZM13 17C13 17.5523 12.5523 18 12 18C11.4477 18 11 17.5523 11 17C11 16.4477 11.4477 16 12 16C12.5523 16 13 16.4477 13 17Z" fill="#909090"/>
</svg>
