<svg width="20" height="20" viewBox="0 0 20 20" fill="none" xmlns="http://www.w3.org/2000/svg">
    <path d="M10.4007 9.08333C8.50898 8.59167 7.90065 8.08333 7.90065 7.29167C7.90065 6.38333 8.74232 5.75 10.1507 5.75C11.2276 5.75 11.8126 6.1234 12.0714 6.72668C12.2467 7.13536 12.5836 7.5 13.0283 7.5H13.2077C13.6812 7.5 14.07 7.09987 13.9379 6.64513C13.6249 5.56724 12.7875 4.66342 11.4007 4.325V3.75C11.4007 3.05964 10.841 2.5 10.1507 2.5C9.46029 2.5 8.90065 3.05964 8.90065 3.75V4.3C7.28398 4.65 5.98398 5.7 5.98398 7.30833C5.98398 9.23333 7.57565 10.1917 9.90065 10.75C11.984 11.25 12.4007 11.9833 12.4007 12.7583C12.4007 13.3333 11.9923 14.25 10.1507 14.25C8.88919 14.25 8.19021 13.836 7.87184 13.2263C7.67268 12.8449 7.33833 12.5 6.90806 12.5H6.71423C6.23608 12.5 5.84363 12.9091 5.99043 13.3641C6.40671 14.6546 7.5734 15.4082 8.90065 15.6917V16.25C8.90065 16.9404 9.46029 17.5 10.1507 17.5C10.841 17.5 11.4007 16.9404 11.4007 16.25V15.7083C13.0257 15.4 14.3173 14.4583 14.3173 12.75C14.3173 10.3833 12.2923 9.575 10.4007 9.08333Z" fill="#909090"/>
</svg>
