<svg width="24" height="24" viewBox="12 8 24 32" fill="none" xmlns="http://www.w3.org/2000/svg">
<path d="M29 22C29 22 29 18.4973 29 17.1852C29 14.3215 26.7614 12 24 12C21.2386 12 19 14.3215 19 17.1852C19 17.6396 19 22 19 22" stroke="#8D96B2" stroke-width="4"/>
<circle cx="24" cy="28" r="8" stroke="#62687F" stroke-width="4"/>
<path fill-rule="evenodd" clip-rule="evenodd" d="M25 28.7324C25.5978 28.3866 26 27.7403 26 27C26 25.8954 25.1046 25 24 25C22.8954 25 22 25.8954 22 27C22 27.7403 22.4022 28.3866 23 28.7324V30C23 30.5523 23.4477 31 24 31C24.5523 31 25 30.5523 25 30V28.7324Z" fill="#62687F"/>
</svg>
