<svg width="24" height="24" viewBox="0 0 24 24" fill="none" xmlns="http://www.w3.org/2000/svg">
<path fill-rule="evenodd" clip-rule="evenodd" d="M13.5 5.5C14.6 5.5 15.5 4.6 15.5 3.5C15.5 2.4 14.6 1.5 13.5 1.5C12.4 1.5 11.5 2.4 11.5 3.5C11.5 4.6 12.4 5.5 13.5 5.5ZM9.8 8.9L7.23726 21.8052C7.11446 22.4236 7.58762 23 8.21811 23H8.3C8.76771 23 9.17294 22.6758 9.27561 22.2195L10.9 15L13 17V22C13 22.5523 13.4477 23 14 23C14.5523 23 15 22.5523 15 22V15.9286C15 15.6549 14.8878 15.3932 14.6897 15.2044L12.9 13.5L13.5 10.5C14.6005 11.7698 16.2026 12.6813 18.0031 12.9312C18.5501 13.0071 19 12.5523 19 12C19 11.4477 18.5481 11.0103 18.0057 10.9062C16.5497 10.6269 15.356 9.74791 14.7 8.6L13.7 7C13.3 6.4 12.7 6 12 6C11.7 6 11.5 6.1 11.2 6.1L6.61036 8.04177C6.24039 8.1983 6 8.56102 6 8.96274V12C6 12.5523 6.44772 13 7 13C7.55228 13 8 12.5523 8 12V9.6L9.8 8.9Z" fill="#312C2C"/>
</svg>
