<svg width="24" height="24" viewBox="0 0 24 24" fill="none" xmlns="http://www.w3.org/2000/svg">
<mask id="mask0" mask-type="alpha" maskUnits="userSpaceOnUse" x="0" y="0" width="24" height="24">
<rect width="24" height="24" fill="#C4C4C4"/>
</mask>
<g mask="url(#mask0)">
<path d="M13 6.5C13 6.22386 12.7761 6 12.5 6H11.5C11.2239 6 11 6.22386 11 6.5V7.36667C11 7.64281 11.2239 7.86667 11.5 7.86667L12.5 7.86667C12.7761 7.86667 13 7.64281 13 7.36667V6.5ZM17 6.93333C17 7.4488 17.4179 7.86667 17.9333 7.86667H18V18.1333H6V7.86667H6.06667C6.58213 7.86667 7 7.4488 7 6.93333C7 6.41787 6.58213 6 6.06667 6H6C4.89543 6 4 6.83574 4 7.86667V18.1333C4 19.1643 4.89543 20 6 20H18C19.1046 20 20 19.1643 20 18.1333V7.86667C20 6.83574 19.1046 6 18 6H17.9333C17.4179 6 17 6.41787 17 6.93333Z" fill="#8D96B2"/>
<path d="M13 6.5C13 6.22386 12.7761 6 12.5 6H11.5C11.2239 6 11 6.22386 11 6.5V7.36667C11 7.64281 11.2239 7.86667 11.5 7.86667L12.5 7.86667C12.7761 7.86667 13 7.64281 13 7.36667V6.5ZM17 6.93333C17 7.4488 17.4179 7.86667 17.9333 7.86667H18V18.1333H6V7.86667H6.06667C6.58213 7.86667 7 7.4488 7 6.93333C7 6.41787 6.58213 6 6.06667 6H6C4.89543 6 4 6.83574 4 7.86667V18.1333C4 19.1643 4.89543 20 6 20H18C19.1046 20 20 19.1643 20 18.1333V7.86667C20 6.83574 19.1046 6 18 6H17.9333C17.4179 6 17 6.41787 17 6.93333Z" stroke="#8D96B2"/>
<rect x="8" y="4" width="2" height="5" rx="1" fill="#62687F"/>
<rect x="14" y="4" width="2" height="5" rx="1" fill="#62687F"/>
<rect x="8" y="11" width="2" height="2" rx="0.5" fill="#62687F"/>
<rect x="11" y="11" width="2" height="2" rx="0.5" fill="#62687F"/>
<rect x="14" y="11" width="2" height="2" rx="0.5" fill="#62687F"/>
<rect x="8" y="14" width="2" height="2" rx="0.5" fill="#62687F"/>
<rect x="11" y="14" width="2" height="2" rx="0.5" fill="#62687F"/>
<rect x="14" y="14" width="2" height="2" rx="0.5" fill="#62687F"/>
</g>
</svg>
