<svg width="24" height="24" viewBox="0 0 24 24" fill="none" xmlns="http://www.w3.org/2000/svg">
<path fill-rule="evenodd" clip-rule="evenodd" d="M12.0077 20.3511C12.302 20.3677 12.6025 20.2451 12.8049 19.9782C14.4372 17.826 18.0077 12.695 18.0077 8.9922C18.0077 7.92968 17.794 7.08428 17.403 6.38771C16.4318 4.38266 14.3774 3 12 3C9.52582 3 7.40141 4.49757 6.48379 6.63571C6.25459 7.1158 6.10346 7.66333 6.04068 8.29755C6.01381 8.52797 6 8.76237 6 9C6 9.40166 6.03947 9.7941 6.11474 10.1737C6.72075 13.7177 9.74585 18.0471 11.2105 19.9782C11.4129 20.2451 11.7134 20.3677 12.0077 20.3511ZM8.00769 8.9917C8.00769 11.2008 9.79855 12.9917 12.0077 12.9917C14.2168 12.9917 16.0077 11.2008 16.0077 8.9917C16.0077 6.78256 14.2168 4.9917 12.0077 4.9917C9.79855 4.9917 8.00769 6.78256 8.00769 8.9917Z" fill="#8D96B2"/>
<circle cx="12.0077" cy="8.99219" r="2" transform="rotate(90 12.0077 8.99219)" fill="#62687F"/>
</svg>
