<svg width="24" height="24" fill="none" xmlns="http://www.w3.org/2000/svg"><path d="M9.546 15.096H5.402L4.632 17H1.804L6.13 7.2h2.73L13.2 17h-2.884l-.77-1.904zm-.812-2.044l-1.26-3.136-1.26 3.136h2.52z" fill="#62687F"/><path d="M18.088 9.286c1.26 0 2.221.29 2.884.868.663.57.994 1.447.994 2.632V17h-2.478v-.98c-.383.738-1.13 1.106-2.24 1.106-.588 0-1.097-.103-1.526-.308-.43-.205-.756-.48-.98-.826a2.28 2.28 0 01-.322-1.204c0-.719.275-1.274.826-1.666.55-.401 1.4-.602 2.548-.602h1.512c-.047-.803-.583-1.204-1.61-1.204-.364 0-.733.06-1.106.182a2.85 2.85 0 00-.952.476l-.896-1.806c.42-.28.929-.495 1.526-.644a7.168 7.168 0 011.82-.238zm-.098 6.16c.308 0 .579-.075.812-.224a1.25 1.25 0 00.504-.658v-.658h-1.148c-.775 0-1.162.257-1.162.77 0 .233.089.42.266.56.177.14.42.21.728.21z" fill="#8D96B2"/></svg>