<svg width="14" height="19" fill="none" xmlns="http://www.w3.org/2000/svg"><path fill-rule="evenodd" clip-rule="evenodd" d="M7 2c-1.07 0-2 .91-2 2.111V5.29A7.001 7.001 0 017 5c.695 0 1.366.101 2 .29V4.11C9 2.911 8.07 2 7 2zM3 4.111v2.144a7 7 0 108 0V4.11C11 1.875 9.243 0 7 0 4.757 0 3 1.875 3 4.111zM11.667 12a4.667 4.667 0 11-9.334 0 4.667 4.667 0 019.334 0zM5 11a2 2 0 113 1.732V14a1 1 0 11-2 0v-1.268A2 2 0 015 11z" fill="#00A6CA"/><path d="M7 17.667A5.667 5.667 0 107 6.333a5.667 5.667 0 000 11.334zM13 12a6 6 0 11-12 0 6 6 0 0112 0z" fill="#00A6CA" stroke="#00A6CA" stroke-width="2"/></svg>