<svg width="40" height="40" fill="none" xmlns="http://www.w3.org/2000/svg"><path d="M24 20v6h-8v-7a1 1 0 10-2 0v7a2 2 0 002 2h8a2 2 0 002-2v-7a1 1 0 10-2 0v1z" fill="#8D96B2"/><path d="M24 16h-8v-2a1 1 0 011-1h6a1 1 0 011 1v2z" stroke="#62687F" fill="#fff" stroke-width="2"/><path d="M13 16a1 1 0 011-1h12a1 1 0 110 2H14a1 1 0 01-1-1z" fill="#62687F"/><path d="M17.006 19.415v4.799a.707.707 0 101.415 0v-4.799a.707.707 0 10-1.415 0zm2.301 0v4.799a.707.707 0 101.414 0v-4.799a.707.707 0 10-1.414 0zm2.3 0v4.799a.707.707 0 101.414 0v-4.799a.707.707 0 10-1.414 0z" fill="#8D96B2"/></svg>