<svg width="30" height="30" viewBox="0 0 30 30" fill="none" xmlns="http://www.w3.org/2000/svg">
<path d="M12.0451 15.029C12.6171 15.263 13.0591 15.64 13.3711 16.16C13.7091 16.654 13.8781 17.252 13.8781 17.954C13.8781 18.89 13.5791 19.657 12.9811 20.255C12.3831 20.853 11.6421 21.152 10.7581 21.152C9.82206 21.152 9.05506 20.853 8.45706 20.255C7.85906 19.657 7.56006 18.89 7.56006 17.954C7.56006 17.486 7.61206 17.031 7.71606 16.589C7.84606 16.147 8.08006 15.484 8.41806 14.6L10.4851 9.062H13.6051L12.0451 15.029ZM20.3131 15.029C20.8851 15.263 21.3271 15.64 21.6391 16.16C21.9771 16.654 22.1461 17.252 22.1461 17.954C22.1461 18.89 21.8471 19.657 21.2491 20.255C20.6511 20.853 19.9101 21.152 19.0261 21.152C18.0901 21.152 17.3231 20.853 16.7251 20.255C16.1271 19.657 15.8281 18.89 15.8281 17.954C15.8281 17.486 15.8801 17.031 15.9841 16.589C16.1141 16.147 16.3481 15.484 16.6861 14.6L18.7531 9.062H21.8731L20.3131 15.029Z" fill="#62687F"/>
</svg>
