<svg width="24" height="24" viewBox="0 0 24 24" fill="none" xmlns="http://www.w3.org/2000/svg">
<path fill-rule="evenodd" clip-rule="evenodd" d="M12 22C17.5228 22 22 17.5228 22 12C22 6.47715 17.5228 2 12 2C6.47715 2 2 6.47715 2 12C2 17.5228 6.47715 22 12 22Z" stroke="#312C2C" stroke-width="2" stroke-linecap="round" stroke-linejoin="round"/>
<path d="M9 9.30997C9.35163 7.84175 10.4768 7.05771 12.1377 7.00229C13.7985 6.94688 14.969 7.89923 14.9998 9.51892C15.0305 11.1386 12.1377 11.9267 12.1377 13" stroke="#312C2C" stroke-width="2" stroke-linecap="round" stroke-linejoin="round"/>
<path fill-rule="evenodd" clip-rule="evenodd" d="M12 18C12.5523 18 13 17.5523 13 17C13 16.4477 12.5523 16 12 16C11.4477 16 11 16.4477 11 17C11 17.5523 11.4477 18 12 18Z" fill="#312C2C"/>
</svg>
