<svg width="24" height="24" viewBox="0 0 24 24" fill="none" xmlns="http://www.w3.org/2000/svg">
    <path fill-rule="evenodd" clip-rule="evenodd" d="M5 3C5.55228 3 6 3.44772 6 4V7H4L4 4C4 3.44772 4.44772 3 5 3ZM12 3C12.5523 3 13 3.44772 13 4L13 14H14C14.5523 14 15 14.4477 15 15C15 15.5523 14.5523 16 14 16H10C9.44772 16 9 15.5523 9 15C9 14.4477 9.44772 14 10 14H11L11 4C11 3.44772 11.4477 3 12 3ZM11 21C11 21.5523 11.4477 22 12 22C12.5523 22 13 21.5523 13 21V18H11V21ZM19 3C19.5523 3 20 3.44772 20 4V7H18V4C18 3.44772 18.4477 3 19 3ZM18 11H17C16.4477 11 16 10.5523 16 10C16 9.44772 16.4477 9 17 9H21C21.5523 9 22 9.44772 22 10C22 10.5523 21.5523 11 21 11H20V21C20 21.5523 19.5523 22 19 22C18.4477 22 18 21.5523 18 21V11ZM3 11H4L4 21C4 21.5523 4.44772 22 5 22C5.55229 22 6 21.5523 6 21L6 11H7C7.55228 11 8 10.5523 8 10C8 9.44772 7.55228 9 7 9H3C2.44772 9 2 9.44772 2 10C2 10.5523 2.44772 11 3 11Z" fill="#909090"/>
</svg>
