<svg width="10" height="10" fill="none" xmlns="http://www.w3.org/2000/svg"><circle cx="5" cy="5" r="4.5" stroke="#0A2"/><rect x="4.333" y="7" width="1.333" height="1.333" rx=".667" fill="#0A2"/><path fill-rule="evenodd" clip-rule="evenodd" d="M5 3a.667.667 0 00-.585.347c-.089.161-.23.32-.415.32h-.667c-.184 0-.336-.15-.306-.332A2 2 0 115 5.667V4.333A.667.667 0 105 3z" fill="#0A2"/><path d="M4.333 4.667c0-.184.15-.334.334-.334h1L5.38 6.055a.333.333 0 01-.329.278h-.384A.333.333 0 014.333 6V4.667z" fill="#0A2"/></svg>