<svg width="16" height="16" viewBox="0 0 16 16" fill="none" xmlns="http://www.w3.org/2000/svg">
    <path fill-rule="evenodd" clip-rule="evenodd" d="M7.9987 14.6667C4.3187 14.6667 1.33203 11.68 1.33203 8C1.33203 4.32 4.3187 1.33333 7.9987 1.33333C11.6787 1.33333 14.6654 4.32 14.6654 8C14.6654 11.68 11.6787 14.6667 7.9987 14.6667Z" stroke="#F75C64" stroke-width="2" stroke-linecap="round" stroke-linejoin="round"/>
    <path fill-rule="evenodd" clip-rule="evenodd" d="M7.9987 11.6667C7.63051 11.6667 7.33203 11.3682 7.33203 11C7.33203 10.6318 7.63051 10.3333 7.9987 10.3333C8.36689 10.3333 8.66536 10.6318 8.66536 11C8.66536 11.3682 8.36689 11.6667 7.9987 11.6667ZM7.9987 9C7.63051 9 7.33203 8.70152 7.33203 8.33333V5C7.33203 4.63181 7.63051 4.33333 7.9987 4.33333C8.36689 4.33333 8.66536 4.63181 8.66536 5V8.33333C8.66536 8.70152 8.36689 9 7.9987 9Z" fill="#F75C64"/>
</svg>
