<svg width="24" height="24" viewBox="0 0 24 24" fill="none" xmlns="http://www.w3.org/2000/svg">
<path fill-rule="evenodd" clip-rule="evenodd" d="M11.9996 5.99989L10.4139 4.41421C10.0234 4.02369 10.0234 3.39052 10.4139 3C10.8044 2.60948 11.4376 2.60948 11.8281 3L13.9795 5.15135C14.4481 5.61997 14.4481 6.37974 13.9795 6.84838L11.8281 8.99994C11.4376 9.39048 10.8044 9.39051 10.4139 8.99999C10.0234 8.60948 10.0233 7.97632 10.4138 7.58579L11.9996 5.99989Z" fill="#00AA22"/>
<path fill-rule="evenodd" clip-rule="evenodd" d="M12.0004 18.0001L13.5861 19.5858C13.9766 19.9763 13.9766 20.6095 13.5861 21C13.1956 21.3905 12.5624 21.3905 12.1719 21L10.0205 18.8487C9.55191 18.38 9.5519 17.6203 10.0205 17.1516L12.1719 15.0001C12.5624 14.6095 13.1956 14.6095 13.5861 15C13.9766 15.3905 13.9767 16.0237 13.5862 16.4142L12.0004 18.0001Z" fill="#80D814"/>
<path fill-rule="evenodd" clip-rule="evenodd" d="M12 7C9.23858 7 7 9.23858 7 12C7 13.4915 7.6527 14.8313 8.69055 15.7482C9.10444 16.1139 9.27654 16.7192 9 17.1973C8.72346 17.6754 8.10613 17.8439 7.67227 17.5021C6.04625 16.2214 5 14.2333 5 12C5 8.13401 8.13401 5 12 5V7Z" fill="#00AA22"/>
<path fill-rule="evenodd" clip-rule="evenodd" d="M17 12C17 10.6204 16.4418 9.37085 15.5365 8.4653C15.1461 8.0747 15.012 7.45988 15.3178 6.99997C15.6236 6.54006 16.2502 6.41035 16.662 6.77833C18.0955 8.0592 19 9.9238 19 12C19 15.866 15.866 19 12 19V17C14.7614 17 17 14.7614 17 12Z" fill="#80D814"/>
</svg>
