<svg width="24" height="24" viewBox="0 0 24 24" fill="none" xmlns="http://www.w3.org/2000/svg">
    <path fill-rule="evenodd" clip-rule="evenodd" d="M5 20C3.34315 20 2 18.6569 2 17V7C2 5.34315 3.34315 4 5 4H19C20.6569 4 22 5.34315 22 7V11.5C22 11.7761 21.7761 12 21.5 12H20.5C20.2239 12 20 11.7761 20 11.5V9.86619L14.058 13.4314C12.7913 14.1914 11.2087 14.1914 9.94202 13.4314L4 9.86619V17C4 17.5523 4.44772 18 5 18H12.5C12.7761 18 13 18.2239 13 18.5V19.5C13 19.7761 12.7761 20 12.5 20H5ZM20 7V7.53381L13.029 11.7164C12.3956 12.0964 11.6044 12.0964 10.971 11.7164L4 7.53381V7C4 6.44772 4.44772 6 5 6H19C19.5523 6 20 6.44771 20 7Z" fill="#909090"/>
    <path fill-rule="evenodd" clip-rule="evenodd" d="M19.6379 13.6122C19.6701 13.4102 19.4141 13.2959 19.2851 13.4546L15.0451 18.6739C14.939 18.8046 15.032 19 15.2004 19L18.4615 19L17.9003 22.5231C17.8679 22.7263 18.1267 22.8401 18.2545 22.6788L22.498 17.3242C22.6019 17.1931 22.5085 17 22.3413 17L19.0985 17L19.6379 13.6122Z" fill="#909090"/>
</svg>
