<svg width="24" height="24" viewBox="0 0 24 24" fill="none" xmlns="http://www.w3.org/2000/svg">
<mask id="mask0" mask-type="alpha" maskUnits="userSpaceOnUse" x="0" y="0" width="24" height="24">
<rect width="24" height="24" fill="#C4C4C4"/>
</mask>
<g mask="url(#mask0)">
<path d="M18.805 11.33C18.265 11.33 17.78 11.225 17.35 11.015C16.92 10.805 16.58 10.51 16.33 10.13C16.09 9.75 15.97 9.325 15.97 8.855C15.97 8.385 16.09 7.96 16.33 7.58C16.58 7.2 16.92 6.905 17.35 6.695C17.78 6.485 18.265 6.38 18.805 6.38C19.345 6.38 19.83 6.485 20.26 6.695C20.69 6.905 21.025 7.2 21.265 7.58C21.515 7.96 21.64 8.385 21.64 8.855C21.64 9.325 21.515 9.75 21.265 10.13C21.025 10.51 20.69 10.805 20.26 11.015C19.83 11.225 19.345 11.33 18.805 11.33ZM12.475 6.5H14.875V17H12.88L7.645 10.625V17H5.245V6.5H7.255L12.475 12.875V6.5ZM18.805 7.625C18.435 7.625 18.13 7.735 17.89 7.955C17.66 8.175 17.545 8.475 17.545 8.855C17.545 9.225 17.66 9.525 17.89 9.755C18.13 9.975 18.435 10.085 18.805 10.085C19.175 10.085 19.475 9.975 19.705 9.755C19.935 9.525 20.05 9.225 20.05 8.855C20.05 8.475 19.935 8.175 19.705 7.955C19.475 7.735 19.175 7.625 18.805 7.625ZM16.27 12.32H21.34V13.745H16.27V12.32Z" fill="#8D96B2"/>
</g>
</svg>
