<svg width="32" height="32" fill="none" xmlns="http://www.w3.org/2000/svg"><path fill-rule="evenodd" clip-rule="evenodd" d="M19 26.5v-20c0-2.20914-1.7909-4-4-4-2.2091 0-4 1.79086-4 4v20h8zm-4-26c-3.3137 0-6 2.68629-6 6v22h12v-22c0-3.31371-2.6863-6-6-6z" fill="#fff"/><path fill-rule="evenodd" clip-rule="evenodd" d="M20 31V6.5c0-2.76142-2.2386-5-5-5s-5 2.23858-5 5V31h10zM15 .5c-3.3137 0-6 2.68629-6 6V32h12V6.5c0-3.31371-2.6863-6-6-6z" fill="#101010"/><path d="M4 14c0-1.1046.89543-2 2-2h18c1.1046 0 2 .8954 2 2v16c0 1.1046-.8954 2-2 2H6c-1.10457 0-2-.8954-2-2V14z" fill="#64B98A"/><path fill-rule="evenodd" clip-rule="evenodd" d="M9.49982 20.4615c0-1.6356 1.32588-2.9615 2.96158-2.9615 1.6356 0 2.9615 1.3259 2.9615 2.9615 0 .9589-.4558 1.8108-1.1611 2.3516L15.6444 26.5H9.27832l1.38258-3.6869c-.70525-.5408-1.16108-1.3927-1.16108-2.3516zM12.4614 18.5c-1.0834 0-1.9616.8782-1.9616 1.9615 0 .738.4073 1.3815 1.0117 1.7168l.377.2091L10.7213 25.5h3.4801l-1.1672-3.1126.377-.2091c.6044-.3353 1.0117-.9788 1.0117-1.7168 0-1.0833-.8782-1.9615-1.9615-1.9615z" fill="#101010"/><path d="M20 12h6c1.1046 0 2 .8954 2 2v16c0 1.1046-.8954 2-2 2h-6V12z" fill="#1C8832"/><path fill="#101010" d="M20 12h1v20h-1z"/></svg>