<svg width="24" height="24" viewBox="0 0 24 24" fill="none" xmlns="http://www.w3.org/2000/svg">
<path d="M17.5 4.5C18.5877 4.5 19.7002 4.63977 20.6916 4.95129C21.192 5.11853 21.617 5.30146 22 5.53125V18.8253C20.5807 18.2303 18.9965 18 17.5 18C16.5389 18 15.4111 18.181 14.3577 18.4659C13.5497 18.6845 12.7393 18.9765 12.0492 19.3261C10.4116 18.3301 8.32937 18 6.5 18C5.12961 18 3.39899 18.3544 2 18.9023V5.52889C3.18681 4.8113 4.83722 4.5 6.5 4.5C8.35671 4.5 10.198 4.88815 11.3956 5.79669C11.7529 6.06777 12.2471 6.06777 12.6044 5.79669C13.802 4.88815 15.6433 4.5 17.5 4.5Z" stroke="#707070" stroke-width="2" stroke-linejoin="round"/>
<path d="M12 5C10.55 3.9 8.45 3.5 6.5 3.5C4.55 3.5 2.45 3.9 1 5V19.65C1 19.9 1.25 20.15 1.5 20.15C1.6 20.15 1.65 20.1 1.75 20.1C3.1 19.45 5.05 19 6.5 19C8.45 19 10.55 19.4 12 20.5C12 19.65 12 5.84082 12 5Z" fill="#707070"/>
</svg>
