<svg width="24" height="24" fill="none" viewBox="6 12 36 24" xmlns="http://www.w3.org/2000/svg"><path d="M27.168 14.832c.53-.53.305-1.427-.431-1.57A14.371 14.371 0 0024 13c-5.003 0-9.465 2.58-12.368 6.611a17.986 17.986 0 00-1.773 3.06 3.25 3.25 0 000 2.694 17.95 17.95 0 001.95 3.302c.35.468 1.03.494 1.443.081l2.56-2.56c.243-.243.34-.594.286-.934a8 8 0 019.156-9.156c.34.053.691-.043.935-.287l.979-.979zM28.568 17.432l2.554-2.554c3.039 1.704 5.516 4.465 7.044 7.85a3.13 3.13 0 01.013 2.583c-1.756 3.87-6.308 9.726-14.18 9.726-3.567 0-6.86-1.313-9.508-3.528l2.94-2.94a8 8 0 1011.137-11.137z" fill="#80D814"/><path fill-rule="evenodd" clip-rule="evenodd" d="M19.608 26.39l6.784-6.783a5 5 0 11-6.783 6.783z" fill="#0A2"/><path d="M33 13L13 33a1.414 1.414 0 102 2l20-20a1.414 1.414 0 10-2-2z" fill="#0A2"/></svg>