<svg width="24" height="24" fill="none" xmlns="http://www.w3.org/2000/svg"><path fill-rule="evenodd" clip-rule="evenodd" d="M14 18h4a2 2 0 002-2V8a2 2 0 00-2-2h-4v2h4v8h-4v2zM4 11a1 1 0 112 0v5h3.586L9 15.414A1 1 0 1110.414 14l2.152 2.151a1.2 1.2 0 010 1.698l-2.152 2.15A1 1 0 019 18.587L9.586 18H6a2 2 0 01-2-2v-5z" fill="#219653"/><path fill-rule="evenodd" clip-rule="evenodd" d="M20 7.985a1 1 0 01-.504.883l-7 4a1 1 0 01-.992 0l-7-4A1 1 0 014 7.978 2 2 0 016 6h12a2 2 0 012 1.985z" fill="#219653"/></svg>