<svg width="36" height="36" fill="none" xmlns="http://www.w3.org/2000/svg"><path d="M33.3419 5.436c-.156 0-.324.012-.48.048l-6.672 1.476V2.232c0-1.26-1.02-2.232-2.22-2.232-.156 0-.324.012-.48.048l-11.376 2.52C5.29791 4.068.461914 10.092.461914 17.052v11.28c0 1.26 1.019996 2.232 2.219996 2.232.156 0 .324-.012.48-.048l6.672-1.476 2.63999-.588 2.064-.456c6.792-1.5 11.628-7.524 11.628-14.484v-1.128l-2.64.588v.54c0 2.772-.96 5.484-2.688 7.632-1.728 2.16-4.176 3.672-6.876 4.272l-1.488.324v-3.252c0-2.772.96-5.484 2.688-7.632 1.728-2.16 4.176-3.672 6.876-4.272l10.872-2.4v10.764c0 2.772-.96 5.484-2.688 7.632-1.728 2.16-4.176 3.672-6.876 4.272l-10.872 2.4V31.14l-2.63999.588v2.04c0 1.26 1.01999 2.232 2.21999 2.232.156 0 .324-.012.48-.048l11.376-2.52c6.792-1.5 11.628-7.524 11.628-14.484V7.668c.024-1.26-1.008-2.232-2.196-2.232zm-11.868 2.568c-6.792 1.5-11.62799 7.524-11.62799 14.484v3.828l-6.744 1.5V17.052c0-2.772.96-5.484 2.688-7.632 1.728-2.16 4.176-3.672 6.87599-4.272l10.872-2.4V7.56l-2.064.444z" fill="#fff"/></svg>