<svg width="48" height="48" viewBox="0 0 48 48" fill="none" xmlns="http://www.w3.org/2000/svg">
<path fill-rule="evenodd" clip-rule="evenodd" d="M23.9996 17.9999L22.4139 16.4142C22.0234 16.0237 22.0234 15.3905 22.4139 15C22.8044 14.6095 23.4376 14.6095 23.8281 15L25.9795 17.1513C26.4481 17.62 26.4481 18.3797 25.9795 18.8484L23.8281 20.9999C23.4376 21.3905 22.8044 21.3905 22.4139 21C22.0234 20.6095 22.0233 19.9763 22.4138 19.5858L23.9996 17.9999Z" fill="#80D814"/>
<path fill-rule="evenodd" clip-rule="evenodd" d="M24.0004 30.0001L25.5861 31.5858C25.9766 31.9763 25.9766 32.6095 25.5861 33C25.1956 33.3905 24.5624 33.3905 24.1719 33L22.0205 30.8487C21.5519 30.38 21.5519 29.6203 22.0205 29.1516L24.1719 27.0001C24.5624 26.6095 25.1956 26.6095 25.5861 27C25.9766 27.3905 25.9767 28.0237 25.5862 28.4142L24.0004 30.0001Z" fill="#80D814"/>
<path fill-rule="evenodd" clip-rule="evenodd" d="M24 19C21.2386 19 19 21.2386 19 24C19 25.4915 19.6527 26.8313 20.6906 27.7482C21.1044 28.1139 21.2765 28.7192 21 29.1973C20.7235 29.6754 20.1061 29.8439 19.6723 29.5021C18.0462 28.2214 17 26.2333 17 24C17 20.134 20.134 17 24 17V19Z" fill="#80D814"/>
<path fill-rule="evenodd" clip-rule="evenodd" d="M29 24C29 22.6204 28.4418 21.3708 27.5365 20.4653C27.1461 20.0747 27.012 19.4599 27.3178 19C27.6236 18.5401 28.2502 18.4103 28.662 18.7783C30.0955 20.0592 31 21.9238 31 24C31 27.866 27.866 31 24 31V29C26.7614 29 29 26.7614 29 24Z" fill="#80D814"/>
</svg>
