<svg width="112" height="32" viewBox="0 0 112 32" fill="none" xmlns="http://www.w3.org/2000/svg">
<path d="M29.6373 4.832C29.4986 4.832 29.3493 4.84267 29.2106 4.87467L23.28 6.18667V1.984C23.28 0.864 22.3733 0 21.3066 0C21.168 0 21.0186 0.0106667 20.88 0.0426667L10.768 2.28267C4.70931 3.616 0.410645 8.97067 0.410645 15.1573V25.184C0.410645 26.304 1.31731 27.168 2.38398 27.168C2.52264 27.168 2.67198 27.1573 2.81064 27.1253L8.74131 25.8133L11.088 25.2907L12.9226 24.8853C18.96 23.552 23.2586 18.1973 23.2586 12.0107V11.008L20.912 11.5307V12.0107C20.912 14.4747 20.0586 16.8853 18.5226 18.7947C16.9866 20.7147 14.8106 22.0587 12.4106 22.592L11.088 22.88V19.9893C11.088 17.5253 11.9413 15.1147 13.4773 13.2053C15.0133 11.2853 17.1893 9.94133 19.5893 9.408L29.2533 7.27467V16.8427C29.2533 19.3067 28.4 21.7173 26.864 23.6267C25.328 25.5467 23.152 26.8907 20.752 27.424L11.088 29.5573V27.68L8.74131 28.2027V30.016C8.74131 31.136 9.64798 32 10.7146 32C10.8533 32 11.0026 31.9893 11.1413 31.9573L21.2533 29.7173C27.2906 28.384 31.5893 23.0293 31.5893 16.8427V6.816C31.6106 5.696 30.6933 4.832 29.6373 4.832ZM19.088 7.11467C13.0506 8.448 8.75198 13.8027 8.75198 19.9893V23.392L2.75731 24.7253V15.1573C2.75731 12.6933 3.61064 10.2827 5.14665 8.37333C6.68264 6.45333 8.85864 5.10933 11.2586 4.576L20.9226 2.44267V6.72L19.088 7.11467Z" fill="#312C2C"/>
<path d="M45.0133 0.709968H40.5247V0.363647H45.0133V0.709968Z" fill="#312C2C"/>
<path d="M47.6086 6.96279C47.8297 7.16593 48.0912 7.33113 48.3852 7.4538C48.6766 7.57504 48.9914 7.63637 49.321 7.63637C49.6426 7.63637 49.9538 7.57504 50.2445 7.4538C50.5381 7.33149 50.7945 7.16699 51.0074 6.96492C51.2196 6.76356 51.3921 6.52071 51.5204 6.24383C51.6464 5.96909 51.7105 5.67413 51.7105 5.36712V1.74893H51.3226V5.36712C51.3226 5.63017 51.27 5.87797 51.1663 6.1038C51.0633 6.32821 50.9199 6.52745 50.7402 6.69655C50.5601 6.86601 50.3461 7.00037 50.1033 7.0968C49.8605 7.19358 49.5994 7.24286 49.3271 7.24286C49.0461 7.24286 48.781 7.19358 48.5379 7.0968C48.2965 7.00073 48.0793 6.86672 47.892 6.69868C47.704 6.52993 47.5538 6.33069 47.4468 6.10557C47.3384 5.8801 47.2837 5.63159 47.2837 5.36712V1.74893H46.8957V5.36712C46.8957 5.67448 46.9595 5.96944 47.0859 6.24383C47.2127 6.51965 47.3888 6.76178 47.6086 6.96279Z" fill="#312C2C"/>
<path d="M41.6768 5.45737L41.9275 4.88456C42.0101 4.6494 42.0864 4.43746 42.1548 4.25425C42.2233 4.07036 42.2842 3.90585 42.3375 3.7604C42.3904 3.6146 42.4403 3.48023 42.486 3.35728C42.5321 3.23295 42.5782 3.11313 42.6239 2.99746L42.7581 2.65945L42.886 2.99988C43.0184 3.35417 43.1398 3.66516 43.2561 3.95122C43.3733 4.24178 43.4944 4.55555 43.6158 4.88352L43.8655 5.4546L44.7889 7.60213L45.1645 7.60317C44.9677 7.12421 44.7497 6.60507 44.5371 6.10083L44.4719 5.94546L44.4718 5.94527C44.2736 5.47339 44.0712 4.99149 43.8871 4.54135C43.4978 3.59174 43.1182 2.67988 42.7564 1.82655L40.3613 7.63295L40.7647 7.62672C40.8889 7.33286 41.0168 7.03044 41.1484 6.71925L41.2032 6.58949C41.3669 6.2023 41.5248 5.82516 41.6768 5.45737Z" fill="#312C2C"/>
<path fill-rule="evenodd" clip-rule="evenodd" d="M58.5889 7.63637H58.103L56.3274 5.33513H54.8173V7.63637H54.4619V1.74893H56.1052C56.3552 1.74893 56.5901 1.79948 56.8035 1.89987C57.0194 2.00097 57.2071 2.13636 57.3611 2.30144C57.5158 2.46758 57.6399 2.66059 57.731 2.87481C57.8203 3.0869 57.8656 3.31067 57.8656 3.54008C57.8656 3.89605 57.7837 4.22127 57.6216 4.50689C57.461 4.78968 57.2257 4.99436 56.9023 5.13151L56.7293 5.20469L57.3949 6.06014C57.4856 6.17361 57.5896 6.30936 57.7134 6.47444C57.8343 6.63528 57.9595 6.80036 58.0878 6.96898C58.2162 7.13724 58.3385 7.29949 58.4549 7.45574C58.5017 7.51937 58.5463 7.57946 58.5889 7.63637ZM54.8173 2.11798V4.94275H56.1052C56.2951 4.94275 56.4793 4.90563 56.6516 4.8321C56.8242 4.75858 56.9751 4.65783 57.0999 4.53269C57.2254 4.4072 57.3259 4.25838 57.3991 4.09083C57.4729 3.92044 57.5102 3.73804 57.5102 3.54786C57.5102 3.35061 57.4729 3.16255 57.3994 2.98863C57.3266 2.81754 57.2268 2.66518 57.1016 2.53581C56.9761 2.40537 56.8246 2.30215 56.6519 2.22862C56.479 2.15509 56.2951 2.11798 56.1052 2.11798H54.8173Z" fill="#312C2C"/>
<path d="M61.9537 5.43522L62.2045 4.85354C62.2861 4.61827 62.3626 4.40269 62.4325 4.21349L62.4739 4.1003C62.5257 3.95857 62.573 3.82919 62.6151 3.712C62.6685 3.56394 62.7184 3.42749 62.7642 3.30264C62.8104 3.17639 62.8562 3.05471 62.9023 2.93725L63.0367 2.59401L63.1645 2.93971C63.2974 3.29948 63.4187 3.61528 63.5351 3.90577C63.6529 4.20083 63.7738 4.51945 63.8958 4.85249L64.1458 5.43241L65.0703 7.61316L65.4672 7.61492C65.2753 7.14227 65.0583 6.63022 64.8471 6.1333L64.8282 6.08863C64.6033 5.5582 64.3719 5.01232 64.1675 4.50503C63.7776 3.54073 63.3973 2.61511 63.0353 1.74893L60.6523 7.63637H61.0409C61.1821 7.29736 61.3282 6.94708 61.4794 6.58486C61.643 6.19168 61.8011 5.8087 61.9537 5.43522Z" fill="#312C2C"/>
<path d="M89.1888 23.977C88.5095 24.858 87.4084 25.3625 86.1512 25.3625C85.1672 25.3625 84.2302 24.9032 83.5898 24.0975L83.4258 23.8942L91.8751 20.9274C91.4612 18.0358 89.0248 15.8747 86.1512 15.8747C82.9573 15.8747 80.3647 18.5253 80.3647 21.7858C80.3647 25.0463 82.9573 27.6969 86.1512 27.6969C88.7984 27.6969 91.0317 26.2436 91.922 23.977H89.1888ZM82.7933 21.6804C82.8167 20.7542 83.176 19.8807 83.8007 19.2331C84.4332 18.578 85.2687 18.209 86.1512 18.209C87.1897 18.209 88.1581 18.7135 88.8062 19.587L88.9546 19.7903L82.7855 21.959L82.7933 21.6804Z" fill="#312C2C"/>
<path d="M53.244 14.203C53.9781 14.203 54.5715 13.6307 54.5715 12.9229C54.5715 12.2151 53.9781 11.6428 53.244 11.6428C52.51 11.6428 51.9165 12.2151 51.9165 12.9229C51.9165 13.6307 52.51 14.203 53.244 14.203Z" fill="#312C2C"/>
<path d="M54.4545 15.7091H52.0337V27.5313H54.4545V15.7091Z" fill="#312C2C"/>
<path d="M111.624 17.2978H108.813V15.9424C108.813 14.8656 109.719 13.9922 110.835 13.9922H111.624V11.6578H110.835C108.383 11.6578 106.392 13.578 106.392 15.9424V27.5688H108.813V19.6322H111.624V17.2978Z" fill="#312C2C"/>
<path d="M49.8393 13.9921V11.6502H40V27.5386H42.4208V20.7616H49.8002V18.4273H42.4208V13.9921H49.8393Z" fill="#312C2C"/>
<path d="M72.329 25.1894V11.6428H69.9082V27.5312H72.1337V27.5387H79.7474V25.1894H72.329Z" fill="#312C2C"/>
<path d="M102.23 16.0102V17.2903L101.902 17.0117C101.058 16.2888 99.9729 15.8821 98.8484 15.8821C95.8498 15.8897 93.3744 18.2466 93.1011 21.236C93.0933 21.3038 93.0933 21.3715 93.0854 21.4393C93.0854 21.4694 93.0854 21.4996 93.0776 21.5221C93.0776 21.605 93.0698 21.6803 93.0698 21.7631V21.7706C93.0698 21.7857 93.0698 21.7932 93.0698 21.8083C93.0698 25.0613 95.6624 27.7118 98.8484 27.7194C99.9729 27.7118 101.058 27.3128 101.902 26.5899L102.23 26.3113V27.5688H104.65V21.8083C104.65 21.7932 104.65 21.7857 104.65 21.7706V16.0403V16.0102H102.23ZM98.8641 25.3851C97.0055 25.3851 95.4984 23.7812 95.4984 21.8083C95.4984 21.7481 95.4984 21.6803 95.5062 21.62V21.6125C95.5296 21.1532 95.639 20.724 95.803 20.3249H95.7951C96.3262 19.0824 97.4975 18.2165 98.8641 18.2165C100.231 18.2165 101.402 19.0824 101.933 20.3249H101.925C102.097 20.724 102.198 21.1532 102.222 21.6125V21.62C102.222 21.6803 102.23 21.7481 102.23 21.8083C102.23 23.7812 100.723 25.3851 98.8641 25.3851Z" fill="#312C2C"/>
<path d="M61.9114 15.8974C58.7176 15.8974 56.125 18.548 56.125 21.8085C56.125 25.0614 58.7176 27.712 61.8958 27.7195C63.0203 27.712 64.1057 27.3129 64.9491 26.59L65.2771 26.3114V26.3717C65.2771 27.9078 63.7543 29.459 61.9114 29.459C60.9353 29.459 60.0138 28.9996 59.3891 28.2391L57.6712 29.8957C58.7488 31.093 60.2715 31.7933 61.9114 31.7933C65.1053 31.7933 67.6978 29.1126 67.6978 26.334V21.816C67.6978 18.548 65.0975 15.8974 61.9114 15.8974ZM61.9114 25.3852C60.0529 25.3852 58.5458 23.7813 58.5458 21.8085C58.5458 19.8356 60.0529 18.2317 61.9114 18.2317C63.7699 18.2317 65.2771 19.8356 65.2771 21.8085C65.2771 23.7813 63.7621 25.3852 61.9114 25.3852Z" fill="#312C2C"/>
</svg>
