<svg width="16" height="17" viewBox="0 0 16 17" fill="none" xmlns="http://www.w3.org/2000/svg">
    <g clip-path="url(#clip0)">
        <path d="M14.8204 2.916C14.751 2.916 14.6764 2.92133 14.607 2.93733L11.6417 3.59333V1.492C11.6417 0.932 11.1884 0.5 10.655 0.5C10.5857 0.5 10.511 0.505333 10.4417 0.521333L5.3857 1.64133C2.35636 2.308 0.207031 4.98533 0.207031 8.07867V13.092C0.207031 13.652 0.660365 14.084 1.1937 14.084C1.26303 14.084 1.3377 14.0787 1.40703 14.0627L4.37236 13.4067L5.5457 13.1453L6.46303 12.9427C9.4817 12.276 11.631 9.59867 11.631 6.50533V6.004L10.4577 6.26533V6.50533C10.4577 7.73733 10.031 8.94267 9.26303 9.89733C8.49503 10.8573 7.40703 11.5293 6.20703 11.796L5.5457 11.94V10.4947C5.5457 9.26267 5.97237 8.05733 6.74037 7.10267C7.50837 6.14267 8.59637 5.47067 9.79637 5.204L14.6284 4.13733V8.92133C14.6284 10.1533 14.2017 11.3587 13.4337 12.3133C12.6657 13.2733 11.5777 13.9453 10.3777 14.212L5.5457 15.2787V14.34L4.37236 14.6013V15.508C4.37236 16.068 4.8257 16.5 5.35903 16.5C5.42837 16.5 5.50303 16.4947 5.57237 16.4787L10.6284 15.3587C13.647 14.692 15.7964 12.0147 15.7964 8.92133V3.908C15.807 3.348 15.3484 2.916 14.8204 2.916ZM9.5457 4.05733C6.52703 4.724 4.3777 7.40133 4.3777 10.4947V12.196L1.38036 12.8627V8.07867C1.38036 6.84667 1.80703 5.64133 2.57503 4.68667C3.34303 3.72667 4.43103 3.05467 5.63103 2.788L10.463 1.72133V3.86L9.5457 4.05733Z" fill="#B3B3B3"/>
    </g>
    <defs>
        <clipPath id="clip0">
            <rect width="16" height="16" fill="white" transform="translate(0 0.5)"/>
        </clipPath>
    </defs>
</svg>
