<svg width="115" height="16" viewBox="0 0 115 16" fill="none" xmlns="http://www.w3.org/2000/svg">
<line x1="3.33325" y1="11.4193" x2="11.2524" y2="3.50016" stroke="#B3B3B3" stroke-width="2" stroke-linecap="round"/>
<path fill-rule="evenodd" clip-rule="evenodd" d="M4.34303 5.17637C5.388 4.43289 6.64554 3.99984 7.99996 3.99984C9.1799 3.99984 10.2863 4.3285 11.2427 4.90476L12.209 3.93843C10.9938 3.13474 9.54997 2.6665 7.99996 2.6665C6.35494 2.6665 4.82949 3.19389 3.57006 4.08995C2.30311 4.99136 1.30514 6.26469 0.713714 7.75358L0.615967 7.99966L0.713688 8.24574C1.305 9.73481 2.30303 11.0083 3.57006 11.9097C3.70413 12.0051 3.84121 12.0963 3.98112 12.1832C4.00446 12.1488 4.03136 12.1161 4.06182 12.0856L4.94414 11.2033C4.73698 11.0878 4.53637 10.9609 4.34303 10.8233C3.35865 10.1229 2.56264 9.14732 2.05602 7.99973C2.56273 6.85224 3.35871 5.87669 4.34303 5.17637ZM6.27519 11.7579L5.22514 12.8079C6.08739 13.147 7.02257 13.3332 7.99996 13.3332C9.64497 13.3332 11.1704 12.8058 12.4298 11.9097C13.6968 11.0083 14.6948 9.73498 15.2862 8.24609L15.3839 8.00002L15.2862 7.75393C14.8313 6.60831 14.1356 5.59031 13.2619 4.77115L12.3185 5.71455C12.9995 6.34491 13.5564 7.12211 13.9439 7.99994C13.4372 9.14744 12.6412 10.123 11.6569 10.8233C10.6119 11.5668 9.35437 11.9998 7.99996 11.9998C7.4029 11.9998 6.82468 11.9157 6.27519 11.7579Z" fill="#B3B3B3"/>
<path d="M24.9277 11.5229H28.8926C29.3662 11.5229 29.6885 11.2593 29.6885 10.8003C29.6885 10.3413 29.376 10.0776 28.8926 10.0776H26.1533V10.0386L29.2246 5.95654C29.3613 5.771 29.4883 5.59033 29.4883 5.31201C29.4883 4.79932 29.1416 4.47705 28.5898 4.47705H24.7959C24.3125 4.47705 24 4.74072 24 5.19971C24 5.65869 24.3174 5.92236 24.7959 5.92236H27.3838V5.96143L24.2832 10.0581C24.1074 10.2876 24.0342 10.478 24.0342 10.7222C24.0342 11.2104 24.3906 11.5229 24.9277 11.5229Z" fill="#B3B3B3"/>
<path d="M31.4414 11.5229H34.6689C35.1523 11.5229 35.4648 11.2593 35.4648 10.8003C35.4648 10.3413 35.1426 10.0776 34.6689 10.0776H32.335V8.64209H34.5615C35.0059 8.64209 35.2842 8.39795 35.2842 7.98291C35.2842 7.56787 34.9961 7.32373 34.5615 7.32373H32.335V5.92236H34.6689C35.1426 5.92236 35.4648 5.65869 35.4648 5.19971C35.4648 4.74072 35.1523 4.47705 34.6689 4.47705H31.4414C30.875 4.47705 30.543 4.81885 30.543 5.41455V10.5854C30.543 11.1812 30.875 11.5229 31.4414 11.5229Z" fill="#B3B3B3"/>
<path d="M37.2812 11.6353C37.8477 11.6353 38.1748 11.2935 38.1748 10.7026V9.05713H39.2002L40.2451 10.937C40.5479 11.4839 40.7334 11.6353 41.168 11.6353C41.6904 11.6353 42.0615 11.2935 42.0615 10.8198C42.0615 10.6099 42.0273 10.4634 41.8711 10.2046L41.0068 8.73486C41.7246 8.37354 42.1055 7.63135 42.1055 6.80127C42.1055 5.34619 41.1582 4.47705 39.4004 4.47705H37.2812C36.7148 4.47705 36.3828 4.81885 36.3828 5.41455V10.7026C36.3828 11.2935 36.7148 11.6353 37.2812 11.6353ZM38.1748 7.83154V5.82959H39.2197C39.8594 5.82959 40.2744 6.23486 40.2744 6.83545C40.2744 7.4458 39.8838 7.83154 39.2246 7.83154H38.1748Z" fill="#B3B3B3"/>
<path d="M46.29 11.645C48.4238 11.645 49.7666 10.2485 49.7666 8.00244C49.7666 5.75635 48.4238 4.35498 46.29 4.35498C44.1562 4.35498 42.8086 5.75635 42.8086 8.00244C42.8086 10.2485 44.1514 11.645 46.29 11.645ZM46.29 10.1899C45.2842 10.1899 44.6348 9.34033 44.6348 8.00244C44.6348 6.65967 45.2891 5.81006 46.29 5.81006C47.291 5.81006 47.9453 6.65967 47.9453 8.00244C47.9453 9.34033 47.291 10.1899 46.29 10.1899Z" fill="#B3B3B3"/>
<path d="M53.4824 11.6304C54.0488 11.6304 54.376 11.2935 54.376 10.6978V9.53076L55.0303 8.84717L56.8564 11.1274C57.1445 11.4937 57.4033 11.6353 57.7793 11.6353C58.2676 11.6353 58.6387 11.2593 58.6387 10.771C58.6387 10.522 58.5166 10.2534 58.2236 9.89209L56.4219 7.68506L58.1064 5.90771C58.3457 5.64893 58.4385 5.45361 58.4385 5.18994C58.4385 4.73096 58.0625 4.36475 57.5938 4.36475C57.291 4.36475 57.0664 4.48193 56.8125 4.76514L54.415 7.42139H54.376V5.30225C54.376 4.70654 54.0488 4.36963 53.4824 4.36963C52.916 4.36963 52.584 4.70654 52.584 5.30225V10.6978C52.584 11.2935 52.916 11.6304 53.4824 11.6304Z" fill="#B3B3B3"/>
<path d="M60.2793 11.6304C60.8115 11.6304 61.1289 11.313 61.1289 10.7417V7.38721H61.168L63.8828 11.1323C64.1416 11.4888 64.3809 11.6304 64.7422 11.6304C65.2842 11.6304 65.5869 11.3325 65.5869 10.7905V5.2583C65.5869 4.68701 65.2744 4.36963 64.7373 4.36963C64.2051 4.36963 63.8877 4.68701 63.8877 5.2583V8.57373H63.8486L61.1533 4.86768C60.8848 4.51611 60.6406 4.36963 60.2988 4.36963C59.7422 4.36963 59.4297 4.66748 59.4297 5.21924V10.7417C59.4297 11.313 59.7422 11.6304 60.2793 11.6304Z" fill="#B3B3B3"/>
<path d="M69.9424 11.645C72.0762 11.645 73.4189 10.2485 73.4189 8.00244C73.4189 5.75635 72.0762 4.35498 69.9424 4.35498C67.8086 4.35498 66.4609 5.75635 66.4609 8.00244C66.4609 10.2485 67.8037 11.645 69.9424 11.645ZM69.9424 10.1899C68.9365 10.1899 68.2871 9.34033 68.2871 8.00244C68.2871 6.65967 68.9414 5.81006 69.9424 5.81006C70.9434 5.81006 71.5977 6.65967 71.5977 8.00244C71.5977 9.34033 70.9434 10.1899 69.9424 10.1899Z" fill="#B3B3B3"/>
<path d="M76.3975 11.6304C76.9639 11.6304 77.291 11.3472 77.457 10.7075L78.4336 7.12354H78.4727L79.4492 10.7075C79.6201 11.3618 79.9375 11.6304 80.5186 11.6304C81.0752 11.6304 81.3828 11.3569 81.5586 10.7173L82.9062 5.79053C82.9648 5.55615 83.0039 5.32178 83.0039 5.16553C83.0039 4.6626 82.6719 4.36963 82.1201 4.36963C81.6514 4.36963 81.373 4.62354 81.2656 5.15088L80.3867 9.23779H80.3477L79.3174 5.10693C79.2002 4.61865 78.9121 4.36963 78.4531 4.36963C77.9795 4.36963 77.7109 4.59912 77.584 5.11182L76.5586 9.23779H76.5195L75.6406 5.15088C75.5332 4.62354 75.2549 4.36963 74.7861 4.36963C74.2344 4.36963 73.9023 4.6626 73.9023 5.16553C73.9023 5.32666 73.9414 5.56592 74 5.79053L75.3428 10.7026C75.5186 11.3569 75.8262 11.6304 76.3975 11.6304Z" fill="#B3B3B3"/>
<path d="M84.8203 11.5229H87.9209C88.4043 11.5229 88.7168 11.2593 88.7168 10.8003C88.7168 10.3413 88.3994 10.0776 87.9209 10.0776H85.7139V5.30225C85.7139 4.70654 85.3867 4.36963 84.8203 4.36963C84.2539 4.36963 83.9219 4.70654 83.9219 5.30225V10.5854C83.9219 11.1812 84.2539 11.5229 84.8203 11.5229Z" fill="#B3B3B3"/>
<path d="M90.3477 11.5229H93.5752C94.0586 11.5229 94.3711 11.2593 94.3711 10.8003C94.3711 10.3413 94.0488 10.0776 93.5752 10.0776H91.2412V8.64209H93.4678C93.9121 8.64209 94.1904 8.39795 94.1904 7.98291C94.1904 7.56787 93.9023 7.32373 93.4678 7.32373H91.2412V5.92236H93.5752C94.0488 5.92236 94.3711 5.65869 94.3711 5.19971C94.3711 4.74072 94.0586 4.47705 93.5752 4.47705H90.3477C89.7812 4.47705 89.4492 4.81885 89.4492 5.41455V10.5854C89.4492 11.1812 89.7812 11.5229 90.3477 11.5229Z" fill="#B3B3B3"/>
<path d="M96.1875 11.5229H98.1504C100.274 11.5229 101.529 10.2095 101.529 7.9585C101.529 5.7124 100.279 4.47705 98.1504 4.47705H96.1875C95.6211 4.47705 95.2891 4.81885 95.2891 5.41455V10.5854C95.2891 11.1812 95.6211 11.5229 96.1875 11.5229ZM97.0811 10.0776V5.92236H97.916C99.0488 5.92236 99.708 6.64014 99.708 7.96338C99.708 9.36963 99.083 10.0776 97.916 10.0776H97.0811Z" fill="#B3B3B3"/>
<path d="M105.685 11.645C107.735 11.645 108.883 10.395 108.883 8.66162V8.61279C108.883 8.01709 108.556 7.68018 107.989 7.68018H106.456C106.041 7.68018 105.772 7.8999 105.772 8.29541C105.772 8.69092 106.046 8.91064 106.456 8.91064H107.154L107.149 9.01807C107.101 9.72607 106.534 10.2046 105.724 10.2046C104.693 10.2046 104.029 9.35986 104.029 7.96338C104.029 6.59131 104.63 5.79541 105.646 5.79541C106.236 5.79541 106.656 6.03467 106.993 6.56689C107.213 6.88916 107.481 7.03076 107.843 7.03076C108.302 7.03076 108.614 6.72314 108.614 6.26904C108.614 6.10791 108.58 5.95654 108.487 5.77588C108.082 4.9751 107.022 4.35498 105.641 4.35498C103.512 4.35498 102.203 5.70264 102.203 7.98779C102.203 10.3022 103.512 11.645 105.685 11.645Z" fill="#B3B3B3"/>
<path d="M110.67 11.5229H113.897C114.381 11.5229 114.693 11.2593 114.693 10.8003C114.693 10.3413 114.371 10.0776 113.897 10.0776H111.563V8.64209H113.79C114.234 8.64209 114.513 8.39795 114.513 7.98291C114.513 7.56787 114.225 7.32373 113.79 7.32373H111.563V5.92236H113.897C114.371 5.92236 114.693 5.65869 114.693 5.19971C114.693 4.74072 114.381 4.47705 113.897 4.47705H110.67C110.104 4.47705 109.771 4.81885 109.771 5.41455V10.5854C109.771 11.1812 110.104 11.5229 110.67 11.5229Z" fill="#B3B3B3"/>
</svg>
